<?xml version="1.0" standalone="no"?>
<!DOCTYPE svg PUBLIC "-//W3C//DTD SVG 1.1//EN" "http://www.w3.org/Graphics/SVG/1.1/DTD/svg11.dtd" >
<svg xmlns="http://www.w3.org/2000/svg" xmlns:xlink="http://www.w3.org/1999/xlink" version="1.1">
<metadata>
Created by FontForge 20190801 at Thu Jan 31 13:26:33 2013
 By Jimmy Wärting
Spacing/Kerning by Igino Marini: www.ikern.com
</metadata>
<defs>
<font id="KlinicSlab-Medium" horiz-adv-x="584" >
  <font-face 
    font-family="Klinic Slab Medium"
    font-weight="400"
    font-stretch="normal"
    units-per-em="1000"
    panose-1="0 0 0 0 0 0 0 0 0 0"
    ascent="750"
    descent="-250"
    x-height="428"
    cap-height="609"
    bbox="-42 -285 1159 954"
    underline-thickness="50"
    underline-position="-100"
    unicode-range="U+0020-FB06"
  />
<missing-glyph horiz-adv-x="425" 
d="M0 0v609h425v-609h-425zM59 42h306l-153 226zM365 567h-306l153 -227zM383 520l-146 -216l146 -216v432zM42 88l146 216l-146 216v-432z" />
    <glyph glyph-name="f_f_b" unicode="ffb" horiz-adv-x="1147" 
d="M336 0v68h76v291h-215v-291h92v-68h-253v68h76v291h-86v69h86v111c0 121 81 170 184 170c61 0 119 -17 162 -31c34 29 83 40 137 40c36 0 72 -5 105 -11h97v-307c35 22 78 39 128 39c118 0 187 -85 187 -217c0 -155 -96 -233 -249 -233c-49 0 -110 8 -151 17v633
c-30 7 -65 12 -100 12c-64 0 -115 -18 -115 -93v-130h115v-69h-115v-291h92v-68h-253zM860 55c110 0 165 61 165 167c0 85 -37 151 -120 151c-41 0 -78 -17 -108 -36v-276c19 -3 42 -6 63 -6zM197 428h215v131c0 25 3 45 9 63c-32 11 -71 20 -110 20
c-70 0 -114 -29 -114 -103v-111z" />
    <glyph glyph-name="f_f_h" unicode="ffh" horiz-adv-x="1174" 
d="M336 0v68h76v291h-215v-291h92v-68h-253v68h76v291h-86v69h86v111c0 121 81 170 184 170c61 0 119 -17 162 -31c34 29 83 40 137 40c36 0 72 -5 105 -11h97v-337c45 39 100 69 163 69c78 0 127 -46 127 -136v-235h72v-68h-230v68h72v226c0 47 -16 76 -67 76
s-99 -31 -137 -62v-240h73v-68h-231v68h73v571c-30 7 -65 12 -100 12c-64 0 -115 -18 -115 -93v-130h115v-69h-115v-291h92v-68h-253zM197 539v-111h215v131c0 25 3 45 9 63c-32 11 -71 20 -110 20c-70 0 -114 -29 -114 -103z" />
    <glyph glyph-name="f_f_i" unicode="ffi" horiz-adv-x="889" 
d="M36 0v68h76v291h-86v69h86v111c0 121 81 170 184 170c61 0 119 -17 162 -31c34 29 83 40 137 40c55 0 111 -11 155 -22l-10 -63c-35 8 -82 18 -128 18c-64 0 -115 -18 -115 -93v-130h300v-360h73v-68h-226v68h68v292h-215v-292h92v-68h-253v68h76v291h-215v-291h92v-68
h-253zM311 642c-70 0 -114 -29 -114 -103v-111h215v131c0 25 3 45 9 63c-32 11 -71 20 -110 20z" />
    <glyph glyph-name="f_f_j" unicode="ffj" horiz-adv-x="864" 
d="M36 0v68h76v291h-86v69h86v111c0 121 81 170 184 170c61 0 119 -17 162 -31c34 29 83 40 137 40c55 0 111 -11 155 -22l-10 -63c-35 8 -82 18 -128 18c-64 0 -115 -18 -115 -93v-130h300v-482c0 -102 -68 -138 -145 -167l-26 56c48 26 86 56 86 113v412h-215v-292h92v-68
h-253v68h76v291h-215v-291h92v-68h-253zM311 642c-70 0 -114 -29 -114 -103v-111h215v131c0 25 3 45 9 63c-32 11 -71 20 -110 20z" />
    <glyph glyph-name="f_f_k" unicode="ffk" horiz-adv-x="1142" 
d="M336 0v68h76v291h-215v-291h92v-68h-253v68h76v291h-86v69h86v111c0 121 81 170 184 170c61 0 119 -17 162 -31c34 29 83 40 137 40c36 0 72 -5 105 -11h97v-639h69v-68h-227v68h73v571c-30 7 -65 12 -100 12c-64 0 -115 -18 -115 -93v-130h115v-69h-115v-291h92v-68
h-253zM197 539v-111h215v131c0 25 3 45 9 63c-32 11 -71 20 -110 20c-70 0 -114 -29 -114 -103zM1072 -10c-60 0 -102 34 -144 89l-102 131v4l143 149h-69v65h220v-66h-61l-139 -147l73 -91c29 -37 57 -67 99 -67c7 0 16 1 26 3v-63c-14 -4 -27 -7 -46 -7z" />
    <glyph glyph-name="f_f_l" unicode="ffl" horiz-adv-x="889" 
d="M336 0v68h76v291h-215v-291h92v-68h-253v68h76v291h-86v69h86v111c0 121 81 170 184 170c61 0 119 -17 162 -31c34 29 83 40 137 40c36 0 72 -5 105 -11h97v-639h73v-68h-231v68h73v571c-30 7 -65 12 -100 12c-64 0 -115 -18 -115 -93v-130h115v-69h-115v-291h92v-68
h-253zM197 428h215v131c0 25 3 45 9 63c-32 11 -71 20 -110 20c-70 0 -114 -29 -114 -103v-111z" />
    <glyph glyph-name="f_f_t" unicode="fft" horiz-adv-x="935" 
d="M336 0v68h76v291h-215v-291h92v-68h-253v68h76v291h-86v69h86v111c0 121 81 170 184 170c58 0 113 -15 156 -29c27 26 67 38 114 38c27 0 54 -4 79 -8v-64c-18 3 -39 5 -58 5c-55 0 -90 -20 -90 -82v-141h203v110h85v-110h128v-69h-128v-239c0 -49 24 -64 68 -64
c26 0 50 5 66 11v-64c-26 -8 -54 -14 -91 -14c-77 0 -128 33 -128 126v244h-203v-291h92v-68h-253zM197 539v-111h215v143c0 19 2 37 7 52c-32 10 -70 19 -108 19c-70 0 -114 -29 -114 -103z" />
    <glyph glyph-name="f_b" unicode="fb" horiz-adv-x="846" 
d="M563 -11c-49 0 -110 8 -151 17v633c-30 7 -65 12 -100 12c-64 0 -115 -18 -115 -93v-130h115v-70h-115v-290h92v-68h-253v68h76v290h-86v70h86v131c0 121 81 159 183 159c36 0 72 -5 105 -11h97v-307c35 22 78 39 128 39c118 0 187 -85 187 -217
c0 -155 -96 -233 -249 -233zM560 55c110 0 165 61 165 167c0 85 -37 151 -120 151c-41 0 -78 -17 -108 -36v-276c19 -3 42 -6 63 -6z" />
    <glyph glyph-name="f_f" unicode="ff" horiz-adv-x="635" 
d="M36 0v68h76v291h-86v69h86v111c0 121 81 170 184 170c58 0 113 -15 156 -29c27 26 67 38 114 38c27 0 54 -4 79 -8v-64c-18 3 -39 5 -58 5c-55 0 -90 -20 -90 -82v-141h115v-69h-115v-291h92v-68h-253v68h76v291h-215v-291h92v-68h-253zM311 642
c-70 0 -114 -29 -114 -103v-111h215v143c0 19 2 37 7 52c-32 10 -70 19 -108 19z" />
    <glyph glyph-name="f_h" unicode="fh" horiz-adv-x="874" 
d="M339 0v68h73v571c-30 7 -65 12 -100 12c-64 0 -115 -18 -115 -93v-130h115v-69h-115v-291h92v-68h-253v68h76v291h-86v69h86v131c0 121 81 159 183 159c36 0 72 -5 105 -11h97v-337c45 39 100 69 163 69c78 0 127 -46 127 -136v-235h72v-68h-230v68h72v226
c0 47 -16 76 -67 76s-99 -31 -137 -62v-240h73v-68h-231z" />
    <glyph glyph-name="fi" unicode="fi" horiz-adv-x="589" 
d="M36 0v68h76v291h-86v69h86v131c0 121 81 159 183 159c55 0 111 -11 155 -22l-10 -63c-35 8 -82 18 -128 18c-64 0 -115 -18 -115 -93v-130h300v-360h73v-68h-226v68h68v292h-215v-292h92v-68h-253z" />
    <glyph glyph-name="f_j" unicode="fj" horiz-adv-x="564" 
d="M36 0v68h76v291h-86v69h86v131c0 121 81 159 183 159c55 0 111 -11 155 -22l-10 -63c-35 8 -82 18 -128 18c-64 0 -115 -18 -115 -93v-130h300v-482c0 -102 -68 -138 -145 -167l-26 56c48 26 86 56 86 113v412h-215v-292h92v-68h-253z" />
    <glyph glyph-name="f_k" unicode="fk" horiz-adv-x="841" 
d="M339 0v68h73v571c-30 7 -65 12 -100 12c-64 0 -115 -18 -115 -93v-130h115v-69h-115v-291h92v-68h-253v68h76v291h-86v69h86v131c0 121 81 159 183 159c36 0 72 -5 105 -11h97v-639h69v-68h-227zM772 -10c-60 0 -102 34 -144 89l-102 131v4l143 149h-69v65h220v-66h-61
l-139 -147l73 -91c29 -37 57 -67 98 -67c8 0 17 1 26 3v-63c-13 -4 -26 -7 -45 -7z" />
    <glyph glyph-name="fl" unicode="fl" horiz-adv-x="589" 
d="M36 0v68h76v291h-86v69h86v131c0 121 81 159 183 159c36 0 72 -5 105 -11h97v-639h73v-68h-231v68h73v571c-30 7 -65 12 -100 12c-64 0 -115 -18 -115 -93v-130h115v-69h-115v-291h92v-68h-253z" />
    <glyph glyph-name="f_t" unicode="ft" horiz-adv-x="635" 
d="M528 -11c-77 0 -128 33 -128 126v244h-203v-291h92v-68h-253v68h76v291h-86v69h86v143c0 107 66 147 154 147c27 0 53 -4 79 -8v-64c-18 3 -39 5 -58 5c-55 0 -90 -20 -90 -82v-141h203v110h85v-110h128v-69h-128v-239c0 -49 24 -64 68 -64c26 0 50 5 66 11v-64
c-26 -8 -54 -14 -91 -14z" />
    <glyph glyph-name="t_t" unicode="tt" horiz-adv-x="643" 
d="M536 -11c-77 0 -128 33 -128 126v245h-235v-240c0 -49 24 -64 67 -64c26 0 50 5 66 11v-64c-26 -8 -54 -14 -91 -14c-77 0 -128 33 -128 126v245h-74v68h74v110h86v-110h235v110h85v-110h128v-68h-128v-240c0 -49 24 -64 68 -64c26 0 50 5 66 11v-64
c-26 -8 -54 -14 -91 -14z" />
    <glyph glyph-name=".notdef" horiz-adv-x="425" 
d="M0 0v609h425v-609h-425zM59 42h306l-153 226zM365 567h-306l153 -227zM383 520l-146 -216l146 -216v432zM42 88l146 216l-146 216v-432z" />
    <glyph glyph-name="A" unicode="A" horiz-adv-x="682" 
d="M-1 0v71h78l189 467h-87v71h214l218 -538h79v-71h-261v71h91l-47 117h-263l-46 -117h90v-71h-255zM238 259h208l-104 265z" />
    <glyph glyph-name="B" unicode="B" horiz-adv-x="612" 
d="M38 0v71h90v467h-90v71h290c131 0 223 -56 223 -157c0 -59 -31 -115 -119 -140c99 -21 140 -80 140 -150c0 -102 -87 -162 -230 -162h-304zM214 70h126c88 0 145 35 145 101c0 67 -56 104 -149 104h-122v-205zM214 343h103c92 0 147 35 147 100c0 63 -54 96 -136 96h-114
v-196z" />
    <glyph glyph-name="C" unicode="C" horiz-adv-x="619" 
d="M364 -12c-192 0 -325 116 -325 314c0 194 126 319 324 319c90 0 174 -26 218 -47v-160h-85v112c-34 12 -84 21 -129 21c-138 0 -237 -85 -237 -241c0 -163 109 -242 241 -242c80 0 156 30 210 61v-84c-45 -24 -122 -53 -217 -53z" />
    <glyph glyph-name="D" unicode="D" horiz-adv-x="684" 
d="M38 0v71h90v467h-90v71h282c198 0 323 -112 323 -305c0 -192 -125 -304 -323 -304h-282zM216 71h104c149 0 233 86 233 233c0 148 -84 234 -233 234h-104v-467z" />
    <glyph glyph-name="E" unicode="E" horiz-adv-x="581" 
d="M38 0v71h90v467h-90v71h493v-171h-81v100h-234v-196h252v-71h-252v-200h236v103h82v-174h-496z" />
    <glyph glyph-name="F" unicode="F" horiz-adv-x="548" 
d="M38 0v71h90v467h-90v71h487v-181h-81v109h-228v-208h235v-73h-235v-185h99v-71h-277z" />
    <glyph glyph-name="G" unicode="G" horiz-adv-x="684" 
d="M368 -12c-203 0 -328 120 -328 313c0 188 118 320 329 320c94 0 181 -26 231 -50v-147h-82v99c-39 12 -92 24 -146 24c-154 0 -244 -95 -244 -244c0 -150 90 -240 242 -240c57 0 108 13 151 29v158h-142v70h280v-70h-56v-204c-47 -25 -129 -58 -235 -58z" />
    <glyph glyph-name="H" unicode="H" horiz-adv-x="758" 
d="M38 0v71h90v467h-90v71h268v-71h-90v-195h326v195h-90v71h267v-71h-89v-467h89v-71h-267v71h90v198h-326v-198h90v-71h-268z" />
    <glyph glyph-name="I" unicode="I" horiz-adv-x="343" 
d="M38 0v71h90v467h-90v71h267v-71h-89v-467h89v-71h-267z" />
    <glyph glyph-name="J" unicode="J" horiz-adv-x="317" 
d="M48 -173l-29 61c39 21 95 56 95 121v529h-83v71h254v-71h-83v-530c0 -116 -77 -150 -154 -181z" />
    <glyph glyph-name="K" unicode="K" horiz-adv-x="676" 
d="M517 0l-261 302v6l221 231h-79v70h256v-71h-77l-215 -228l209 -239h92v-71h-146zM38 0v71h90v467h-90v71h265v-71h-87v-467h95v-71h-273z" />
    <glyph glyph-name="L" unicode="L" horiz-adv-x="551" 
d="M38 0v71h90v467h-90v71h280v-71h-102v-467h236v109h82v-180h-496z" />
    <glyph glyph-name="M" unicode="M" horiz-adv-x="903" 
d="M34 0v71h85l17 467h-85v71h222l178 -449l179 449h222v-71h-86l18 -467h85v-71h-251v71h85l-17 456l-199 -483h-71l-199 483l-17 -456h85v-71h-251z" />
    <glyph glyph-name="N" unicode="N" horiz-adv-x="748" 
d="M38 0v71h90v467h-90v71h180l329 -467v396h-89v71h262v-71h-89v-538h-79l-341 481v-410h89v-71h-262z" />
    <glyph glyph-name="O" unicode="O" horiz-adv-x="702" 
d="M351 -12c-186 0 -313 132 -313 316s127 317 313 317s313 -133 313 -317s-127 -316 -313 -316zM351 62c130 0 223 95 223 242c0 148 -92 243 -223 243c-130 0 -222 -96 -222 -243c0 -148 91 -242 222 -242z" />
    <glyph glyph-name="P" unicode="P" horiz-adv-x="581" 
d="M38 0v71h90v467h-90v71h276c147 0 243 -75 243 -193s-96 -193 -243 -193h-98v-152h108v-71h-286zM216 538v-244h100c108 0 152 54 152 122s-44 122 -152 122h-100z" />
    <glyph glyph-name="Q" unicode="Q" horiz-adv-x="704" 
d="M528 -140l-187 128c-181 6 -302 136 -302 316c0 184 126 317 313 317c186 0 313 -133 313 -317c0 -150 -84 -266 -218 -302l128 -75zM352 62c130 0 223 95 223 242c0 148 -92 243 -223 243s-223 -96 -223 -243c0 -148 92 -242 223 -242z" />
    <glyph glyph-name="R" unicode="R" horiz-adv-x="639" 
d="M38 0v71h90v467h-90v71h285c146 0 243 -72 243 -186c0 -82 -49 -143 -134 -167l103 -185h84v-71h-144l-129 233h-130v-162h89v-71h-267zM216 302h109c108 0 152 50 152 118s-45 118 -152 118h-109v-236z" />
    <glyph glyph-name="S" unicode="S" horiz-adv-x="520" 
d="M254 -12c-74 0 -152 16 -209 32v142h80v-87c30 -8 76 -16 124 -16c84 0 144 28 144 92c0 156 -338 83 -338 302c0 112 89 168 218 168c65 0 136 -14 186 -31v-140h-81v88c-26 6 -65 12 -102 12c-83 0 -136 -32 -136 -89c0 -146 338 -78 338 -304
c0 -121 -98 -169 -224 -169z" />
    <glyph glyph-name="T" unicode="T" 
d="M152 0v71h96v467h-148v-101h-80v172h544v-172h-81v101h-147v-467h96v-71h-280z" />
    <glyph glyph-name="U" unicode="U" horiz-adv-x="696" 
d="M349 -12c-130 0 -240 66 -240 215v335h-89v71h266v-71h-89v-328c0 -104 71 -143 155 -143s153 40 153 144v327h-92v71h263v-71h-89v-329c0 -141 -94 -221 -238 -221z" />
    <glyph glyph-name="V" unicode="V" horiz-adv-x="655" 
d="M283 0l-210 538h-79v71h263v-71h-91l163 -434l163 434h-91v71h260v-71h-79l-210 -538h-89z" />
    <glyph glyph-name="W" unicode="W" horiz-adv-x="935" 
d="M248 0l-175 538h-76v71h256v-71h-94l135 -431l135 390l-14 41h-82v71h260v-71h-95l143 -429l134 429h-94v71h257v-71h-76l-175 -538h-84l-133 380l-138 -380h-84z" />
    <glyph glyph-name="X" unicode="X" horiz-adv-x="649" 
d="M13 0v70h75l188 239l-177 230h-75v70h261v-69h-86l127 -171l131 171h-85v69h255v-70h-75l-179 -228l187 -242h76v-69h-263v69h86l-136 181l-139 -181h86v-69h-257z" />
    <glyph glyph-name="Y" unicode="Y" horiz-adv-x="632" 
d="M181 0v71h92v148l-201 319h-78v71h268v-70h-94l149 -241l149 241h-93v70h263v-71h-76l-199 -315v-152h92v-71h-272z" />
    <glyph glyph-name="Z" unicode="Z" horiz-adv-x="570" 
d="M40 0v75l368 459h-278v-104h-82v179h467v-77l-367 -458h301v111h82v-185h-491z" />
    <glyph glyph-name="a" unicode="a" horiz-adv-x="472" 
d="M163 -11c-76 0 -137 44 -137 128c0 106 98 132 196 132h84v33c0 65 -25 90 -100 90c-53 0 -109 -13 -145 -25v66c42 14 103 26 162 26c111 0 168 -43 168 -153v-218h71v-68h-153v52c-31 -30 -80 -63 -146 -63zM187 52c50 0 90 29 119 56v85h-80c-62 0 -114 -15 -114 -73
c0 -39 24 -68 75 -68z" />
    <glyph glyph-name="b" unicode="b" horiz-adv-x="500" 
d="M217 -11c-50 0 -110 8 -151 17v633h-73v68h158v-307c35 22 77 39 128 39c118 0 187 -85 187 -217c0 -155 -97 -233 -249 -233zM214 55c109 0 165 61 165 167c0 85 -37 151 -120 151c-42 0 -79 -17 -108 -36v-276c18 -3 42 -6 63 -6z" />
    <glyph glyph-name="c" unicode="c" horiz-adv-x="442" 
d="M255 -11c-137 0 -221 82 -221 224c0 144 89 226 223 226c58 0 115 -16 151 -29v-134h-73v86c-19 6 -45 11 -70 11c-96 0 -143 -63 -143 -157c0 -96 50 -160 145 -160c51 0 100 19 139 41v-69c-41 -24 -93 -39 -151 -39z" />
    <glyph glyph-name="d" unicode="d" horiz-adv-x="532" 
d="M222 -11c-117 0 -188 97 -188 225c0 132 75 225 198 225c54 0 94 -19 126 -46v246h-87v68h172v-639h73v-68h-152v54c-32 -36 -77 -65 -142 -65zM244 56c50 0 86 25 114 51v223c-26 22 -60 42 -106 42c-88 0 -130 -65 -130 -157c0 -84 35 -159 122 -159z" />
    <glyph glyph-name="e" unicode="e" horiz-adv-x="458" 
d="M252 -11c-143 0 -218 93 -218 224c0 133 76 226 204 226c134 0 190 -104 190 -212c0 -12 0 -25 -2 -38h-306c8 -84 56 -133 144 -133c55 0 103 20 141 41v-68c-36 -21 -86 -40 -153 -40zM239 375c-73 0 -111 -55 -119 -124h228c-4 61 -31 124 -109 124z" />
    <glyph glyph-name="f" unicode="f" horiz-adv-x="335" 
d="M36 0v68h76v291h-86v69h86v143c0 107 66 147 154 147c27 0 53 -4 79 -8v-64c-18 3 -39 5 -58 5c-55 0 -90 -20 -90 -82v-141h115v-69h-115v-291h92v-68h-253z" />
    <glyph glyph-name="g" unicode="g" horiz-adv-x="468" 
d="M217 -210c-145 0 -200 55 -200 121c0 48 29 82 68 106c-19 12 -31 28 -31 53c0 35 24 60 52 80c-43 30 -62 79 -62 128c0 83 56 161 177 161c27 0 52 -4 73 -11h165v-68l-88 4c18 -25 28 -56 28 -86c0 -83 -57 -161 -178 -161c-28 0 -52 4 -73 11c-11 -8 -19 -18 -19 -29
c0 -70 306 5 306 -169c0 -77 -62 -140 -218 -140zM221 377c-57 0 -98 -36 -98 -99s41 -100 98 -100s98 36 98 100c0 63 -41 99 -98 99zM219 -146c101 0 132 40 132 72c0 66 -125 56 -212 74c-28 -19 -46 -45 -46 -74c0 -47 47 -72 126 -72z" />
    <glyph glyph-name="h" unicode="h" horiz-adv-x="554" 
d="M19 0v68h73v571h-73v68h158v-337c45 39 100 69 163 69c77 0 126 -46 126 -136v-235h73v-68h-231v68h73v226c0 47 -17 76 -67 76c-51 0 -100 -31 -137 -62v-240h73v-68h-231z" />
    <glyph glyph-name="i" unicode="i" horiz-adv-x="281" 
d="M32 0v68h72v292h-72v68h158v-360h72v-68h-230zM78 576c0 34 28 62 63 62c34 0 62 -28 62 -62s-28 -62 -62 -62c-35 0 -63 28 -63 62z" />
    <glyph glyph-name="j" unicode="j" horiz-adv-x="244" 
d="M33 -221l-27 56c49 26 87 56 87 113v412h-77v68h162v-482c0 -102 -69 -138 -145 -167zM67 576c0 34 28 62 62 62s62 -28 62 -62s-28 -62 -62 -62s-62 28 -62 62z" />
    <glyph glyph-name="k" unicode="k" horiz-adv-x="521" 
d="M19 0v68h73v571h-73v68h158v-639h69v-68h-227zM451 -10c-60 0 -102 34 -143 89l-102 131v4l143 149h-69v65h219v-66h-60l-140 -147l73 -91c29 -37 58 -67 99 -67c8 0 17 1 26 3v-63c-13 -4 -27 -7 -46 -7z" />
    <glyph glyph-name="l" unicode="l" horiz-adv-x="268" 
d="M19 0v68h73v571h-73v68h158v-639h73v-68h-231z" />
    <glyph glyph-name="m" unicode="m" horiz-adv-x="802" 
d="M33 0v67h67v294h-67v67h147v-55c39 35 86 66 148 66c51 0 93 -20 111 -71c40 37 88 71 154 71c68 0 120 -38 120 -132v-240h68v-67h-220v67h68v233c0 48 -18 72 -63 72c-43 0 -81 -22 -117 -54v-251h68v-67h-220v67h68v233c0 48 -18 72 -63 72c-43 0 -80 -22 -118 -55
v-250h68v-67h-219z" />
    <glyph glyph-name="n" unicode="n" horiz-adv-x="567" 
d="M32 0v68h72v292h-72v68h156v-60c45 40 101 71 165 71c77 0 126 -46 126 -136v-235h73v-68h-231v68h73v226c0 47 -17 76 -67 76c-51 0 -100 -31 -137 -62v-240h72v-68h-230z" />
    <glyph glyph-name="o" unicode="o" horiz-adv-x="504" 
d="M252 -11c-134 0 -218 88 -218 225c0 136 84 225 218 225s218 -89 218 -225c0 -137 -84 -225 -218 -225zM252 55c85 0 130 66 130 159s-45 159 -130 159s-130 -66 -130 -159s45 -159 130 -159z" />
    <glyph glyph-name="p" unicode="p" horiz-adv-x="534" 
d="M18 -199v68h73v491h-73v68h153v-54c32 35 76 65 142 65c117 0 187 -95 187 -223c0 -131 -74 -227 -198 -227c-54 0 -94 19 -126 46v-166h86v-68h-244zM290 372c-50 0 -86 -25 -114 -53v-221c25 -24 59 -42 106 -42c88 0 131 66 131 158c0 84 -36 158 -123 158z" />
    <glyph glyph-name="q" unicode="q" horiz-adv-x="507" 
d="M270 -199v68h85v172c-32 -30 -74 -52 -131 -52c-113 0 -190 91 -190 225c0 138 83 225 198 225c64 0 107 -28 135 -54l7 43h66v-559h73v-68h-243zM251 372c-83 0 -129 -61 -129 -155c0 -88 41 -161 125 -161c45 0 81 20 108 45v227c-24 23 -56 44 -104 44z" />
    <glyph glyph-name="r" unicode="r" horiz-adv-x="362" 
d="M32 0v68h72v292h-72v68h155v-84c27 45 74 95 152 95h10v-86h-15c-67 0 -114 -26 -144 -52v-233h81v-68h-239z" />
    <glyph glyph-name="s" unicode="s" horiz-adv-x="406" 
d="M201 -11c-58 0 -124 12 -163 24v114h69v-61c25 -7 62 -13 92 -13c56 0 91 20 91 55c0 94 -246 46 -246 205c0 75 55 126 165 126c54 0 111 -12 144 -23v-113h-70v64c-21 5 -52 8 -74 8c-58 0 -83 -23 -83 -54c0 -97 246 -44 246 -207c0 -70 -47 -125 -171 -125z" />
    <glyph glyph-name="t" unicode="t" horiz-adv-x="322" 
d="M216 -11c-78 0 -128 33 -128 126v244h-75v69h75v110h85v-110h127v-69h-127v-239c0 -49 24 -64 68 -64c26 0 49 5 66 11v-64c-27 -8 -54 -14 -91 -14z" />
    <glyph glyph-name="u" unicode="u" horiz-adv-x="553" 
d="M213 -11c-77 0 -126 46 -126 136v235h-73v68h158v-294c0 -47 17 -76 67 -76c51 0 99 29 137 61v241h-78v68h164v-360h72v-68h-156v59c-45 -40 -101 -70 -165 -70z" />
    <glyph glyph-name="v" unicode="v" horiz-adv-x="524" 
d="M221 0l-157 361h-58v67h214v-64h-70l114 -275l114 274h-70v65h209v-67h-58l-156 -361h-82z" />
    <glyph glyph-name="w" unicode="w" horiz-adv-x="734" 
d="M186 0l-120 362h-58v66h212v-66h-75l80 -257l106 323h75l108 -323l78 257h-74v66h207v-66h-60l-115 -362h-73l-111 311l-106 -311h-74z" />
    <glyph glyph-name="x" unicode="x" horiz-adv-x="521" 
d="M22 0v64h54l135 154l-127 146h-56v64h217v-62h-65l87 -103l85 103h-64v62h207v-64h-54l-130 -149l132 -151h55v-64h-211v62h62l-94 109l-90 -109h63v-62h-206z" />
    <glyph glyph-name="y" unicode="y" horiz-adv-x="516" 
d="M151 -210c-42 0 -80 14 -109 31l25 58c20 -11 42 -23 73 -23c32 0 62 15 77 59l29 85h-65l-113 361h-57v67h215v-68h-70l99 -333l116 333h-69v68h209v-67h-56l-164 -461c-24 -69 -68 -110 -140 -110z" />
    <glyph glyph-name="z" unicode="z" horiz-adv-x="434" 
d="M37 0v55l246 312h-170v-81h-72v142h348v-53l-248 -313h185v87h71v-149h-360z" />
    <glyph glyph-name="zero" unicode="0" horiz-adv-x="529" 
d="M265 -11c-157 0 -221 114 -221 247c0 134 64 247 221 247c156 0 221 -113 221 -247c0 -133 -65 -247 -221 -247zM265 56c94 0 132 76 132 180c0 105 -38 181 -132 181c-95 0 -133 -76 -133 -181c0 -104 38 -180 133 -180z" />
    <glyph glyph-name="one" unicode="1" horiz-adv-x="354" 
d="M54 0v66h102v334c-23 -19 -55 -35 -82 -35c-32 0 -48 21 -42 53l134 54h75v-406h88v-66h-275z" />
    <glyph glyph-name="two" unicode="2" horiz-adv-x="461" 
d="M61 0l-14 60c78 58 271 158 271 278c0 43 -27 80 -96 80c-40 0 -68 -12 -83 -19c4 -7 6 -14 6 -23c0 -28 -19 -51 -52 -51s-52 23 -52 51c0 59 89 107 191 107c97 0 172 -43 172 -138c0 -119 -122 -208 -231 -271h249v-74h-361z" />
    <glyph glyph-name="three" unicode="3" horiz-adv-x="490" 
d="M235 -140c-94 0 -199 40 -199 107c0 32 24 56 57 56c34 0 54 -25 54 -54c0 -9 -3 -16 -7 -25c21 -9 53 -18 90 -18c81 0 134 40 134 112c0 79 -62 112 -155 112h-41v64h40c85 0 139 36 139 106c0 65 -45 98 -116 98c-36 0 -66 -9 -86 -19c5 -6 7 -15 7 -23
c0 -30 -22 -54 -55 -54s-55 24 -55 54c1 64 95 107 195 107c114 0 196 -56 196 -157c0 -69 -39 -118 -104 -140c76 -21 122 -72 122 -150c0 -114 -98 -176 -216 -176z" />
    <glyph glyph-name="four" unicode="4" horiz-adv-x="491" 
d="M206 -129v62h96v99h-285v58c97 111 172 266 187 391c45 10 74 -6 74 -49c0 -83 -92 -251 -168 -336h195v81c19 33 33 67 46 104h34v-185h83v-64h-81v-99h79v-62h-260z" />
    <glyph glyph-name="five" unicode="5" horiz-adv-x="491" 
d="M241 -140c-105 0 -208 56 -208 121c0 30 21 54 54 54s55 -24 55 -54c0 -9 -4 -18 -8 -25c19 -14 55 -29 99 -29c76 0 139 40 139 131c0 84 -55 130 -128 130c-62 0 -111 -32 -135 -65l-59 27c26 95 41 202 43 322h336c3 -10 5 -21 5 -29c0 -35 -27 -54 -85 -54
c-51 0 -136 11 -189 13c-3 -65 -11 -133 -27 -188c32 23 77 41 130 41c108 0 196 -72 196 -195c0 -128 -95 -200 -218 -200z" />
    <glyph glyph-name="six" unicode="6" horiz-adv-x="518" 
d="M268 -11c-136 0 -223 91 -223 284c0 175 72 339 241 339c95 0 163 -51 163 -101c0 -26 -17 -54 -52 -54c-31 0 -53 23 -53 50c0 8 3 16 7 23c-15 10 -43 16 -68 16c-113 0 -149 -121 -155 -245c26 45 84 84 161 84c112 0 189 -78 189 -195c0 -122 -84 -201 -210 -201z
M266 55c76 0 123 52 123 132c0 75 -41 136 -122 136c-75 0 -130 -52 -130 -133c0 -73 45 -135 129 -135z" />
    <glyph glyph-name="seven" unicode="7" horiz-adv-x="475" 
d="M239 -140c-31 0 -54 13 -54 73c0 119 88 323 172 455c-12 -4 -24 -6 -37 -6c-49 0 -97 27 -147 27c-56 0 -79 -34 -82 -93h-68v156h63v-56c12 38 38 62 85 62c62 0 107 -41 161 -41c7 0 15 1 23 3c5 24 24 42 53 42c30 0 51 -21 51 -51c0 -18 -8 -31 -19 -49
c-84 -136 -166 -306 -166 -473c0 -15 0 -34 1 -43c-10 -4 -23 -6 -36 -6z" />
    <glyph glyph-name="eight" unicode="8" horiz-adv-x="527" 
d="M264 -11c-140 0 -222 67 -222 171c0 84 54 138 130 158c-57 18 -105 64 -105 138c0 88 71 156 197 156c125 0 197 -68 197 -156c0 -74 -49 -120 -106 -138c77 -20 130 -74 130 -158c0 -104 -82 -171 -221 -171zM264 54c87 0 134 48 134 115c0 69 -50 115 -134 115
c-85 0 -135 -46 -135 -115c0 -67 47 -115 135 -115zM264 549c-70 0 -114 -38 -114 -97c0 -58 44 -102 114 -102s113 44 113 102c0 59 -43 97 -113 97z" />
    <glyph glyph-name="nine" unicode="9" horiz-adv-x="510" 
d="M252 417c-80 0 -128 -60 -128 -134c0 -73 46 -130 124 -130c74 0 129 52 129 130c0 69 -42 134 -125 134zM239 -140c-88 0 -184 44 -184 106c0 29 21 54 56 54c31 0 53 -21 53 -51c0 -10 -3 -19 -8 -26c17 -9 47 -18 80 -18c104 0 145 93 151 250
c-27 -46 -85 -85 -163 -85c-111 0 -188 77 -188 191c0 119 85 202 215 202c132 0 219 -86 219 -288c0 -167 -60 -335 -231 -335z" />
    <glyph glyph-name="zero.lf" horiz-adv-x="536" 
d="M268 -12c-158 0 -221 114 -221 316s63 317 221 317s222 -115 222 -317s-64 -316 -222 -316zM268 55c95 0 132 82 132 249s-37 250 -132 250c-96 0 -133 -83 -133 -250s37 -249 133 -249z" />
    <glyph glyph-name="one.lf" horiz-adv-x="357" 
d="M50 0v66h105v470c-21 -18 -57 -36 -85 -36c-33 0 -47 22 -41 54l137 55h75v-543h89v-66h-280z" />
    <glyph glyph-name="two.lf" horiz-adv-x="512" 
d="M88 -11c-35 0 -54 24 -54 57c0 55 70 110 135 161c109 85 188 151 188 244c0 54 -29 103 -115 103c-40 0 -71 -11 -91 -21c4 -8 6 -16 6 -25c0 -30 -20 -55 -56 -55s-56 26 -56 56c0 64 96 112 203 112c137 0 195 -78 195 -170c0 -178 -217 -277 -305 -362
c70 9 135 -23 186 -23c64 0 76 52 77 100h76c-2 -96 -36 -176 -133 -176c-78 0 -143 49 -202 45c-2 -19 -17 -46 -54 -46z" />
    <glyph glyph-name="three.lf" horiz-adv-x="501" 
d="M240 -12c-95 0 -201 40 -201 108c0 33 24 57 57 57c35 0 54 -25 54 -55c0 -8 -2 -16 -6 -25c21 -9 53 -19 91 -19c81 0 135 41 135 115c0 80 -63 114 -157 114h-41v64h40c86 0 140 37 140 108c0 66 -44 100 -116 100c-37 0 -68 -9 -88 -19c5 -7 7 -16 7 -24
c0 -31 -21 -55 -54 -55c-35 0 -56 24 -56 56c0 64 96 108 197 108c115 0 197 -57 197 -160c0 -69 -39 -119 -105 -141c77 -22 124 -74 124 -153c0 -116 -100 -179 -218 -179z" />
    <glyph glyph-name="four.lf" horiz-adv-x="502" 
d="M207 0v62h96v101h-287v59c98 113 173 269 189 397c45 10 74 -7 74 -50c0 -83 -93 -254 -169 -341h196v83c20 33 34 67 47 104h34v-187h84v-65h-82v-101h80v-62h-262z" />
    <glyph glyph-name="five.lf" horiz-adv-x="508" 
d="M250 -12c-106 0 -210 57 -210 122c0 32 21 55 55 55c33 0 54 -24 54 -54c0 -10 -3 -18 -8 -26c20 -14 57 -29 101 -29c77 0 140 40 140 133c0 85 -55 132 -129 132c-63 0 -112 -32 -137 -66l-59 28c26 96 42 203 44 326h340c3 -11 5 -21 5 -30c0 -35 -28 -53 -86 -53
c-51 0 -138 11 -192 12c-3 -66 -11 -135 -27 -192c32 24 78 43 131 43c109 0 198 -73 198 -198c0 -129 -96 -203 -220 -203z" />
    <glyph glyph-name="six.lf" horiz-adv-x="521" 
d="M269 -12c-137 0 -224 92 -224 289c0 176 72 344 242 344c96 0 165 -53 165 -103c0 -26 -17 -54 -53 -54c-31 0 -52 23 -52 51c0 7 2 16 6 23c-14 10 -43 16 -68 16c-114 0 -151 -123 -157 -250c26 46 85 86 163 86c113 0 190 -79 190 -198c0 -124 -84 -204 -212 -204z
M267 55c78 0 125 52 125 134c0 76 -42 138 -124 138c-75 0 -131 -52 -131 -135c0 -75 45 -137 130 -137z" />
    <glyph glyph-name="seven.lf" horiz-adv-x="476" 
d="M240 -12c-31 0 -54 13 -54 73c0 121 90 329 174 463c-13 -4 -25 -7 -38 -7c-50 0 -98 28 -148 28c-57 0 -80 -35 -83 -94h-69v158h64v-57c13 38 38 63 86 63c63 0 108 -42 162 -42c7 0 15 1 23 4c5 24 25 42 54 42c30 0 52 -22 52 -52c0 -18 -8 -32 -20 -50
c-85 -138 -168 -310 -168 -480c0 -15 1 -34 2 -43c-10 -4 -23 -6 -37 -6z" />
    <glyph glyph-name="eight.lf" horiz-adv-x="531" 
d="M265 -12c-141 0 -223 68 -223 174c0 85 54 139 131 159c-57 19 -107 65 -107 140c0 90 73 160 199 160c127 0 200 -70 200 -160c0 -75 -50 -121 -108 -140c77 -20 132 -74 132 -159c0 -106 -83 -174 -224 -174zM265 53c89 0 136 50 136 118c0 70 -50 117 -136 117
c-85 0 -136 -47 -136 -117c0 -68 48 -118 136 -118zM265 556c-70 0 -115 -38 -115 -98c0 -59 45 -104 115 -104c71 0 115 45 115 104c0 60 -44 98 -115 98z" />
    <glyph glyph-name="nine.lf" horiz-adv-x="525" 
d="M259 554c-81 0 -129 -62 -129 -137c0 -74 46 -132 125 -132c76 0 130 53 130 133c0 70 -42 136 -126 136zM247 -12c-89 0 -187 45 -187 107c0 30 23 55 56 55s54 -26 54 -54c0 -9 -3 -17 -7 -24c17 -9 48 -18 79 -18c109 0 148 99 154 255c-27 -48 -86 -88 -164 -88
c-112 0 -191 79 -191 194c0 121 87 206 218 206c132 0 220 -86 220 -295c0 -164 -60 -338 -232 -338z" />
    <glyph glyph-name="colon" unicode=":" horiz-adv-x="226" 
d="M113 -9c-31 0 -57 25 -57 56s26 57 57 57s56 -26 56 -57s-25 -56 -56 -56zM113 294c-31 0 -57 25 -57 57c0 31 26 56 57 56s56 -25 56 -56c0 -32 -25 -57 -56 -57z" />
    <glyph glyph-name="semicolon" unicode=";" horiz-adv-x="238" 
d="M121 294c-31 0 -57 25 -57 57c0 31 26 56 57 56s56 -25 56 -56c0 -32 -25 -57 -56 -57zM121 104c34 0 56 -27 56 -63c0 -51 -45 -125 -94 -167l-35 30c27 31 47 66 54 95c-23 5 -39 24 -39 49c0 31 24 56 58 56z" />
    <glyph glyph-name="exclam" unicode="!" horiz-adv-x="249" 
d="M92 167l-15 442h95l-15 -442h-65zM124 -9c-31 0 -56 25 -56 56s25 57 56 57s57 -26 57 -57s-26 -56 -57 -56z" />
    <glyph glyph-name="exclamdown" unicode="&#xa1;" horiz-adv-x="229" 
d="M147 263l15 -443h-95l15 443h65zM115 439c31 0 56 -26 56 -57s-25 -56 -56 -56s-57 25 -57 56s26 57 57 57z" />
    <glyph glyph-name="question" unicode="?" horiz-adv-x="376" 
d="M161 621c102 0 178 -46 178 -143c0 -136 -145 -167 -145 -260c0 -19 6 -37 11 -51h-81c-5 13 -9 35 -9 53c0 109 135 141 135 251c0 54 -32 84 -103 84c-39 0 -83 -9 -116 -18v64c32 10 82 20 130 20zM165 -9c-31 0 -57 25 -57 56s26 57 57 57s56 -26 56 -57
s-25 -56 -56 -56z" />
    <glyph glyph-name="questiondown" unicode="&#xbf;" horiz-adv-x="368" 
d="M208 -192c-101 0 -177 46 -177 144c0 136 145 167 145 260c0 18 -6 36 -11 51h80c6 -14 10 -35 10 -53c0 -110 -135 -142 -135 -252c0 -53 31 -84 102 -84c40 0 84 9 117 19v-64c-32 -10 -82 -21 -131 -21zM205 439c31 0 56 -26 56 -57s-25 -56 -56 -56s-56 25 -56 56
s25 57 56 57z" />
    <glyph glyph-name="parenleft" unicode="(" horiz-adv-x="269" 
d="M179 -198c-93 136 -145 306 -145 453c0 145 52 317 145 452h87c-99 -134 -150 -304 -150 -452c0 -149 51 -319 150 -453h-87z" />
    <glyph glyph-name="parenright" unicode=")" horiz-adv-x="269" 
d="M2 -198c99 134 151 304 151 453c0 148 -52 318 -151 452h87c94 -135 146 -307 146 -452c0 -147 -52 -317 -146 -453h-87z" />
    <glyph glyph-name="braceleft" unicode="{" horiz-adv-x="300" 
d="M213 -212c-82 0 -115 50 -115 108c0 54 29 140 29 208c0 61 -25 111 -119 117v65c94 6 119 55 119 117c0 68 -29 153 -29 208c0 57 33 108 115 108c22 0 43 -4 63 -10v-52c-13 3 -31 6 -47 6c-39 0 -53 -21 -53 -57c0 -52 30 -140 30 -215c0 -64 -22 -120 -105 -138
c83 -18 105 -73 105 -137c0 -75 -30 -163 -30 -216c0 -35 14 -57 53 -57c16 0 34 4 47 7v-52c-20 -6 -41 -10 -63 -10z" />
    <glyph glyph-name="braceright" unicode="}" horiz-adv-x="300" 
d="M87 -212c-22 0 -43 4 -63 10v52c13 -3 31 -7 47 -7c39 0 53 22 53 57c0 53 -30 141 -30 216c0 64 22 119 105 137c-83 18 -105 74 -105 138c0 75 30 163 30 215c0 36 -14 57 -53 57c-16 0 -34 -3 -47 -6v52c20 6 41 10 63 10c82 0 115 -51 115 -108
c0 -55 -29 -140 -29 -208c0 -62 25 -111 119 -117v-65c-94 -6 -119 -56 -119 -117c0 -68 29 -154 29 -208c0 -58 -33 -108 -115 -108z" />
    <glyph glyph-name="bracketleft" unicode="[" horiz-adv-x="296" 
d="M78 -198v905h200v-59h-121v-787h121v-59h-200z" />
    <glyph glyph-name="bracketright" unicode="]" horiz-adv-x="296" 
d="M18 -198v59h121v787h-121v59h200v-905h-200z" />
    <glyph glyph-name="slash" unicode="/" horiz-adv-x="534" 
d="M20 -198l416 905h80l-415 -905h-81z" />
    <glyph glyph-name="backslash" unicode="\" horiz-adv-x="534" 
d="M433 -198l-415 905h80l416 -905h-81z" />
    <glyph glyph-name="bar" unicode="|" horiz-adv-x="234" 
d="M78 -198v905h79v-905h-79z" />
    <glyph glyph-name="brokenbar" unicode="&#xa6;" horiz-adv-x="237" 
d="M79 343v364h79v-364h-79zM79 -198v400h79v-400h-79z" />
    <glyph glyph-name="onesuperior" unicode="&#xb9;" horiz-adv-x="317" 
d="M55 399v58h87v267c-23 -18 -45 -30 -68 -30c-27 0 -41 18 -37 47l113 46h65v-330h71v-58h-231z" />
    <glyph glyph-name="twosuperior" unicode="&#xb2;" horiz-adv-x="389" 
d="M58 399l-13 51c69 52 214 131 214 226c0 36 -22 64 -76 64c-24 0 -48 -6 -63 -13c3 -6 5 -13 5 -22c0 -23 -17 -37 -41 -37c-28 0 -42 20 -42 43c0 50 70 84 149 84c81 0 140 -35 140 -113c0 -97 -92 -169 -181 -223h195v-60h-287z" />
    <glyph glyph-name="threesuperior" unicode="&#xb3;" horiz-adv-x="366" 
d="M178 391c-54 0 -145 18 -145 74c0 25 17 44 43 44s42 -19 42 -41c0 -7 -2 -10 -3 -13c14 -6 37 -10 58 -10c53 0 82 25 82 64c0 46 -41 65 -99 65h-31v52h28c54 0 89 20 89 60c0 33 -26 54 -71 54c-23 0 -42 -5 -54 -9c2 -4 3 -8 3 -12c0 -23 -16 -42 -42 -42
c-25 0 -42 18 -42 42c0 47 67 76 139 76c82 0 141 -38 141 -102c0 -42 -26 -75 -73 -89c52 -15 86 -46 86 -98c0 -73 -68 -115 -151 -115z" />
    <glyph glyph-name="at" unicode="@" horiz-adv-x="758" 
d="M336 50c-89 0 -138 67 -138 154c0 108 77 203 182 203c59 0 96 -31 114 -71h2c4 15 14 44 18 55h51c-17 -66 -39 -157 -39 -221c0 -47 11 -78 47 -78c50 0 96 58 96 160c0 170 -122 282 -279 282c-173 0 -309 -135 -309 -305c0 -166 131 -298 299 -298
c62 0 118 19 168 52l23 -36c-60 -37 -121 -58 -193 -58c-196 0 -340 155 -340 342c0 200 164 345 352 345c180 0 321 -132 321 -325c0 -131 -66 -201 -149 -201c-71 0 -87 51 -90 74h-4c-29 -43 -73 -74 -132 -74zM349 103c70 0 121 70 121 153c0 63 -29 99 -81 99
c-72 0 -125 -69 -125 -150c0 -64 33 -102 85 -102z" />
    <glyph glyph-name="numbersign" unicode="#" horiz-adv-x="563" 
d="M115 12l16 116h-91v56h99l21 147h-93v56h102l16 117h66l-17 -117h128l17 117h67l-17 -117h94v-56h-103l-21 -147h97v-56h-104l-17 -116h-67l17 116h-128l-16 -116h-66zM206 184h128l20 147h-127z" />
    <glyph glyph-name="ampersand" unicode="&#x26;" horiz-adv-x="647" 
d="M238 -12c-115 0 -198 57 -198 164c0 85 53 134 132 185l-8 10c-40 51 -64 88 -64 136c0 76 59 136 153 136c96 0 143 -64 143 -133c0 -68 -47 -112 -111 -156l142 -163c25 40 41 88 47 141h-62v64h200v-65h-62c-10 -68 -32 -139 -73 -196c26 -27 56 -51 90 -51
c10 0 23 2 34 6v-69c-19 -6 -37 -8 -53 -8c-52 0 -90 29 -125 65c-47 -40 -108 -66 -185 -66zM254 557c-39 0 -72 -24 -72 -69c0 -25 12 -52 47 -95l12 -14c45 30 81 62 81 109c0 36 -22 69 -68 69zM246 58c52 0 95 19 128 48l-157 179c-49 -32 -94 -63 -94 -125
c0 -67 52 -102 123 -102z" />
    <glyph glyph-name="section" unicode="&#xa7;" horiz-adv-x="432" 
d="M219 -88c-83 0 -169 39 -169 93c0 22 16 47 47 47s48 -22 48 -46c0 -9 -4 -17 -8 -24c16 -10 48 -19 78 -19c42 0 79 18 79 54c0 93 -247 75 -247 216c0 52 33 82 71 101c-28 20 -48 46 -48 88c0 81 77 113 147 113c66 0 154 -30 154 -88c0 -24 -14 -48 -47 -48
c-29 0 -46 20 -46 43c0 10 3 18 7 26c-16 9 -40 15 -65 15c-45 0 -77 -20 -77 -54c0 -95 245 -75 245 -216c0 -52 -33 -82 -73 -100c30 -21 51 -48 51 -90c0 -73 -66 -111 -147 -111zM267 137c26 12 47 33 47 64c0 61 -82 76 -145 107c-29 -11 -51 -32 -51 -63
c0 -61 83 -77 149 -108z" />
    <glyph glyph-name="paragraph" unicode="&#xb6;" horiz-adv-x="591" 
d="M171 -76v50h100v174h-45c-108 0 -196 82 -196 187c0 106 88 189 196 189h320v-51h-86v-499h86v-50h-375zM330 473v-499h71v499h-71z" />
    <glyph glyph-name="dagger" unicode="&#x2020;" horiz-adv-x="457" 
d="M229 -80c-25 0 -18 45 -18 65c0 101 -8 240 -30 303c15 25 31 47 31 76c0 26 -20 47 -48 47c-38 0 -60 -20 -93 -20c-31 0 -45 17 -45 37c0 19 14 35 45 35c33 0 55 -20 93 -20c27 0 48 21 48 49c0 38 -20 61 -20 92c0 32 17 47 37 47c19 0 37 -15 37 -47
c0 -31 -21 -54 -21 -92c0 -28 21 -49 48 -49c39 0 60 20 93 20c31 0 46 -16 46 -35c0 -20 -15 -37 -46 -37c-33 0 -54 20 -93 20c-27 0 -48 -21 -48 -47c0 -29 17 -51 32 -76c-23 -63 -30 -202 -30 -303c0 -17 7 -63 -18 -65z" />
    <glyph glyph-name="daggerdbl" unicode="&#x2021;" horiz-adv-x="490" 
d="M245 -80c-19 0 -37 15 -37 48c0 31 21 54 21 91c0 28 -22 50 -48 50c-39 0 -61 -21 -93 -21s-46 17 -46 36s14 36 46 36s54 -20 93 -20c27 0 48 22 48 48c0 28 -17 62 -32 88c15 25 32 59 32 88c0 26 -21 47 -48 47c-39 0 -61 -20 -93 -20s-46 17 -46 37
c0 19 14 35 46 35s54 -20 93 -20c26 0 48 21 48 49c0 38 -21 61 -21 92c0 32 18 47 37 47s37 -15 37 -47c0 -31 -20 -54 -20 -92c0 -28 21 -49 47 -49c39 0 61 20 93 20s46 -16 46 -35c0 -20 -14 -37 -46 -37s-54 20 -93 20c-27 0 -47 -21 -47 -47c0 -29 16 -63 31 -88
c-15 -26 -31 -60 -31 -88c0 -26 20 -48 47 -48c39 0 61 20 93 20s46 -17 46 -36s-14 -36 -46 -36s-54 21 -93 21c-26 0 -47 -22 -47 -50c0 -37 20 -60 20 -91c0 -33 -18 -48 -37 -48z" />
    <glyph glyph-name="cent" unicode="&#xa2;" horiz-adv-x="443" 
d="M233 47c-17 0 -36 1 -51 5l-43 -122l-28 8l42 123c-71 29 -112 97 -112 188c0 118 70 201 192 201c20 0 37 -2 52 -6l29 85l28 -10l-29 -83c50 -22 82 -65 94 -128h-68c-6 29 -20 56 -44 73l-96 -277c11 -3 23 -5 37 -5c66 0 97 45 105 97h68c-14 -94 -72 -149 -176 -149
zM234 398c-79 0 -121 -64 -121 -149c0 -57 19 -106 60 -131l94 275c-10 3 -21 5 -33 5z" />
    <glyph glyph-name="sterling" unicode="&#xa3;" horiz-adv-x="528" 
d="M340 -8c-66 0 -119 23 -183 23c-28 0 -50 -5 -83 -17l-18 42c61 21 92 62 92 104c0 24 -11 50 -23 79h-85v35h71c-12 28 -22 58 -22 90c0 78 60 153 191 153c149 0 189 -97 191 -154h-78c-2 39 -25 96 -113 96c-77 0 -109 -43 -109 -97c0 -30 10 -59 22 -88h174v-35h-160
c10 -26 20 -51 20 -74c0 -34 -21 -65 -33 -78c44 -1 81 -17 130 -17c55 0 90 19 118 60l51 -43c-41 -60 -95 -79 -153 -79z" />
    <glyph glyph-name="yen" unicode="&#xa5;" horiz-adv-x="601" 
d="M181 0v57h79v71h-159v37h159v17l-39 59h-120v36h96l-101 154h-66v60h227v-60h-74l120 -189l119 189h-74v60h222v-60h-65l-101 -154h97v-36h-121l-39 -59v-17h160v-37h-160v-71h79v-57h-239z" />
    <glyph glyph-name="dollar" unicode="$" horiz-adv-x="461" 
d="M222 -106v98c-87 3 -188 41 -188 102c0 26 19 50 51 50c27 0 47 -18 47 -44c0 -9 -2 -17 -6 -25c21 -12 57 -21 96 -22v162c-82 23 -172 51 -172 148c0 89 76 136 172 138v68h24v-68c86 -4 164 -44 164 -95c0 -24 -16 -50 -48 -50c-28 0 -50 19 -50 46c0 6 1 15 6 23
c-16 7 -44 15 -72 16v-155c82 -24 176 -55 176 -154c0 -91 -80 -138 -176 -140v-98h-24zM347 124c0 50 -48 68 -101 85v-156c61 3 101 27 101 71zM124 371c0 -46 44 -60 98 -78v148c-66 -4 -98 -30 -98 -70z" />
    <glyph glyph-name="Euro" unicode="&#x20ac;" horiz-adv-x="579" 
d="M352 -8c-134 0 -226 75 -248 194h-72l11 32h57c-1 8 -2 17 -2 27c0 13 1 25 3 38h-69l11 32h62c26 113 118 185 249 185c68 0 127 -18 165 -35v-122h-72v77c-24 7 -54 13 -87 13c-89 0 -150 -43 -171 -118h189l-11 -32h-185c-2 -11 -2 -22 -2 -34c0 -11 1 -21 2 -31h162
l-11 -32h-145c21 -76 80 -125 171 -125c61 0 116 21 160 46v-71c-44 -25 -100 -44 -167 -44z" />
    <glyph glyph-name="currency" unicode="&#xa4;" horiz-adv-x="574" 
d="M287 55c-48 0 -93 16 -128 43l-65 -68l-42 42l68 65c-27 36 -43 80 -43 128s16 92 43 127l-68 66l42 42l65 -68c35 26 80 43 128 43s92 -17 127 -43l66 68l42 -42l-68 -66c26 -35 43 -79 43 -127s-17 -92 -43 -128l68 -65l-42 -42l-66 68c-35 -27 -79 -43 -127 -43z
M287 120c79 0 144 64 144 145c0 80 -65 144 -144 144c-80 0 -144 -64 -144 -144c0 -81 64 -145 144 -145z" />
    <glyph glyph-name="percent" unicode="%" horiz-adv-x="640" 
d="M141 -1l-41 35l401 450l40 -35zM482 0c-76 0 -117 51 -117 125c0 75 41 126 117 126c75 0 117 -51 117 -126c0 -74 -42 -125 -117 -125zM482 47c33 0 54 25 54 78s-21 78 -54 78c-34 0 -55 -25 -55 -78s21 -78 55 -78zM159 233c-75 0 -117 51 -117 126
c0 74 42 125 117 125c76 0 117 -51 117 -125c0 -75 -41 -126 -117 -126zM159 281c34 0 55 25 55 78c0 52 -21 78 -55 78c-33 0 -54 -26 -54 -78c0 -53 21 -78 54 -78z" />
    <glyph glyph-name="perthousand" unicode="&#x2030;" horiz-adv-x="894" 
d="M472 0c-75 0 -117 51 -117 125c0 75 42 126 117 126c76 0 117 -51 117 -126c0 -74 -41 -125 -117 -125zM472 47c34 0 55 25 55 78s-21 78 -55 78c-33 0 -54 -25 -54 -78s21 -78 54 -78zM163 233c-75 0 -117 51 -117 126c0 74 42 125 117 125s117 -51 117 -125
c0 -75 -42 -126 -117 -126zM163 281c34 0 54 25 54 78c0 52 -20 78 -54 78s-54 -26 -54 -78c0 -53 20 -78 54 -78zM746 0c-75 0 -117 51 -117 125c0 75 42 126 117 126c76 0 117 -51 117 -126c0 -74 -41 -125 -117 -125zM746 47c34 0 55 25 55 78s-21 78 -55 78
c-33 0 -54 -25 -54 -78s21 -78 54 -78zM137 -1l-40 35l401 450l40 -35z" />
    <glyph glyph-name="guillemotleft" unicode="&#xab;" horiz-adv-x="537" 
d="M408 75l-151 182v4l151 181h93l-156 -183l156 -184h-93zM183 75l-151 182v4l151 181h94l-156 -183l156 -184h-94z" />
    <glyph glyph-name="guillemotright" unicode="&#xbb;" horiz-adv-x="537" 
d="M35 75l157 184l-157 183h94l151 -181v-4l-151 -182h-94zM260 75l156 184l-156 183h93l151 -181v-4l-151 -182h-93z" />
    <glyph glyph-name="guilsinglleft" unicode="&#x2039;" horiz-adv-x="312" 
d="M183 75l-151 182v4l151 181h94l-156 -183l156 -184h-94z" />
    <glyph glyph-name="guilsinglright" unicode="&#x203a;" horiz-adv-x="312" 
d="M35 75l157 184l-157 183h94l151 -181v-4l-151 -182h-94z" />
    <glyph glyph-name="copyright" unicode="&#xa9;" horiz-adv-x="714" 
d="M357 -53c-175 0 -317 142 -317 317s142 317 317 317s317 -142 317 -317s-142 -317 -317 -317zM357 -13c154 0 277 124 277 277s-123 277 -277 277c-153 0 -277 -124 -277 -277s124 -277 277 -277zM364 83c-106 0 -180 69 -180 181c0 111 73 182 184 182
c49 0 92 -14 120 -26v-98h-54v64c-17 6 -38 10 -62 10c-78 0 -126 -49 -126 -128c0 -77 44 -134 125 -134c44 0 85 16 116 34v-54c-31 -18 -75 -31 -123 -31z" />
    <glyph glyph-name="registered" unicode="&#xae;" horiz-adv-x="417" 
d="M209 260c-93 0 -167 75 -167 167c0 93 74 167 167 167c92 0 167 -74 167 -167c0 -92 -75 -167 -167 -167zM209 288c77 0 140 62 140 139s-63 141 -140 141c-78 0 -140 -64 -140 -141s62 -139 140 -139zM131 348v23h24v112h-24v24h86c42 0 64 -22 64 -49
c0 -25 -18 -40 -35 -45l25 -42h24v-23h-45l-34 59h-30v-36h24v-23h-79zM186 431h30c21 0 33 10 33 27c0 15 -11 25 -33 25h-30v-52z" />
    <glyph glyph-name="trademark" unicode="&#x2122;" horiz-adv-x="710" 
d="M323 361v30h32l8 187h-34v31h82l76 -170l76 170h81v-32h-33l7 -186h33v-30h-108v30h36l-5 158l-76 -160h-25l-75 163l-6 -161h36v-30h-105zM118 361v30h37v184h-55v-44h-36v78h225v-78h-35v44h-56v-184h36v-30h-116z" />
    <glyph glyph-name="asciicircum" unicode="^" horiz-adv-x="441" 
d="M36 338l161 290h47l161 -290h-79l-106 205l-105 -205h-79z" />
    <glyph glyph-name="asterisk" unicode="*" horiz-adv-x="396" 
d="M198 318c-17 0 -35 11 -35 38c0 22 22 69 33 112h4c11 -43 33 -90 33 -112c0 -27 -18 -38 -35 -38zM198 646c17 0 35 -11 35 -38c0 -21 -22 -69 -33 -111h-4c-11 42 -33 90 -33 111c0 27 18 38 35 38zM56 400c-8 15 -8 37 15 50c19 10 71 15 113 27l3 -4
c-32 -31 -62 -74 -80 -84c-24 -14 -42 -3 -51 11zM340 564c8 -14 8 -36 -16 -49c-18 -11 -70 -16 -112 -27l-3 4c32 31 62 73 80 84c23 13 42 2 51 -12zM340 400c-9 -14 -28 -25 -51 -11c-18 10 -48 53 -80 84l3 4c42 -12 94 -17 112 -27c24 -13 24 -35 16 -50zM56 564
c9 14 27 25 51 12c18 -11 48 -53 80 -84l-3 -4c-42 11 -94 16 -113 27c-23 13 -23 35 -15 49z" />
    <glyph glyph-name="degree" unicode="&#xb0;" horiz-adv-x="366" 
d="M183 348c-81 0 -148 67 -148 148s67 148 148 148s148 -67 148 -148s-67 -148 -148 -148zM183 403c52 0 93 41 93 93c0 51 -41 94 -93 94s-93 -43 -93 -94c0 -52 41 -93 93 -93z" />
    <glyph glyph-name="quotesingle" unicode="'" horiz-adv-x="196" 
d="M59 399v223h78v-223h-78z" />
    <glyph glyph-name="quotedbl" unicode="&#x22;" horiz-adv-x="354" 
d="M59 399v223h78v-223h-78zM217 399v223h78v-223h-78z" />
    <glyph glyph-name="quoteleft" unicode="&#x2018;" horiz-adv-x="207" 
d="M96 411c-34 0 -56 27 -56 63c0 51 45 125 94 166l35 -29c-27 -31 -47 -66 -54 -95c23 -5 38 -25 38 -49c0 -31 -23 -56 -57 -56z" />
    <glyph glyph-name="quoteright" unicode="&#x2019;" horiz-adv-x="204" 
d="M114 641c34 0 56 -28 56 -64c0 -51 -45 -124 -94 -166l-35 29c27 32 46 67 54 96c-23 5 -39 24 -39 48c0 31 24 57 58 57z" />
    <glyph glyph-name="comma" unicode="," horiz-adv-x="220" 
d="M110 104c34 0 56 -27 56 -63c0 -51 -45 -125 -94 -167l-35 30c27 31 47 66 54 95c-23 5 -38 24 -38 49c0 31 23 56 57 56z" />
    <glyph glyph-name="quotesinglbase" unicode="&#x201a;" horiz-adv-x="220" 
d="M110 104c34 0 56 -27 56 -63c0 -51 -45 -125 -94 -167l-35 30c27 31 47 66 54 95c-23 5 -38 24 -38 49c0 31 23 56 57 56z" />
    <glyph glyph-name="quotedblbase" unicode="&#x201e;" horiz-adv-x="396" 
d="M113 104c34 0 56 -28 56 -64c0 -51 -45 -124 -94 -166l-35 29c27 32 46 67 54 96c-23 5 -39 24 -39 48c0 31 24 57 58 57zM289 104c34 0 56 -28 56 -64c0 -51 -45 -124 -94 -166l-35 29c27 32 47 67 54 96c-23 5 -39 24 -39 48c0 31 24 57 58 57z" />
    <glyph glyph-name="quotedblleft" unicode="&#x201c;" horiz-adv-x="383" 
d="M272 411c-34 0 -56 27 -56 63c0 51 45 125 94 166l35 -29c-27 -31 -47 -66 -54 -95c23 -5 38 -25 38 -49c0 -31 -23 -56 -57 -56zM96 411c-34 0 -56 27 -56 63c0 51 45 125 94 166l35 -29c-27 -31 -47 -66 -54 -95c23 -5 38 -25 38 -49c0 -31 -23 -56 -57 -56z" />
    <glyph glyph-name="quotedblright" unicode="&#x201d;" horiz-adv-x="380" 
d="M114 641c34 0 56 -28 56 -64c0 -51 -45 -124 -94 -166l-35 29c27 32 46 67 54 96c-23 5 -39 24 -39 48c0 31 24 57 58 57zM290 641c34 0 56 -28 56 -64c0 -51 -45 -124 -94 -166l-35 29c27 32 47 67 54 96c-23 5 -39 24 -39 48c0 31 24 57 58 57z" />
    <glyph glyph-name="period" unicode="." horiz-adv-x="210" 
d="M105 -9c-31 0 -56 25 -56 56s25 57 56 57s56 -26 56 -57s-25 -56 -56 -56z" />
    <glyph glyph-name="ellipsis" unicode="&#x2026;" horiz-adv-x="784" 
d="M105 -9c-31 0 -56 25 -56 56s25 57 56 57s56 -26 56 -57s-25 -56 -56 -56zM392 -9c-31 0 -57 25 -57 56s26 57 57 57s56 -26 56 -57s-25 -56 -56 -56zM678 -9c-31 0 -56 25 -56 56s25 57 56 57s57 -26 57 -57s-26 -56 -57 -56z" />
    <glyph glyph-name="periodcentered" unicode="&#xb7;" horiz-adv-x="219" 
d="M110 196c-31 0 -57 25 -57 56s26 57 57 57s56 -26 56 -57s-25 -56 -56 -56z" />
    <glyph glyph-name="bullet" unicode="&#x2022;" horiz-adv-x="359" 
d="M179 184c-61 0 -111 49 -111 111c0 61 50 110 111 110c62 0 112 -49 112 -110c0 -62 -50 -111 -112 -111z" />
    <glyph glyph-name="underscore" unicode="_" horiz-adv-x="523" 
d="M55 -88v55h412v-55h-412z" />
    <glyph glyph-name="hyphen" unicode="-" horiz-adv-x="386" 
d="M56 195v74h274v-74h-274z" />
    <glyph glyph-name="uni00AD" unicode="&#xad;" horiz-adv-x="386" 
d="M56 195v74h274v-74h-274z" />
    <glyph glyph-name="endash" unicode="&#x2013;" horiz-adv-x="621" 
d="M56 195v74h508v-74h-508z" />
    <glyph glyph-name="emdash" unicode="&#x2014;" horiz-adv-x="831" 
d="M56 195v74h718v-74h-718z" />
    <glyph glyph-name="ordfeminine" unicode="&#xaa;" horiz-adv-x="369" 
d="M50 202v43h276v-43h-276zM133 295c-52 0 -93 30 -93 87c0 69 63 88 132 88h52v21c0 40 -17 55 -63 55c-36 0 -71 -10 -97 -19v50c29 11 70 19 110 19c72 0 115 -26 115 -103v-140h41v-51h-102v34c-20 -19 -52 -41 -95 -41zM152 341c32 0 56 19 72 35v53h-50
c-39 0 -69 -10 -69 -45c0 -23 14 -43 47 -43z" />
    <glyph glyph-name="ordmasculine" unicode="&#xba;" horiz-adv-x="369" 
d="M48 202v43h273v-43h-273zM185 295c-92 0 -150 58 -150 150s58 151 149 151s150 -58 150 -150c0 -93 -58 -151 -149 -151zM184 344c55 0 82 42 82 101s-27 102 -81 102c-55 0 -82 -42 -82 -101s27 -102 81 -102z" />
    <glyph glyph-name="mu" unicode="&#xb5;" horiz-adv-x="588" 
d="M104 -199v559h-73v68h158v-294c0 -47 17 -76 67 -76c51 0 100 29 137 61v241h-78v68h164v-360h72v-68h-156v59c-45 -40 -101 -70 -165 -70c-21 0 -38 5 -51 15l10 -203h-85z" />
    <glyph glyph-name="fraction" unicode="&#x2044;" horiz-adv-x="382" 
d="M43 -14l-50 26l346 612l49 -27z" />
    <glyph glyph-name="notequal" unicode="&#x2260;" horiz-adv-x="575" 
d="M165 -78l-43 20l69 147h-111v69h143l74 157h-217v69h250l79 168l43 -20l-70 -148h112v-69h-145l-73 -157h218v-69h-251z" />
    <glyph glyph-name="equal" unicode="=" horiz-adv-x="533" 
d="M59 89v69h415v-69h-415zM59 315v69h415v-69h-415z" />
    <glyph glyph-name="approxequal" unicode="&#x2248;" horiz-adv-x="594" 
d="M97 274l-44 21c28 68 69 141 149 141c85 0 142 -86 206 -86c50 0 76 50 92 86l44 -22c-25 -63 -63 -140 -137 -140c-78 0 -136 89 -208 89c-52 0 -81 -45 -102 -89zM97 73l-44 21c28 67 69 141 149 141c85 0 142 -86 206 -86c50 0 76 50 92 86l44 -22
c-25 -63 -63 -140 -137 -140c-78 0 -136 88 -208 88c-52 0 -81 -44 -102 -88z" />
    <glyph glyph-name="asciitilde" unicode="~" horiz-adv-x="589" 
d="M95 173l-44 21c28 68 69 142 149 142c85 0 142 -86 207 -86c49 0 75 50 91 86l44 -22c-25 -63 -63 -140 -137 -140c-78 0 -136 88 -208 88c-52 0 -81 -45 -102 -89z" />
    <glyph glyph-name="logicalnot" unicode="&#xac;" horiz-adv-x="504" 
d="M385 132v144h-326v57h382v-201h-56z" />
    <glyph glyph-name="multiply" unicode="&#xd7;" horiz-adv-x="479" 
d="M89 39l-47 47l150 151l-150 151l47 48l150 -152l151 152l48 -48l-151 -151l151 -151l-48 -47l-151 151z" />
    <glyph glyph-name="divide" unicode="&#xf7;" horiz-adv-x="508" 
d="M254 29c-30 0 -55 25 -55 55c0 31 25 56 55 56c31 0 56 -25 56 -56c0 -30 -25 -55 -56 -55zM254 339c-30 0 -55 25 -55 55c0 31 25 56 55 56c31 0 56 -25 56 -56c0 -30 -25 -55 -56 -55zM47 208v63h415v-63h-415z" />
    <glyph glyph-name="plus" unicode="+" horiz-adv-x="480" 
d="M205 30v174h-172v66h172v175h69v-175h174v-66h-174v-174h-69z" />
    <glyph glyph-name="minus" unicode="&#x2212;" horiz-adv-x="533" 
d="M59 204v66h415v-66h-415z" />
    <glyph glyph-name="plusminus" unicode="&#xb1;" horiz-adv-x="530" 
d="M230 137v142h-172v64h172v144h69v-144h173v-64h-173v-142h-69zM58 24v65h414v-65h-414z" />
    <glyph glyph-name="lessequal" unicode="&#x2264;" horiz-adv-x="496" 
d="M52 32v57h387v-57h-387zM439 120l-387 150v44l387 149v-67l-284 -104l284 -105v-67z" />
    <glyph glyph-name="greaterequal" unicode="&#x2265;" horiz-adv-x="496" 
d="M58 32v57h386v-57h-386zM58 120v67l284 105l-284 104v67l386 -149v-44z" />
    <glyph glyph-name="less" unicode="&#x3c;" horiz-adv-x="451" 
d="M399 28l-370 189v39l370 189v-75l-272 -133l272 -133v-76z" />
    <glyph glyph-name="greater" unicode="&#x3e;" horiz-adv-x="451" 
d="M52 28v76l272 133l-272 133v75l370 -189v-39z" />
    <glyph glyph-name="agrave" unicode="&#xe0;" horiz-adv-x="472" 
d="M163 -11c-76 0 -137 44 -137 128c0 106 98 132 196 132h84v33c0 65 -25 90 -100 90c-53 0 -109 -13 -145 -25v66c42 14 103 26 162 26c111 0 168 -43 168 -153v-218h71v-68h-153v52c-31 -30 -80 -63 -146 -63zM187 52c50 0 90 29 119 56v85h-80c-62 0 -114 -15 -114 -73
c0 -39 24 -68 75 -68zM278 505l-186 119l57 72l157 -156z" />
    <glyph glyph-name="aacute" unicode="&#xe1;" horiz-adv-x="472" 
d="M163 -11c-76 0 -137 44 -137 128c0 106 98 132 196 132h84v33c0 65 -25 90 -100 90c-53 0 -109 -13 -145 -25v66c42 14 103 26 162 26c111 0 168 -43 168 -153v-218h71v-68h-153v52c-31 -30 -80 -63 -146 -63zM187 52c50 0 90 29 119 56v85h-80c-62 0 -114 -15 -114 -73
c0 -39 24 -68 75 -68zM156 505l-28 35l157 156l57 -72z" />
    <glyph glyph-name="acircumflex" unicode="&#xe2;" horiz-adv-x="472" 
d="M163 -11c-76 0 -137 44 -137 128c0 106 98 132 196 132h84v33c0 65 -25 90 -100 90c-53 0 -109 -13 -145 -25v66c42 14 103 26 162 26c111 0 168 -43 168 -153v-218h71v-68h-153v52c-31 -30 -80 -63 -146 -63zM187 52c50 0 90 29 119 56v85h-80c-62 0 -114 -15 -114 -73
c0 -39 24 -68 75 -68zM77 501l-21 27l135 133h55l135 -133l-20 -27l-143 78z" />
    <glyph glyph-name="atilde" unicode="&#xe3;" horiz-adv-x="472" 
d="M163 -11c-76 0 -137 44 -137 128c0 106 98 132 196 132h84v33c0 65 -25 90 -100 90c-53 0 -109 -13 -145 -25v66c42 14 103 26 162 26c111 0 168 -43 168 -153v-218h71v-68h-153v52c-31 -30 -80 -63 -146 -63zM187 52c50 0 90 29 119 56v85h-80c-62 0 -114 -15 -114 -73
c0 -39 24 -68 75 -68zM82 508l-34 17c19 46 45 108 102 108c52 0 92 -51 138 -51c28 0 47 18 65 53l33 -18c-19 -46 -49 -108 -104 -108c-50 0 -96 51 -137 51c-23 0 -44 -16 -63 -52z" />
    <glyph glyph-name="adieresis" unicode="&#xe4;" horiz-adv-x="472" 
d="M163 -11c-76 0 -137 44 -137 128c0 106 98 132 196 132h84v33c0 65 -25 90 -100 90c-53 0 -109 -13 -145 -25v66c42 14 103 26 162 26c111 0 168 -43 168 -153v-218h71v-68h-153v52c-31 -30 -80 -63 -146 -63zM187 52c50 0 90 29 119 56v85h-80c-62 0 -114 -15 -114 -73
c0 -39 24 -68 75 -68zM128 509c-29 0 -53 23 -53 53c0 29 24 53 53 53s53 -24 53 -53c0 -30 -24 -53 -53 -53zM310 509c-29 0 -53 23 -53 53c0 29 24 53 53 53s53 -24 53 -53c0 -30 -24 -53 -53 -53z" />
    <glyph glyph-name="aring" unicode="&#xe5;" horiz-adv-x="472" 
d="M163 -11c-76 0 -137 44 -137 128c0 106 98 132 196 132h84v33c0 65 -25 90 -100 90c-53 0 -109 -13 -145 -25v66c42 14 103 26 162 26c111 0 168 -43 168 -153v-218h71v-68h-153v52c-31 -30 -80 -63 -146 -63zM187 52c50 0 90 29 119 56v85h-80c-62 0 -114 -15 -114 -73
c0 -39 24 -68 75 -68zM218 500c-74 0 -117 49 -117 108c0 58 43 107 117 107s116 -49 116 -107c0 -59 -42 -108 -116 -108zM218 549c34 0 51 27 51 59c0 30 -17 58 -51 58c-35 0 -52 -28 -52 -58c0 -32 17 -59 52 -59z" />
    <glyph glyph-name="amacron" unicode="&#x101;" horiz-adv-x="472" 
d="M163 -11c-76 0 -137 44 -137 128c0 106 98 132 196 132h84v33c0 65 -25 90 -100 90c-53 0 -109 -13 -145 -25v66c42 14 103 26 162 26c111 0 168 -43 168 -153v-218h71v-68h-153v52c-31 -30 -80 -63 -146 -63zM187 52c50 0 90 29 119 56v85h-80c-62 0 -114 -15 -114 -73
c0 -39 24 -68 75 -68zM81 522v65h270v-65h-270z" />
    <glyph glyph-name="abreve" unicode="&#x103;" horiz-adv-x="472" 
d="M163 -11c-76 0 -137 44 -137 128c0 106 98 132 196 132h84v33c0 65 -25 90 -100 90c-53 0 -109 -13 -145 -25v66c42 14 103 26 162 26c111 0 168 -43 168 -153v-218h71v-68h-153v52c-31 -30 -80 -63 -146 -63zM187 52c50 0 90 29 119 56v85h-80c-62 0 -114 -15 -114 -73
c0 -39 24 -68 75 -68zM217 509c-82 0 -140 56 -145 143h63c6 -51 38 -73 82 -73c45 0 77 22 83 73h63c-5 -87 -63 -143 -146 -143z" />
    <glyph glyph-name="aogonek" unicode="&#x105;" horiz-adv-x="472" 
d="M390 -200c-55 0 -100 25 -100 81c0 52 38 91 79 119h-60v52c-31 -30 -80 -63 -146 -63c-76 0 -137 44 -137 128c0 106 98 132 196 132h84v33c0 65 -25 90 -100 90c-53 0 -109 -13 -145 -25v66c42 14 103 26 162 26c111 0 168 -43 168 -153v-218h71v-68h-29
c-29 -23 -66 -63 -66 -105c0 -29 18 -41 46 -41c22 0 44 8 58 15l6 -51c-21 -9 -53 -18 -87 -18zM187 52c50 0 90 29 119 56v85h-80c-62 0 -114 -15 -114 -73c0 -39 24 -68 75 -68z" />
    <glyph glyph-name="ae" unicode="&#xe6;" horiz-adv-x="722" 
d="M174 -11c-87 0 -148 44 -148 128c0 106 98 131 196 131h83v34c0 65 -26 91 -99 91c-54 0 -107 -15 -145 -30v68c42 15 100 28 158 28c72 0 118 -22 142 -68c33 42 83 68 145 68c130 0 186 -105 186 -212c0 -12 0 -25 -3 -38h-303c7 -85 56 -133 143 -133
c55 0 102 20 139 41v-68c-35 -21 -84 -40 -150 -40c-77 0 -131 27 -166 71c-41 -35 -102 -71 -178 -71zM192 54c54 0 102 27 134 53c-11 25 -16 54 -18 85h-83c-61 0 -114 -14 -114 -71c0 -40 26 -67 81 -67zM504 376c-74 0 -111 -56 -118 -127h225c-2 63 -29 127 -107 127z
" />
    <glyph glyph-name="aeacute" unicode="&#x1fd;" horiz-adv-x="722" 
d="M174 -11c-87 0 -148 44 -148 128c0 106 98 131 196 131h83v34c0 65 -26 91 -99 91c-54 0 -107 -15 -145 -30v68c42 15 100 28 158 28c72 0 118 -22 142 -68c33 42 83 68 145 68c130 0 186 -105 186 -212c0 -12 0 -25 -3 -38h-303c7 -85 56 -133 143 -133
c55 0 102 20 139 41v-68c-35 -21 -84 -40 -150 -40c-77 0 -131 27 -166 71c-41 -35 -102 -71 -178 -71zM192 54c54 0 102 27 134 53c-11 25 -16 54 -18 85h-83c-61 0 -114 -14 -114 -71c0 -40 26 -67 81 -67zM504 376c-74 0 -111 -56 -118 -127h225c-2 63 -29 127 -107 127z
M323 505l-28 35l157 156l57 -72z" />
    <glyph glyph-name="ccedilla" unicode="&#xe7;" horiz-adv-x="442" 
d="M210 -200c-21 0 -48 2 -65 5l12 51c14 -3 32 -5 49 -5c31 0 60 7 60 34c0 33 -40 38 -76 38v19l25 50c-113 14 -181 94 -181 221c0 144 89 226 223 226c58 0 115 -16 151 -29v-134h-73v86c-19 6 -45 11 -70 11c-96 0 -143 -63 -143 -157c0 -96 50 -160 145 -160
c51 0 100 19 139 41v-69c-38 -23 -86 -37 -140 -39l-11 -27c43 -3 85 -28 85 -78c0 -59 -60 -84 -130 -84z" />
    <glyph glyph-name="cacute" unicode="&#x107;" horiz-adv-x="442" 
d="M255 -11c-137 0 -221 82 -221 224c0 144 89 226 223 226c58 0 115 -16 151 -29v-134h-73v86c-19 6 -45 11 -70 11c-96 0 -143 -63 -143 -157c0 -96 50 -160 145 -160c51 0 100 19 139 41v-69c-41 -24 -93 -39 -151 -39zM183 505l-28 35l157 156l57 -72z" />
    <glyph glyph-name="ccircumflex" unicode="&#x109;" horiz-adv-x="442" 
d="M255 -11c-137 0 -221 82 -221 224c0 144 89 226 223 226c58 0 115 -16 151 -29v-134h-73v86c-19 6 -45 11 -70 11c-96 0 -143 -63 -143 -157c0 -96 50 -160 145 -160c51 0 100 19 139 41v-69c-41 -24 -93 -39 -151 -39zM104 501l-20 27l134 133h55l135 -133l-20 -27
l-142 78z" />
    <glyph glyph-name="cdotaccent" unicode="&#x10b;" horiz-adv-x="442" 
d="M255 -11c-137 0 -221 82 -221 224c0 144 89 226 223 226c58 0 115 -16 151 -29v-134h-73v86c-19 6 -45 11 -70 11c-96 0 -143 -63 -143 -157c0 -96 50 -160 145 -160c51 0 100 19 139 41v-69c-41 -24 -93 -39 -151 -39zM245 509c-32 0 -57 26 -57 57c0 32 25 57 57 57
s57 -25 57 -57c0 -31 -25 -57 -57 -57z" />
    <glyph glyph-name="ccaron" unicode="&#x10d;" horiz-adv-x="442" 
d="M255 -11c-137 0 -221 82 -221 224c0 144 89 226 223 226c58 0 115 -16 151 -29v-134h-73v86c-19 6 -45 11 -70 11c-96 0 -143 -63 -143 -157c0 -96 50 -160 145 -160c51 0 100 19 139 41v-69c-41 -24 -93 -39 -151 -39zM214 507l-134 134l20 26l141 -78l143 78l20 -26
l-135 -134h-55z" />
    <glyph glyph-name="dcaron" unicode="&#x10f;" horiz-adv-x="532" 
d="M547 715c39 0 58 -30 58 -66c0 -50 -37 -108 -87 -149l-38 29c26 31 47 63 47 100c0 32 -15 50 -36 60v7c16 12 37 19 56 19zM222 -11c-117 0 -188 97 -188 225c0 132 75 225 198 225c54 0 94 -19 126 -46v246h-87v68h172v-639h73v-68h-152v54c-32 -36 -77 -65 -142 -65z
M244 56c50 0 86 25 114 51v223c-26 22 -60 42 -106 42c-88 0 -130 -65 -130 -157c0 -84 35 -159 122 -159z" />
    <glyph glyph-name="dcroat" unicode="&#x111;" horiz-adv-x="532" 
d="M210 509v58h148v72h-87v68h172v-140h66v-58h-66v-441h73v-68h-152v54c-32 -36 -77 -65 -142 -65c-117 0 -188 97 -188 225c0 132 75 225 198 225c54 0 94 -19 126 -46v116h-148zM244 56c50 0 86 25 114 51v223c-26 22 -60 42 -106 42c-88 0 -130 -65 -130 -157
c0 -84 35 -159 122 -159z" />
    <glyph glyph-name="egrave" unicode="&#xe8;" horiz-adv-x="458" 
d="M252 -11c-143 0 -218 93 -218 224c0 133 76 226 204 226c134 0 190 -104 190 -212c0 -12 0 -25 -2 -38h-306c8 -84 56 -133 144 -133c55 0 103 20 141 41v-68c-36 -21 -86 -40 -153 -40zM239 375c-73 0 -111 -55 -119 -124h228c-4 61 -31 124 -109 124zM291 505l-186 119
l57 72l157 -156z" />
    <glyph glyph-name="eacute" unicode="&#xe9;" horiz-adv-x="458" 
d="M252 -11c-143 0 -218 93 -218 224c0 133 76 226 204 226c134 0 190 -104 190 -212c0 -12 0 -25 -2 -38h-306c8 -84 56 -133 144 -133c55 0 103 20 141 41v-68c-36 -21 -86 -40 -153 -40zM239 375c-73 0 -111 -55 -119 -124h228c-4 61 -31 124 -109 124zM175 505l-28 35
l157 156l57 -72z" />
    <glyph glyph-name="ecircumflex" unicode="&#xea;" horiz-adv-x="458" 
d="M252 -11c-143 0 -218 93 -218 224c0 133 76 226 204 226c134 0 190 -104 190 -212c0 -12 0 -25 -2 -38h-306c8 -84 56 -133 144 -133c55 0 103 20 141 41v-68c-36 -21 -86 -40 -153 -40zM239 375c-73 0 -111 -55 -119 -124h228c-4 61 -31 124 -109 124zM91 501l-20 27
l135 133h55l135 -133l-21 -27l-142 78z" />
    <glyph glyph-name="edieresis" unicode="&#xeb;" horiz-adv-x="458" 
d="M252 -11c-143 0 -218 93 -218 224c0 133 76 226 204 226c134 0 190 -104 190 -212c0 -12 0 -25 -2 -38h-306c8 -84 56 -133 144 -133c55 0 103 20 141 41v-68c-36 -21 -86 -40 -153 -40zM239 375c-73 0 -111 -55 -119 -124h228c-4 61 -31 124 -109 124zM141 509
c-30 0 -53 23 -53 53c0 29 23 53 53 53c29 0 53 -24 53 -53c0 -30 -24 -53 -53 -53zM323 509c-29 0 -53 23 -53 53c0 29 24 53 53 53s53 -24 53 -53c0 -30 -24 -53 -53 -53z" />
    <glyph glyph-name="emacron" unicode="&#x113;" horiz-adv-x="458" 
d="M252 -11c-143 0 -218 93 -218 224c0 133 76 226 204 226c134 0 190 -104 190 -212c0 -12 0 -25 -2 -38h-306c8 -84 56 -133 144 -133c55 0 103 20 141 41v-68c-36 -21 -86 -40 -153 -40zM239 375c-73 0 -111 -55 -119 -124h228c-4 61 -31 124 -109 124zM98 522v65h271
v-65h-271z" />
    <glyph glyph-name="ebreve" unicode="&#x115;" horiz-adv-x="458" 
d="M252 -11c-143 0 -218 93 -218 224c0 133 76 226 204 226c134 0 190 -104 190 -212c0 -12 0 -25 -2 -38h-306c8 -84 56 -133 144 -133c55 0 103 20 141 41v-68c-36 -21 -86 -40 -153 -40zM239 375c-73 0 -111 -55 -119 -124h228c-4 61 -31 124 -109 124zM233 509
c-83 0 -141 56 -146 143h63c6 -51 38 -73 83 -73c44 0 76 22 82 73h63c-5 -87 -63 -143 -145 -143z" />
    <glyph glyph-name="edotaccent" unicode="&#x117;" horiz-adv-x="458" 
d="M252 -11c-143 0 -218 93 -218 224c0 133 76 226 204 226c134 0 190 -104 190 -212c0 -12 0 -25 -2 -38h-306c8 -84 56 -133 144 -133c55 0 103 20 141 41v-68c-36 -21 -86 -40 -153 -40zM239 375c-73 0 -111 -55 -119 -124h228c-4 61 -31 124 -109 124zM233 509
c-32 0 -57 26 -57 57c0 32 25 57 57 57c31 0 57 -25 57 -57c0 -31 -26 -57 -57 -57z" />
    <glyph glyph-name="eogonek" unicode="&#x119;" horiz-adv-x="458" 
d="M330 -200c-56 0 -100 25 -100 82c0 46 29 83 66 111c-14 -2 -28 -4 -44 -4c-143 0 -218 93 -218 224c0 133 76 226 204 226c134 0 190 -104 190 -212c0 -12 0 -25 -2 -38h-306c8 -84 56 -133 144 -133c55 0 103 20 141 41v-68c-45 -29 -98 -75 -98 -132
c0 -31 17 -43 46 -43c22 0 43 8 58 15l5 -51c-21 -9 -53 -18 -86 -18zM239 375c-73 0 -111 -55 -119 -124h228c-4 61 -31 124 -109 124z" />
    <glyph glyph-name="ecaron" unicode="&#x11b;" horiz-adv-x="458" 
d="M252 -11c-143 0 -218 93 -218 224c0 133 76 226 204 226c134 0 190 -104 190 -212c0 -12 0 -25 -2 -38h-306c8 -84 56 -133 144 -133c55 0 103 20 141 41v-68c-36 -21 -86 -40 -153 -40zM239 375c-73 0 -111 -55 -119 -124h228c-4 61 -31 124 -109 124zM204 507l-134 134
l20 26l142 -78l142 78l20 -26l-135 -134h-55z" />
    <glyph glyph-name="eth" unicode="&#xf0;" horiz-adv-x="505" 
d="M246 -11c-135 0 -212 90 -212 216c0 124 75 216 196 216c60 0 105 -24 133 -58c-15 86 -62 158 -123 218l-106 -81l-24 34l99 76c-27 23 -60 46 -91 65l44 49c37 -20 73 -42 109 -72l81 62l25 -33l-75 -57c93 -92 161 -219 161 -374c0 -162 -75 -261 -217 -261zM249 55
c77 0 126 60 126 151c0 90 -47 151 -126 151s-127 -62 -127 -152c0 -92 50 -150 127 -150z" />
    <glyph glyph-name="gcircumflex" unicode="&#x11d;" horiz-adv-x="468" 
d="M217 -210c-145 0 -200 55 -200 121c0 48 29 82 68 106c-19 12 -31 28 -31 53c0 35 24 60 52 80c-43 30 -62 79 -62 128c0 83 56 161 177 161c27 0 52 -4 73 -11h165v-68l-88 4c18 -25 28 -56 28 -86c0 -83 -57 -161 -178 -161c-28 0 -52 4 -73 11c-11 -8 -19 -18 -19 -29
c0 -70 306 5 306 -169c0 -77 -62 -140 -218 -140zM221 377c-57 0 -98 -36 -98 -99s41 -100 98 -100s98 36 98 100c0 63 -41 99 -98 99zM219 -146c101 0 132 40 132 72c0 66 -125 56 -212 74c-28 -19 -46 -45 -46 -74c0 -47 47 -72 126 -72zM79 501l-20 27l134 133h55
l135 -133l-20 -27l-143 78z" />
    <glyph glyph-name="gbreve" unicode="&#x11f;" horiz-adv-x="468" 
d="M217 -210c-145 0 -200 55 -200 121c0 48 29 82 68 106c-19 12 -31 28 -31 53c0 35 24 60 52 80c-43 30 -62 79 -62 128c0 83 56 161 177 161c27 0 52 -4 73 -11h165v-68l-88 4c18 -25 28 -56 28 -86c0 -83 -57 -161 -178 -161c-28 0 -52 4 -73 11c-11 -8 -19 -18 -19 -29
c0 -70 306 5 306 -169c0 -77 -62 -140 -218 -140zM221 377c-57 0 -98 -36 -98 -99s41 -100 98 -100s98 36 98 100c0 63 -41 99 -98 99zM219 -146c101 0 132 40 132 72c0 66 -125 56 -212 74c-28 -19 -46 -45 -46 -74c0 -47 47 -72 126 -72zM220 509c-82 0 -141 56 -146 143
h63c6 -51 38 -73 83 -73s76 22 82 73h64c-6 -87 -64 -143 -146 -143z" />
    <glyph glyph-name="gdotaccent" unicode="&#x121;" horiz-adv-x="468" 
d="M217 -210c-145 0 -200 55 -200 121c0 48 29 82 68 106c-19 12 -31 28 -31 53c0 35 24 60 52 80c-43 30 -62 79 -62 128c0 83 56 161 177 161c27 0 52 -4 73 -11h165v-68l-88 4c18 -25 28 -56 28 -86c0 -83 -57 -161 -178 -161c-28 0 -52 4 -73 11c-11 -8 -19 -18 -19 -29
c0 -70 306 5 306 -169c0 -77 -62 -140 -218 -140zM221 377c-57 0 -98 -36 -98 -99s41 -100 98 -100s98 36 98 100c0 63 -41 99 -98 99zM219 -146c101 0 132 40 132 72c0 66 -125 56 -212 74c-28 -19 -46 -45 -46 -74c0 -47 47 -72 126 -72zM220 509c-32 0 -57 26 -57 57
c0 32 25 57 57 57c31 0 57 -25 57 -57c0 -31 -26 -57 -57 -57z" />
    <glyph glyph-name="gcommaaccent" unicode="&#x123;" horiz-adv-x="468" 
d="M217 503c-38 0 -58 29 -58 65c0 51 37 108 87 149l38 -29c-26 -31 -46 -63 -46 -100c0 -32 14 -49 36 -60v-7c-17 -12 -38 -18 -57 -18zM217 -210c-145 0 -200 55 -200 121c0 48 29 82 68 106c-19 12 -31 28 -31 53c0 35 24 60 52 80c-43 30 -62 79 -62 128
c0 83 56 161 177 161c27 0 52 -4 73 -11h165v-68l-88 4c18 -25 28 -56 28 -86c0 -83 -57 -161 -178 -161c-28 0 -52 4 -73 11c-11 -8 -19 -18 -19 -29c0 -70 306 5 306 -169c0 -77 -62 -140 -218 -140zM221 377c-57 0 -98 -36 -98 -99s41 -100 98 -100s98 36 98 100
c0 63 -41 99 -98 99zM219 -146c101 0 132 40 132 72c0 66 -125 56 -212 74c-28 -19 -46 -45 -46 -74c0 -47 47 -72 126 -72z" />
    <glyph glyph-name="hcircumflex" unicode="&#x125;" horiz-adv-x="554" 
d="M19 0v68h73v571h-73v68h158v-337c45 39 100 69 163 69c77 0 126 -46 126 -136v-235h73v-68h-231v68h73v226c0 47 -17 76 -67 76c-51 0 -100 -31 -137 -62v-240h73v-68h-231zM-21 761l-20 26l134 133h55l135 -133l-20 -26l-143 77z" />
    <glyph glyph-name="hbar" unicode="&#x127;" horiz-adv-x="554" 
d="M25 509v58h67v72h-73v68h158v-140h139v-58h-139v-139c45 39 100 69 163 69c77 0 126 -46 126 -136v-235h73v-68h-231v68h73v226c0 47 -17 76 -67 76c-51 0 -100 -31 -137 -62v-240h73v-68h-231v68h73v441h-67z" />
    <glyph glyph-name="dotlessi" unicode="&#x131;" horiz-adv-x="281" 
d="M32 0v68h72v292h-72v68h158v-360h72v-68h-230z" />
    <glyph glyph-name="igrave" unicode="&#xec;" horiz-adv-x="281" 
d="M189 505l-186 119l57 72l158 -156zM32 0v68h72v292h-72v68h158v-360h72v-68h-230z" />
    <glyph glyph-name="iacute" unicode="&#xed;" horiz-adv-x="281" 
d="M65 505l-28 35l157 156l57 -72zM32 0v68h72v292h-72v68h158v-360h72v-68h-230z" />
    <glyph glyph-name="icircumflex" unicode="&#xee;" horiz-adv-x="281" 
d="M-9 501l-20 27l135 133h55l135 -133l-20 -27l-143 78zM32 0v68h72v292h-72v68h158v-360h72v-68h-230z" />
    <glyph glyph-name="idieresis" unicode="&#xef;" horiz-adv-x="281" 
d="M42 509c-29 0 -53 23 -53 53c0 29 24 53 53 53s53 -24 53 -53c0 -30 -24 -53 -53 -53zM224 509c-29 0 -53 23 -53 53c0 29 24 53 53 53c30 0 53 -24 53 -53c0 -30 -23 -53 -53 -53zM32 0v68h72v292h-72v68h158v-360h72v-68h-230z" />
    <glyph glyph-name="itilde" unicode="&#x129;" horiz-adv-x="281" 
d="M-7 508l-34 17c19 46 45 108 102 108c52 0 92 -51 138 -51c28 0 47 18 65 53l33 -18c-19 -46 -49 -108 -104 -108c-50 0 -97 51 -137 51c-23 0 -44 -16 -63 -52zM32 0v68h72v292h-72v68h158v-360h72v-68h-230z" />
    <glyph glyph-name="imacron" unicode="&#x12b;" horiz-adv-x="281" 
d="M-5 522v65h271v-65h-271zM32 0v68h72v292h-72v68h158v-360h72v-68h-230z" />
    <glyph glyph-name="ibreve" unicode="&#x12d;" horiz-adv-x="281" 
d="M133 509c-83 0 -141 56 -146 143h63c6 -51 38 -73 83 -73c44 0 76 22 82 73h63c-5 -87 -63 -143 -145 -143zM32 0v68h72v292h-72v68h158v-360h72v-68h-230z" />
    <glyph glyph-name="iogonek" unicode="&#x12f;" horiz-adv-x="281" 
d="M32 0v68h72v292h-72v68h158v-360h72v-68h-63c-30 -23 -67 -63 -67 -105c0 -29 18 -41 46 -41c22 0 44 8 59 15l5 -51c-21 -9 -53 -18 -86 -18c-56 0 -100 25 -100 81c0 52 37 91 79 119h-103zM78 576c0 34 28 62 63 62c34 0 62 -28 62 -62s-28 -62 -62 -62
c-35 0 -63 28 -63 62z" />
    <glyph glyph-name="dotlessj" unicode="&#x237;" horiz-adv-x="244" 
d="M33 -221l-27 56c49 26 87 56 87 113v412h-77v68h162v-482c0 -102 -69 -138 -145 -167z" />
    <glyph glyph-name="jcircumflex" unicode="&#x135;" horiz-adv-x="244" 
d="M33 -221l-27 56c49 26 87 56 87 113v412h-77v68h162v-482c0 -102 -69 -138 -145 -167zM-22 501l-20 27l134 133h55l135 -133l-20 -27l-143 78z" />
    <glyph glyph-name="kcommaaccent" unicode="&#x137;" horiz-adv-x="521" 
d="M291 -67c38 0 58 -29 58 -65c0 -51 -37 -108 -88 -149l-37 29c26 31 46 63 46 100c0 32 -14 49 -36 60v7c16 12 38 18 57 18zM19 0v68h73v571h-73v68h158v-639h69v-68h-227zM451 -10c-60 0 -102 34 -143 89l-102 131v4l143 149h-69v65h219v-66h-60l-140 -147l73 -91
c29 -37 58 -67 99 -67c8 0 17 1 26 3v-63c-13 -4 -27 -7 -46 -7z" />
    <glyph glyph-name="kgreenlandic" unicode="&#x138;" horiz-adv-x="534" 
d="M32 0v68h72v292h-72v68h158v-360h68v-68h-226zM464 -10c-60 0 -102 34 -144 89l-102 131v4l144 149h-69v65h219v-66h-60l-140 -147l73 -91c29 -37 57 -67 99 -67c7 0 16 1 26 3v-63c-14 -4 -27 -7 -46 -7z" />
    <glyph glyph-name="lacute" unicode="&#x13a;" horiz-adv-x="268" 
d="M19 0v68h73v571h-73v68h158v-639h73v-68h-231zM70 763l-29 35l158 156l56 -72z" />
    <glyph glyph-name="lcommaaccent" unicode="&#x13c;" horiz-adv-x="268" 
d="M134 -67c39 0 58 -29 58 -65c0 -51 -37 -108 -87 -149l-38 29c26 31 47 63 47 100c0 32 -15 49 -36 60v7c16 12 37 18 56 18zM19 0v68h73v571h-73v68h158v-639h73v-68h-231z" />
    <glyph glyph-name="lcaron" unicode="&#x13e;" horiz-adv-x="268" 
d="M281 715c38 0 58 -30 58 -66c0 -50 -37 -108 -87 -149l-38 29c26 31 46 63 46 100c0 32 -14 50 -36 60v7c16 12 38 19 57 19zM19 0v68h73v571h-73v68h158v-639h73v-68h-231z" />
    <glyph glyph-name="ldot" unicode="&#x140;" horiz-adv-x="341" 
d="M19 0v68h73v571h-73v68h158v-639h73v-68h-231zM300 278c-32 0 -57 26 -57 57c0 32 25 58 57 58s57 -26 57 -58c0 -31 -25 -57 -57 -57z" />
    <glyph glyph-name="lslash" unicode="&#x142;" horiz-adv-x="292" 
d="M25 246l-26 49l99 53v291h-73v68h158v-313l94 51l26 -48l-120 -66v-263h73v-68h-231v68h73v218z" />
    <glyph glyph-name="ntilde" unicode="&#xf1;" horiz-adv-x="567" 
d="M32 0v68h72v292h-72v68h156v-60c45 40 101 71 165 71c77 0 126 -46 126 -136v-235h73v-68h-231v68h73v226c0 47 -17 76 -67 76c-51 0 -100 -31 -137 -62v-240h72v-68h-230zM151 508l-34 17c18 46 45 108 102 108c51 0 92 -51 138 -51c28 0 46 18 64 53l34 -18
c-20 -46 -50 -108 -105 -108c-50 0 -96 51 -136 51c-24 0 -44 -16 -63 -52z" />
    <glyph glyph-name="nacute" unicode="&#x144;" horiz-adv-x="567" 
d="M32 0v68h72v292h-72v68h156v-60c45 40 101 71 165 71c77 0 126 -46 126 -136v-235h73v-68h-231v68h73v226c0 47 -17 76 -67 76c-51 0 -100 -31 -137 -62v-240h72v-68h-230zM222 505l-28 35l157 156l57 -72z" />
    <glyph glyph-name="ncommaaccent" unicode="&#x146;" horiz-adv-x="567" 
d="M293 -67c38 0 58 -29 58 -65c0 -51 -37 -108 -87 -149l-38 29c26 31 46 63 46 100c0 32 -14 49 -36 60v7c16 12 38 18 57 18zM32 0v68h72v292h-72v68h156v-60c45 40 101 71 165 71c77 0 126 -46 126 -136v-235h73v-68h-231v68h73v226c0 47 -17 76 -67 76
c-51 0 -100 -31 -137 -62v-240h72v-68h-230z" />
    <glyph glyph-name="ncaron" unicode="&#x148;" horiz-adv-x="567" 
d="M32 0v68h72v292h-72v68h156v-60c45 40 101 71 165 71c77 0 126 -46 126 -136v-235h73v-68h-231v68h73v226c0 47 -17 76 -67 76c-51 0 -100 -31 -137 -62v-240h72v-68h-230zM256 507l-135 134l21 26l141 -78l143 78l20 -26l-135 -134h-55z" />
    <glyph glyph-name="napostrophe" unicode="&#x149;" horiz-adv-x="567" 
d="M104 694c38 0 58 -30 58 -66c0 -50 -37 -107 -88 -149l-37 29c26 32 46 63 46 100c0 32 -15 50 -36 60v7c16 12 38 19 57 19zM32 0v68h72v292h-72v68h156v-60c45 40 101 71 165 71c77 0 126 -46 126 -136v-235h73v-68h-231v68h73v226c0 47 -17 76 -67 76
c-51 0 -100 -31 -137 -62v-240h72v-68h-230z" />
    <glyph glyph-name="eng" unicode="&#x14b;" horiz-adv-x="539" 
d="M334 -221l-27 56c49 26 87 56 87 113v346c0 47 -17 76 -67 76c-51 0 -100 -31 -137 -62v-240h72v-68h-230v68h72v291h-72v69h156v-60c45 40 101 71 165 71c77 0 126 -46 126 -136v-357c0 -102 -69 -138 -145 -167z" />
    <glyph glyph-name="ograve" unicode="&#xf2;" horiz-adv-x="504" 
d="M252 -11c-134 0 -218 88 -218 225c0 136 84 225 218 225s218 -89 218 -225c0 -137 -84 -225 -218 -225zM252 55c85 0 130 66 130 159s-45 159 -130 159s-130 -66 -130 -159s45 -159 130 -159zM304 505l-186 119l57 72l157 -156z" />
    <glyph glyph-name="oacute" unicode="&#xf3;" horiz-adv-x="504" 
d="M252 -11c-134 0 -218 88 -218 225c0 136 84 225 218 225s218 -89 218 -225c0 -137 -84 -225 -218 -225zM252 55c85 0 130 66 130 159s-45 159 -130 159s-130 -66 -130 -159s45 -159 130 -159zM189 505l-28 35l157 156l57 -72z" />
    <glyph glyph-name="ocircumflex" unicode="&#xf4;" horiz-adv-x="504" 
d="M252 -11c-134 0 -218 88 -218 225c0 136 84 225 218 225s218 -89 218 -225c0 -137 -84 -225 -218 -225zM252 55c85 0 130 66 130 159s-45 159 -130 159s-130 -66 -130 -159s45 -159 130 -159zM110 501l-20 27l135 133h55l135 -133l-21 -27l-142 78z" />
    <glyph glyph-name="otilde" unicode="&#xf5;" horiz-adv-x="504" 
d="M252 -11c-134 0 -218 88 -218 225c0 136 84 225 218 225s218 -89 218 -225c0 -137 -84 -225 -218 -225zM252 55c85 0 130 66 130 159s-45 159 -130 159s-130 -66 -130 -159s45 -159 130 -159zM113 508l-34 17c19 46 45 108 102 108c52 0 92 -51 138 -51c28 0 47 18 65 53
l33 -18c-19 -46 -49 -108 -104 -108c-50 0 -97 51 -137 51c-23 0 -44 -16 -63 -52z" />
    <glyph glyph-name="odieresis" unicode="&#xf6;" horiz-adv-x="504" 
d="M252 -11c-134 0 -218 88 -218 225c0 136 84 225 218 225s218 -89 218 -225c0 -137 -84 -225 -218 -225zM252 55c85 0 130 66 130 159s-45 159 -130 159s-130 -66 -130 -159s45 -159 130 -159zM161 509c-29 0 -53 23 -53 53c0 29 24 53 53 53s53 -24 53 -53
c0 -30 -24 -53 -53 -53zM343 509c-29 0 -53 23 -53 53c0 29 24 53 53 53s53 -24 53 -53c0 -30 -24 -53 -53 -53z" />
    <glyph glyph-name="omacron" unicode="&#x14d;" horiz-adv-x="504" 
d="M252 -11c-134 0 -218 88 -218 225c0 136 84 225 218 225s218 -89 218 -225c0 -137 -84 -225 -218 -225zM252 55c85 0 130 66 130 159s-45 159 -130 159s-130 -66 -130 -159s45 -159 130 -159zM117 522v65h270v-65h-270z" />
    <glyph glyph-name="obreve" unicode="&#x14f;" horiz-adv-x="504" 
d="M252 -11c-134 0 -218 88 -218 225c0 136 84 225 218 225s218 -89 218 -225c0 -137 -84 -225 -218 -225zM252 55c85 0 130 66 130 159s-45 159 -130 159s-130 -66 -130 -159s45 -159 130 -159zM252 509c-82 0 -140 56 -146 143h63c7 -51 38 -73 83 -73s76 22 83 73h63
c-6 -87 -64 -143 -146 -143z" />
    <glyph glyph-name="ohungarumlaut" unicode="&#x151;" horiz-adv-x="504" 
d="M252 -11c-134 0 -218 88 -218 225c0 136 84 225 218 225s218 -89 218 -225c0 -137 -84 -225 -218 -225zM252 55c85 0 130 66 130 159s-45 159 -130 159s-130 -66 -130 -159s45 -159 130 -159zM142 504l-31 27l123 175l62 -58zM303 504l-30 27l123 175l61 -58z" />
    <glyph glyph-name="oslash" unicode="&#xf8;" horiz-adv-x="504" 
d="M252 -11c-54 0 -100 14 -136 41l-42 -49l-27 22l43 50c-37 39 -56 94 -56 161c0 136 84 225 218 225c53 0 100 -15 135 -42l42 49l26 -22l-42 -49c36 -39 57 -94 57 -161c0 -137 -84 -225 -218 -225zM252 55c85 0 130 66 130 159c0 38 -8 72 -23 98l-193 -225
c21 -21 50 -32 86 -32zM252 373c-85 0 -130 -66 -130 -159c0 -39 8 -72 23 -98l193 224c-22 21 -51 33 -86 33z" />
    <glyph glyph-name="oslashacute" unicode="&#x1ff;" horiz-adv-x="504" 
d="M252 -11c-54 0 -100 14 -136 41l-42 -49l-27 22l43 50c-37 39 -56 94 -56 161c0 136 84 225 218 225c53 0 100 -15 135 -42l42 49l26 -22l-42 -49c36 -39 57 -94 57 -161c0 -137 -84 -225 -218 -225zM252 55c85 0 130 66 130 159c0 38 -8 72 -23 98l-193 -225
c21 -21 50 -32 86 -32zM252 373c-85 0 -130 -66 -130 -159c0 -39 8 -72 23 -98l193 224c-22 21 -51 33 -86 33zM189 505l-29 35l158 156l56 -72z" />
    <glyph glyph-name="oe" unicode="&#x153;" horiz-adv-x="803" 
d="M246 -11c-128 0 -212 88 -212 225c0 136 83 225 213 225c81 0 142 -37 175 -97c30 59 85 97 164 97c131 0 187 -104 187 -212c0 -12 0 -25 -3 -38h-304c8 -84 56 -133 144 -133c55 0 104 20 141 41v-68c-36 -21 -87 -40 -151 -40c-90 0 -148 38 -178 97
c-35 -60 -96 -97 -176 -97zM250 55c85 0 130 66 130 159s-45 159 -130 159c-84 0 -129 -66 -129 -159s45 -159 129 -159zM585 375c-73 0 -111 -55 -119 -124h228c-4 61 -31 124 -109 124z" />
    <glyph glyph-name="rcommaaccent" unicode="&#x157;" horiz-adv-x="362" 
d="M152 -67c38 0 58 -29 58 -65c0 -51 -37 -108 -88 -149l-37 29c26 31 46 63 46 100c0 32 -15 49 -36 60v7c16 12 38 18 57 18zM32 0v68h72v292h-72v68h155v-84c27 45 74 95 152 95h10v-86h-15c-67 0 -114 -26 -144 -52v-233h81v-68h-239z" />
    <glyph glyph-name="rcaron" unicode="&#x159;" horiz-adv-x="362" 
d="M32 0v68h72v292h-72v68h155v-84c27 45 74 95 152 95h10v-86h-15c-67 0 -114 -26 -144 -52v-233h81v-68h-239zM169 507l-135 134l20 26l142 -78l143 78l20 -26l-135 -134h-55z" />
    <glyph glyph-name="racute" unicode="&#x155;" horiz-adv-x="362" 
d="M32 0v68h72v292h-72v68h155v-84c27 45 74 95 152 95h10v-86h-15c-67 0 -114 -26 -144 -52v-233h81v-68h-239zM143 505l-28 35l157 156l57 -72z" />
    <glyph glyph-name="sacute" unicode="&#x15b;" horiz-adv-x="406" 
d="M201 -11c-58 0 -124 12 -163 24v114h69v-61c25 -7 62 -13 92 -13c56 0 91 20 91 55c0 94 -246 46 -246 205c0 75 55 126 165 126c54 0 111 -12 144 -23v-113h-70v64c-21 5 -52 8 -74 8c-58 0 -83 -23 -83 -54c0 -97 246 -44 246 -207c0 -70 -47 -125 -171 -125zM148 505
l-29 35l158 156l56 -72z" />
    <glyph glyph-name="scircumflex" unicode="&#x15d;" horiz-adv-x="406" 
d="M201 -11c-58 0 -124 12 -163 24v114h69v-61c25 -7 62 -13 92 -13c56 0 91 20 91 55c0 94 -246 46 -246 205c0 75 55 126 165 126c54 0 111 -12 144 -23v-113h-70v64c-21 5 -52 8 -74 8c-58 0 -83 -23 -83 -54c0 -97 246 -44 246 -207c0 -70 -47 -125 -171 -125zM68 501
l-20 27l134 133h55l135 -133l-20 -27l-142 78z" />
    <glyph glyph-name="scedilla" unicode="&#x15f;" horiz-adv-x="405" 
d="M166 -200c-20 0 -47 2 -64 5l12 51c13 -3 32 -5 48 -5c32 0 60 7 60 34c0 33 -40 38 -76 38v19l24 48c-49 3 -100 13 -132 23v114h69v-61c25 -7 62 -13 92 -13c56 0 91 20 91 55c0 94 -246 46 -246 205c0 75 55 126 165 126c54 0 111 -12 144 -23v-113h-70v64
c-21 5 -52 8 -74 8c-58 0 -83 -23 -83 -54c0 -97 246 -44 246 -207c0 -66 -43 -117 -150 -124l-11 -28c44 -3 85 -28 85 -78c0 -59 -60 -84 -130 -84z" />
    <glyph glyph-name="scommaaccent" unicode="&#x219;" horiz-adv-x="406" 
d="M212 -70c38 0 58 -30 58 -66c0 -50 -37 -107 -87 -149l-38 29c26 32 46 63 46 100c0 32 -14 50 -36 60v7c16 12 38 19 57 19zM201 -11c-58 0 -124 12 -163 24v114h69v-61c25 -7 62 -13 92 -13c56 0 91 20 91 55c0 94 -246 46 -246 205c0 75 55 126 165 126
c54 0 111 -12 144 -23v-113h-70v64c-21 5 -52 8 -74 8c-58 0 -83 -23 -83 -54c0 -97 246 -44 246 -207c0 -70 -47 -125 -171 -125z" />
    <glyph glyph-name="scaron" unicode="&#x161;" horiz-adv-x="405" 
d="M201 -11c-58 0 -124 12 -163 24v114h69v-61c25 -7 62 -13 92 -13c56 0 91 20 91 55c0 94 -246 46 -246 205c0 75 55 126 165 126c54 0 111 -12 144 -23v-113h-70v64c-21 5 -52 8 -74 8c-58 0 -83 -23 -83 -54c0 -97 246 -44 246 -207c0 -70 -47 -125 -171 -125zM178 507
l-134 134l20 26l142 -78l142 78l20 -26l-135 -134h-55z" />
    <glyph glyph-name="tcommaaccent" unicode="&#x163;" horiz-adv-x="322" 
d="M196 -67c39 0 58 -29 58 -65c0 -51 -37 -108 -87 -149l-38 29c26 31 47 63 47 100c0 32 -15 49 -36 60v7c16 12 37 18 56 18zM216 -11c-78 0 -128 33 -128 126v244h-75v69h75v110h85v-110h127v-69h-127v-239c0 -49 24 -64 68 -64c26 0 49 5 66 11v-64
c-27 -8 -54 -14 -91 -14z" />
    <glyph glyph-name="uni021B" unicode="&#x21b;" horiz-adv-x="322" 
d="M196 -67c39 0 58 -29 58 -65c0 -51 -37 -108 -87 -149l-38 29c26 31 47 63 47 100c0 32 -15 49 -36 60v7c16 12 37 18 56 18zM216 -11c-78 0 -128 33 -128 126v244h-75v69h75v110h85v-110h127v-69h-127v-239c0 -49 24 -64 68 -64c26 0 49 5 66 11v-64
c-27 -8 -54 -14 -91 -14z" />
    <glyph glyph-name="tcaron" unicode="&#x165;" horiz-adv-x="322" 
d="M293 697c39 0 58 -29 58 -65c0 -51 -37 -108 -87 -149l-38 29c26 31 47 63 47 100c0 32 -15 49 -36 60v7c16 12 37 18 56 18zM216 -11c-78 0 -128 33 -128 126v244h-75v69h75v110h85v-110h127v-69h-127v-239c0 -49 24 -64 68 -64c26 0 49 5 66 11v-64
c-27 -8 -54 -14 -91 -14z" />
    <glyph glyph-name="tbar" unicode="&#x167;" horiz-adv-x="326" 
d="M27 201v60h63v98h-74v69h74v110h85v-110h128v-69h-128v-98h113v-60h-113v-81c0 -49 24 -64 68 -64c26 0 50 5 66 11v-64c-26 -8 -54 -14 -91 -14c-77 0 -128 33 -128 126v86h-63z" />
    <glyph glyph-name="thorn" unicode="&#xfe;" horiz-adv-x="506" 
d="M-9 -199v68h72v770h-72v68h158v-328c31 33 74 60 136 60c118 0 188 -95 188 -223c0 -131 -74 -227 -198 -227c-54 0 -95 19 -126 46v-166h85v-68h-243zM262 372c-50 0 -86 -25 -113 -53v-221c25 -24 59 -42 106 -42c87 0 130 66 130 158c0 84 -36 158 -123 158z" />
    <glyph glyph-name="ugrave" unicode="&#xf9;" horiz-adv-x="553" 
d="M213 -11c-77 0 -126 46 -126 136v235h-73v68h158v-294c0 -47 17 -76 67 -76c51 0 99 29 137 61v241h-78v68h164v-360h72v-68h-156v59c-45 -40 -101 -70 -165 -70zM300 505l-186 119l57 72l158 -156z" />
    <glyph glyph-name="uacute" unicode="&#xfa;" horiz-adv-x="553" 
d="M213 -11c-77 0 -126 46 -126 136v235h-73v68h158v-294c0 -47 17 -76 67 -76c51 0 99 29 137 61v241h-78v68h164v-360h72v-68h-156v59c-45 -40 -101 -70 -165 -70zM204 505l-29 35l158 156l56 -72z" />
    <glyph glyph-name="ucircumflex" unicode="&#xfb;" horiz-adv-x="553" 
d="M213 -11c-77 0 -126 46 -126 136v235h-73v68h158v-294c0 -47 17 -76 67 -76c51 0 99 29 137 61v241h-78v68h164v-360h72v-68h-156v59c-45 -40 -101 -70 -165 -70zM114 501l-20 27l134 133h56l134 -133l-20 -27l-142 78z" />
    <glyph glyph-name="udieresis" unicode="&#xfc;" horiz-adv-x="553" 
d="M213 -11c-77 0 -126 46 -126 136v235h-73v68h158v-294c0 -47 17 -76 67 -76c51 0 99 29 137 61v241h-78v68h164v-360h72v-68h-156v59c-45 -40 -101 -70 -165 -70zM162 509c-29 0 -52 23 -52 53c0 29 23 53 52 53c30 0 53 -24 53 -53c0 -30 -23 -53 -53 -53zM344 509
c-29 0 -52 23 -52 53c0 29 23 53 52 53c30 0 53 -24 53 -53c0 -30 -23 -53 -53 -53z" />
    <glyph glyph-name="utilde" unicode="&#x169;" horiz-adv-x="553" 
d="M213 -11c-77 0 -126 46 -126 136v235h-73v68h158v-294c0 -47 17 -76 67 -76c51 0 99 29 137 61v241h-78v68h164v-360h72v-68h-156v59c-45 -40 -101 -70 -165 -70zM123 508l-34 17c19 46 45 108 102 108c51 0 92 -51 138 -51c28 0 47 18 64 53l34 -18
c-20 -46 -50 -108 -105 -108c-50 0 -96 51 -136 51c-23 0 -44 -16 -63 -52z" />
    <glyph glyph-name="umacron" unicode="&#x16b;" horiz-adv-x="553" 
d="M213 -11c-77 0 -126 46 -126 136v235h-73v68h158v-294c0 -47 17 -76 67 -76c51 0 99 29 137 61v241h-78v68h164v-360h72v-68h-156v59c-45 -40 -101 -70 -165 -70zM116 522v65h270v-65h-270z" />
    <glyph glyph-name="ubreve" unicode="&#x16d;" horiz-adv-x="553" 
d="M213 -11c-77 0 -126 46 -126 136v235h-73v68h158v-294c0 -47 17 -76 67 -76c51 0 99 29 137 61v241h-78v68h164v-360h72v-68h-156v59c-45 -40 -101 -70 -165 -70zM254 509c-83 0 -141 56 -146 143h63c6 -51 38 -73 83 -73c44 0 76 22 82 73h63c-5 -87 -63 -143 -145 -143
z" />
    <glyph glyph-name="uring" unicode="&#x16f;" horiz-adv-x="553" 
d="M213 -11c-77 0 -126 46 -126 136v235h-73v68h158v-294c0 -47 17 -76 67 -76c51 0 99 29 137 61v241h-78v68h164v-360h72v-68h-156v59c-45 -40 -101 -70 -165 -70zM254 500c-74 0 -116 49 -116 108c0 58 42 107 116 107s117 -49 117 -107c0 -59 -43 -108 -117 -108z
M254 549c35 0 52 27 52 59c0 30 -17 58 -52 58c-34 0 -51 -28 -51 -58c0 -32 17 -59 51 -59z" />
    <glyph glyph-name="uhungarumlaut" unicode="&#x171;" horiz-adv-x="553" 
d="M213 -11c-77 0 -126 46 -126 136v235h-73v68h158v-294c0 -47 17 -76 67 -76c51 0 99 29 137 61v241h-78v68h164v-360h72v-68h-156v59c-45 -40 -101 -70 -165 -70zM142 504l-30 27l123 175l62 -58zM304 504l-31 27l123 175l62 -58z" />
    <glyph glyph-name="uogonek" unicode="&#x173;" horiz-adv-x="553" 
d="M462 -200c-55 0 -100 25 -100 81c0 52 38 91 79 119h-63v59c-45 -40 -101 -70 -165 -70c-77 0 -126 46 -126 136v235h-73v68h158v-294c0 -47 17 -76 67 -76c51 0 99 29 137 61v241h-78v68h164v-360h72v-68h-29c-30 -23 -66 -63 -66 -105c0 -29 17 -41 46 -41
c22 0 43 8 58 15l5 -51c-20 -9 -53 -18 -86 -18z" />
    <glyph glyph-name="wcircumflex" unicode="&#x175;" horiz-adv-x="734" 
d="M186 0l-120 362h-58v66h212v-66h-75l80 -257l106 323h75l108 -323l78 257h-74v66h207v-66h-60l-115 -362h-73l-111 311l-106 -311h-74zM226 501l-20 27l134 133h55l135 -133l-20 -27l-142 78z" />
    <glyph glyph-name="yacute" unicode="&#xfd;" horiz-adv-x="516" 
d="M151 -210c-42 0 -80 14 -109 31l25 58c20 -11 42 -23 73 -23c32 0 62 15 77 59l29 85h-65l-113 361h-57v67h215v-68h-70l99 -333l116 333h-69v68h209v-67h-56l-164 -461c-24 -69 -68 -110 -140 -110zM212 505l-28 35l157 156l57 -72z" />
    <glyph glyph-name="ydieresis" unicode="&#xff;" horiz-adv-x="516" 
d="M151 -210c-42 0 -80 14 -109 31l25 58c20 -11 42 -23 73 -23c32 0 62 15 77 59l29 85h-65l-113 361h-57v67h215v-68h-70l99 -333l116 333h-69v68h209v-67h-56l-164 -461c-24 -69 -68 -110 -140 -110zM173 509c-30 0 -53 23 -53 53c0 29 23 53 53 53c29 0 52 -24 52 -53
c0 -30 -23 -53 -52 -53zM355 509c-30 0 -53 23 -53 53c0 29 23 53 53 53c29 0 52 -24 52 -53c0 -30 -23 -53 -52 -53z" />
    <glyph glyph-name="ycircumflex" unicode="&#x177;" horiz-adv-x="516" 
d="M151 -210c-42 0 -80 14 -109 31l25 58c20 -11 42 -23 73 -23c32 0 62 15 77 59l29 85h-65l-113 361h-57v67h215v-68h-70l99 -333l116 333h-69v68h209v-67h-56l-164 -461c-24 -69 -68 -110 -140 -110zM121 501l-21 27l135 133h55l135 -133l-20 -27l-143 78z" />
    <glyph glyph-name="zcaron" unicode="&#x17e;" horiz-adv-x="434" 
d="M37 0v55l246 312h-170v-81h-72v142h348v-53l-248 -313h185v87h71v-149h-360zM189 507l-134 134l20 26l142 -78l142 78l21 -26l-135 -134h-56z" />
    <glyph glyph-name="zacute" unicode="&#x17a;" horiz-adv-x="434" 
d="M37 0v55l246 312h-170v-81h-72v142h348v-53l-248 -313h185v87h71v-149h-360zM162 505l-28 35l157 156l57 -72z" />
    <glyph glyph-name="zdotaccent" unicode="&#x17c;" horiz-adv-x="434" 
d="M37 0v55l246 312h-170v-81h-72v142h348v-53l-248 -313h185v87h71v-149h-360zM218 509c-32 0 -57 26 -57 57c0 32 25 57 57 57s57 -25 57 -57c0 -31 -25 -57 -57 -57z" />
    <glyph glyph-name="longs" unicode="&#x17f;" horiz-adv-x="297" 
d="M36 0v68h76v291h-86v69h86v143c0 107 66 147 154 147c27 0 53 -4 79 -8v-64c-18 3 -39 5 -58 5c-55 0 -90 -20 -90 -82v-501h92v-68h-253z" />
    <glyph glyph-name="germandbls" unicode="&#xdf;" horiz-adv-x="567" 
d="M35 0v68h76v291h-85v69h85v96c0 113 64 194 196 194c104 0 180 -50 180 -152c0 -99 -74 -131 -74 -192c0 -79 124 -129 124 -251c0 -87 -62 -131 -158 -131c-38 0 -77 7 -111 18v68c28 -12 64 -21 99 -21c42 0 84 14 84 68c0 92 -124 135 -124 241c0 83 77 110 77 194
c0 58 -36 92 -98 92c-83 0 -110 -62 -110 -124v-528h-161z" />
    <glyph glyph-name="dieresis" unicode="&#xa8;" horiz-adv-x="415" 
d="M117 509c-29 0 -53 23 -53 53c0 29 24 53 53 53s53 -24 53 -53c0 -30 -24 -53 -53 -53zM299 509c-29 0 -53 23 -53 53c0 29 24 53 53 53s53 -24 53 -53c0 -30 -24 -53 -53 -53z" />
    <glyph glyph-name="grave" unicode="`" horiz-adv-x="331" 
d="M244 505l-186 119l57 72l157 -156z" />
    <glyph glyph-name="tilde" unicode="&#x2dc;" horiz-adv-x="464" 
d="M96 508l-34 17c19 46 45 108 102 108c51 0 92 -51 138 -51c28 0 47 18 64 53l34 -18c-20 -46 -50 -108 -105 -108c-50 0 -96 51 -136 51c-23 0 -44 -16 -63 -52z" />
    <glyph glyph-name="circumflex" unicode="&#x2c6;" horiz-adv-x="434" 
d="M78 501l-20 27l134 133h55l135 -133l-20 -27l-142 78z" />
    <glyph glyph-name="acute" unicode="&#xb4;" horiz-adv-x="335" 
d="M83 505l-29 35l158 156l57 -72z" />
    <glyph glyph-name="ring" unicode="&#x2da;" horiz-adv-x="357" 
d="M179 500c-74 0 -116 49 -116 108c0 58 42 107 116 107s116 -49 116 -107c0 -59 -42 -108 -116 -108zM179 549c34 0 52 27 52 59c0 30 -18 58 -52 58s-51 -28 -51 -58c0 -32 17 -59 51 -59z" />
    <glyph glyph-name="cedilla" unicode="&#xb8;" horiz-adv-x="298" 
d="M108 -200c-20 0 -47 2 -64 5l12 51c14 -3 32 -5 49 -5c31 0 59 7 59 34c0 33 -40 38 -76 38v19l48 95l45 -12l-28 -63c44 -3 86 -28 86 -78c0 -59 -61 -84 -131 -84z" />
    <glyph glyph-name="caron" unicode="&#x2c7;" horiz-adv-x="439" 
d="M190 507l-135 134l21 26l141 -78l143 78l20 -26l-135 -134h-55z" />
    <glyph glyph-name="ogonek" unicode="&#x2db;" horiz-adv-x="286" 
d="M152 -200c-55 0 -100 25 -100 81c0 73 73 119 134 151l27 -19c-37 -24 -84 -71 -84 -118c0 -29 17 -41 45 -41c22 0 44 8 59 15l5 -51c-21 -9 -53 -18 -86 -18z" />
    <glyph glyph-name="breve" unicode="&#x2d8;" horiz-adv-x="377" 
d="M186 509c-82 0 -140 56 -146 143h63c7 -51 38 -73 83 -73s76 22 83 73h63c-6 -87 -64 -143 -146 -143z" />
    <glyph glyph-name="hungarumlaut" unicode="&#x2dd;" horiz-adv-x="488" 
d="M95 504l-31 27l123 175l62 -58zM256 504l-30 27l122 175l62 -58z" />
    <glyph glyph-name="dotaccent" unicode="&#x2d9;" horiz-adv-x="240" 
d="M119 509c-31 0 -57 26 -57 57c0 32 26 57 57 57c32 0 57 -25 57 -57c0 -31 -25 -57 -57 -57z" />
    <glyph glyph-name="macron" unicode="&#xaf;" horiz-adv-x="411" 
d="M69 522v65h270v-65h-270z" />
    <glyph glyph-name="a.alt" horiz-adv-x="529" 
d="M225 -11c-120 0 -191 96 -191 224c0 133 78 226 196 226c65 0 105 -28 132 -53v42h81v-360h71v-68h-150v52c-32 -36 -76 -63 -139 -63zM246 56c48 0 84 23 112 49v219c-28 24 -61 48 -110 48c-76 0 -126 -57 -126 -157c0 -85 36 -159 124 -159z" />
    <glyph glyph-name="agrave.alt" horiz-adv-x="529" 
d="M225 -11c-120 0 -191 96 -191 224c0 133 78 226 196 226c65 0 105 -28 132 -53v42h81v-360h71v-68h-150v52c-32 -36 -76 -63 -139 -63zM246 56c48 0 84 23 112 49v219c-28 24 -61 48 -110 48c-76 0 -126 -57 -126 -157c0 -85 36 -159 124 -159zM312 505l-186 119l57 72
l157 -156z" />
    <glyph glyph-name="aacute.alt" horiz-adv-x="529" 
d="M225 -11c-120 0 -191 96 -191 224c0 133 78 226 196 226c65 0 105 -28 132 -53v42h81v-360h71v-68h-150v52c-32 -36 -76 -63 -139 -63zM246 56c48 0 84 23 112 49v219c-28 24 -61 48 -110 48c-76 0 -126 -57 -126 -157c0 -85 36 -159 124 -159zM194 505l-28 35l157 156
l57 -72z" />
    <glyph glyph-name="acircumflex.alt" horiz-adv-x="529" 
d="M225 -11c-120 0 -191 96 -191 224c0 133 78 226 196 226c65 0 105 -28 132 -53v42h81v-360h71v-68h-150v52c-32 -36 -76 -63 -139 -63zM246 56c48 0 84 23 112 49v219c-28 24 -61 48 -110 48c-76 0 -126 -57 -126 -157c0 -85 36 -159 124 -159zM114 501l-20 27l134 133
h55l135 -133l-20 -27l-142 78z" />
    <glyph glyph-name="atilde.alt" horiz-adv-x="529" 
d="M225 -11c-120 0 -191 96 -191 224c0 133 78 226 196 226c65 0 105 -28 132 -53v42h81v-360h71v-68h-150v52c-32 -36 -76 -63 -139 -63zM246 56c48 0 84 23 112 49v219c-28 24 -61 48 -110 48c-76 0 -126 -57 -126 -157c0 -85 36 -159 124 -159zM116 508l-34 17
c18 46 44 108 101 108c52 0 92 -51 138 -51c28 0 47 18 65 53l33 -18c-19 -46 -49 -108 -104 -108c-50 0 -96 51 -137 51c-23 0 -44 -16 -62 -52z" />
    <glyph glyph-name="adieresis.alt" horiz-adv-x="529" 
d="M225 -11c-120 0 -191 96 -191 224c0 133 78 226 196 226c65 0 105 -28 132 -53v42h81v-360h71v-68h-150v52c-32 -36 -76 -63 -139 -63zM246 56c48 0 84 23 112 49v219c-28 24 -61 48 -110 48c-76 0 -126 -57 -126 -157c0 -85 36 -159 124 -159zM160 509
c-29 0 -52 23 -52 53c0 29 23 53 52 53c30 0 53 -24 53 -53c0 -30 -23 -53 -53 -53zM342 509c-29 0 -52 23 -52 53c0 29 23 53 52 53c30 0 53 -24 53 -53c0 -30 -23 -53 -53 -53z" />
    <glyph glyph-name="aring.alt" horiz-adv-x="529" 
d="M225 -11c-120 0 -191 96 -191 224c0 133 78 226 196 226c65 0 105 -28 132 -53v42h81v-360h71v-68h-150v52c-32 -36 -76 -63 -139 -63zM246 56c48 0 84 23 112 49v219c-28 24 -61 48 -110 48c-76 0 -126 -57 -126 -157c0 -85 36 -159 124 -159zM251 500
c-74 0 -116 49 -116 108c0 58 42 107 116 107s116 -49 116 -107c0 -59 -42 -108 -116 -108zM251 549c34 0 51 27 51 59c0 30 -17 58 -51 58s-51 -28 -51 -58c0 -32 17 -59 51 -59z" />
    <glyph glyph-name="amacron.alt" horiz-adv-x="529" 
d="M225 -11c-120 0 -191 96 -191 224c0 133 78 226 196 226c65 0 105 -28 132 -53v42h81v-360h71v-68h-150v52c-32 -36 -76 -63 -139 -63zM246 56c48 0 84 23 112 49v219c-28 24 -61 48 -110 48c-76 0 -126 -57 -126 -157c0 -85 36 -159 124 -159zM115 522v65h270v-65h-270z
" />
    <glyph glyph-name="abreve.alt" horiz-adv-x="529" 
d="M225 -11c-120 0 -191 96 -191 224c0 133 78 226 196 226c65 0 105 -28 132 -53v42h81v-360h71v-68h-150v52c-32 -36 -76 -63 -139 -63zM246 56c48 0 84 23 112 49v219c-28 24 -61 48 -110 48c-76 0 -126 -57 -126 -157c0 -85 36 -159 124 -159zM249 509
c-82 0 -140 56 -146 143h64c6 -51 37 -73 82 -73s77 22 83 73h63c-5 -87 -64 -143 -146 -143z" />
    <glyph glyph-name="aogonek.alt" horiz-adv-x="529" 
d="M440 -200c-55 0 -99 25 -99 81c0 52 37 91 79 119h-56v52c-32 -36 -76 -63 -139 -63c-120 0 -191 96 -191 224c0 133 78 226 196 226c65 0 105 -28 132 -53v42h81v-360h71v-68h-30c-30 -23 -67 -63 -67 -105c0 -29 18 -41 46 -41c22 0 44 8 58 15l6 -51
c-21 -9 -53 -18 -87 -18zM246 56c48 0 84 23 112 49v219c-28 24 -61 48 -110 48c-76 0 -126 -57 -126 -157c0 -85 36 -159 124 -159z" />
    <glyph glyph-name="g.alt" horiz-adv-x="530" 
d="M247 -210c-56 0 -115 12 -159 28v68c38 -15 91 -29 145 -29c81 0 122 32 122 96v97c-32 -28 -73 -52 -131 -52c-113 0 -189 87 -189 220c0 139 82 221 196 221c61 0 102 -25 129 -49v38h150v-68h-70v-410c0 -111 -79 -160 -193 -160zM250 372c-82 0 -127 -56 -127 -150
c0 -88 40 -157 124 -157c44 0 81 21 108 45v218c-25 24 -57 44 -105 44z" />
    <glyph glyph-name="gcircumflex.alt" horiz-adv-x="530" 
d="M247 -210c-56 0 -115 12 -159 28v68c38 -15 91 -29 145 -29c81 0 122 32 122 96v97c-32 -28 -73 -52 -131 -52c-113 0 -189 87 -189 220c0 139 82 221 196 221c61 0 102 -25 129 -49v38h150v-68h-70v-410c0 -111 -79 -160 -193 -160zM250 372c-82 0 -127 -56 -127 -150
c0 -88 40 -157 124 -157c44 0 81 21 108 45v218c-25 24 -57 44 -105 44zM112 501l-21 27l135 133h55l135 -133l-20 -27l-143 78z" />
    <glyph glyph-name="gbreve.alt" horiz-adv-x="530" 
d="M247 -210c-56 0 -115 12 -159 28v68c38 -15 91 -29 145 -29c81 0 122 32 122 96v97c-32 -28 -73 -52 -131 -52c-113 0 -189 87 -189 220c0 139 82 221 196 221c61 0 102 -25 129 -49v38h150v-68h-70v-410c0 -111 -79 -160 -193 -160zM250 372c-82 0 -127 -56 -127 -150
c0 -88 40 -157 124 -157c44 0 81 21 108 45v218c-25 24 -57 44 -105 44zM249 509c-82 0 -140 56 -145 143h63c6 -51 38 -73 82 -73c45 0 77 22 83 73h63c-5 -87 -63 -143 -146 -143z" />
    <glyph glyph-name="gdotaccent.alt" horiz-adv-x="530" 
d="M247 -210c-56 0 -115 12 -159 28v68c38 -15 91 -29 145 -29c81 0 122 32 122 96v97c-32 -28 -73 -52 -131 -52c-113 0 -189 87 -189 220c0 139 82 221 196 221c61 0 102 -25 129 -49v38h150v-68h-70v-410c0 -111 -79 -160 -193 -160zM250 372c-82 0 -127 -56 -127 -150
c0 -88 40 -157 124 -157c44 0 81 21 108 45v218c-25 24 -57 44 -105 44zM249 509c-32 0 -57 26 -57 57c0 32 25 57 57 57c31 0 57 -25 57 -57c0 -31 -26 -57 -57 -57z" />
    <glyph glyph-name="uni0123.alt" horiz-adv-x="530" 
d="M243 503c-38 0 -58 29 -58 65c0 51 37 108 87 149l38 -29c-26 -31 -46 -63 -46 -100c0 -32 14 -49 36 -60v-7c-16 -12 -38 -18 -57 -18zM247 -210c-56 0 -115 12 -159 28v68c38 -15 91 -29 145 -29c81 0 122 32 122 96v97c-32 -28 -73 -52 -131 -52
c-113 0 -189 87 -189 220c0 139 82 221 196 221c61 0 102 -25 129 -49v38h150v-68h-70v-410c0 -111 -79 -160 -193 -160zM250 372c-82 0 -127 -56 -127 -150c0 -88 40 -157 124 -157c44 0 81 21 108 45v218c-25 24 -57 44 -105 44z" />
    <glyph glyph-name="ampersand.alt" horiz-adv-x="541" 
d="M252 -11c-120 0 -212 59 -212 173c0 83 49 132 123 155c-66 27 -103 75 -103 142c0 101 85 159 212 159c59 0 125 -13 177 -29v-128h-77v78c-24 6 -61 12 -96 12c-78 0 -131 -29 -131 -98c0 -67 52 -107 137 -107h237v-64h-54v-107c0 -107 -76 -186 -213 -186zM252 57
c91 0 132 53 132 118v107h-103c-92 0 -155 -35 -155 -117c0 -73 51 -108 126 -108z" />
    <glyph glyph-name="Agrave" unicode="&#xc0;" horiz-adv-x="682" 
d="M-1 0v71h78l189 467h-87v71h214l218 -538h79v-71h-261v71h91l-47 117h-263l-46 -117h90v-71h-255zM238 259h208l-104 265zM384 666l-190 122l57 73l162 -160z" />
    <glyph glyph-name="Aacute" unicode="&#xc1;" horiz-adv-x="682" 
d="M-1 0v71h78l189 467h-87v71h214l218 -538h79v-71h-261v71h91l-47 117h-263l-46 -117h90v-71h-255zM238 259h208l-104 265zM261 666l-28 35l162 160l57 -73z" />
    <glyph glyph-name="Acircumflex" unicode="&#xc2;" horiz-adv-x="682" 
d="M-1 0v71h78l189 467h-87v71h214l218 -538h79v-71h-261v71h91l-47 117h-263l-46 -117h90v-71h-255zM238 259h208l-104 265zM180 666l-20 26l137 137h56l139 -137l-21 -26l-146 80z" />
    <glyph glyph-name="Atilde" unicode="&#xc3;" horiz-adv-x="682" 
d="M-1 0v71h78l189 467h-87v71h214l218 -538h79v-71h-261v71h91l-47 117h-263l-46 -117h90v-71h-255zM238 259h208l-104 265zM185 669l-33 16c18 47 43 111 102 111c53 0 96 -51 142 -51c29 0 49 19 67 54l33 -18c-20 -46 -49 -110 -106 -110c-51 0 -100 51 -140 51
c-24 0 -47 -18 -65 -53z" />
    <glyph glyph-name="Adieresis" unicode="&#xc4;" horiz-adv-x="682" 
d="M-1 0v71h78l189 467h-87v71h214l218 -538h79v-71h-261v71h91l-47 117h-263l-46 -117h90v-71h-255zM238 259h208l-104 265zM237 671c-30 0 -54 23 -54 53s24 54 54 54c29 0 53 -24 53 -54s-24 -53 -53 -53zM419 671c-30 0 -54 23 -54 53s24 54 54 54s53 -24 53 -54
s-23 -53 -53 -53z" />
    <glyph glyph-name="Aring" unicode="&#xc5;" horiz-adv-x="682" 
d="M-1 0v71h78l189 467h-87v71h214l218 -538h79v-71h-261v71h91l-47 117h-263l-46 -117h90v-71h-255zM238 259h208l-104 265zM328 659c-74 0 -116 49 -116 108c0 58 42 107 116 107s116 -49 116 -107c0 -59 -42 -108 -116 -108zM328 708c34 0 52 27 52 59
c0 30 -18 58 -52 58s-51 -28 -51 -58c0 -32 17 -59 51 -59z" />
    <glyph glyph-name="Amacron" unicode="&#x100;" horiz-adv-x="682" 
d="M-1 0v71h78l189 467h-87v71h214l218 -538h79v-71h-261v71h91l-47 117h-263l-46 -117h90v-71h-255zM238 259h208l-104 265zM187 675v65h270v-65h-270z" />
    <glyph glyph-name="Abreve" unicode="&#x102;" horiz-adv-x="682" 
d="M-1 0v71h78l189 467h-87v71h214l218 -538h79v-71h-261v71h91l-47 117h-263l-46 -117h90v-71h-255zM238 259h208l-104 265zM330 663c-84 0 -144 57 -149 146h63c7 -53 40 -76 86 -76c45 0 78 23 84 76h64c-5 -89 -65 -146 -148 -146z" />
    <glyph glyph-name="Aogonek" unicode="&#x104;" horiz-adv-x="682" 
d="M590 -204c-57 0 -103 26 -103 83c0 52 37 92 80 121h-138v71h91l-47 117h-263l-46 -117h90v-71h-255v71h78l189 467h-87v71h214l218 -538h79v-71h-59c-32 -26 -66 -65 -66 -107c0 -29 18 -42 48 -42c22 0 44 8 59 15l6 -52c-22 -9 -54 -18 -88 -18zM238 259h208l-104 265
z" />
    <glyph glyph-name="AE" unicode="&#xc6;" horiz-adv-x="925" 
d="M-5 0v72h74l312 467h-71v70h566v-167h-81v96h-220v-196h237v-71h-237v-200h222v98h82v-169h-478v71h88v122h-246l-81 -122h71v-71h-238zM471 538l-182 -275h200v275h-18z" />
    <glyph glyph-name="AEacute" unicode="&#x1fc;" horiz-adv-x="925" 
d="M-5 0v72h74l312 467h-71v70h566v-167h-81v96h-220v-196h237v-71h-237v-200h222v98h82v-169h-478v71h88v122h-246l-81 -122h71v-71h-238zM471 538l-182 -275h200v275h-18zM533 666l-28 35l162 160l57 -73z" />
    <glyph glyph-name="Ccedilla" unicode="&#xc7;" horiz-adv-x="619" 
d="M322 -200c-21 0 -47 2 -65 5l12 51c14 -3 33 -5 49 -5c31 0 60 7 60 34c0 33 -40 38 -76 38v19l24 48c-172 14 -288 127 -288 312c0 194 127 319 324 319c90 0 174 -26 218 -47v-160h-84v112c-35 12 -85 21 -129 21c-139 0 -238 -85 -238 -241c0 -163 109 -242 241 -242
c81 0 156 30 210 61v-84c-42 -23 -114 -50 -202 -52l-11 -27c43 -3 85 -28 85 -78c0 -59 -60 -84 -130 -84z" />
    <glyph glyph-name="Cacute" unicode="&#x106;" horiz-adv-x="619" 
d="M364 -12c-192 0 -325 116 -325 314c0 194 126 319 324 319c90 0 174 -26 218 -47v-160h-85v112c-34 12 -84 21 -129 21c-138 0 -237 -85 -237 -241c0 -163 109 -242 241 -242c80 0 156 30 210 61v-84c-45 -24 -122 -53 -217 -53zM286 669l-28 35l161 161l58 -73z" />
    <glyph glyph-name="Ccircumflex" unicode="&#x108;" horiz-adv-x="619" 
d="M364 -12c-192 0 -325 116 -325 314c0 194 126 319 324 319c90 0 174 -26 218 -47v-160h-85v112c-34 12 -84 21 -129 21c-138 0 -237 -85 -237 -241c0 -163 109 -242 241 -242c80 0 156 30 210 61v-84c-45 -24 -122 -53 -217 -53zM209 669l-21 26l138 137h56l138 -137
l-20 -26l-146 80z" />
    <glyph glyph-name="Cdotaccent" unicode="&#x10a;" horiz-adv-x="619" 
d="M364 -12c-192 0 -325 116 -325 314c0 194 126 319 324 319c90 0 174 -26 218 -47v-160h-85v112c-34 12 -84 21 -129 21c-138 0 -237 -85 -237 -241c0 -163 109 -242 241 -242c80 0 156 30 210 61v-84c-45 -24 -122 -53 -217 -53zM350 672c-32 0 -58 26 -58 58
s26 57 58 57s57 -25 57 -57s-25 -58 -57 -58z" />
    <glyph glyph-name="Ccaron" unicode="&#x10c;" horiz-adv-x="619" 
d="M364 -12c-192 0 -325 116 -325 314c0 194 126 319 324 319c90 0 174 -26 218 -47v-160h-85v112c-34 12 -84 21 -129 21c-138 0 -237 -85 -237 -241c0 -163 109 -242 241 -242c80 0 156 30 210 61v-84c-45 -24 -122 -53 -217 -53zM323 670l-138 137l20 27l145 -81l146 81
l21 -27l-139 -137h-55z" />
    <glyph glyph-name="Dcaron" unicode="&#x10e;" horiz-adv-x="684" 
d="M38 0v71h90v467h-90v71h282c198 0 323 -112 323 -305c0 -192 -125 -304 -323 -304h-282zM216 71h104c149 0 233 86 233 233c0 148 -84 234 -233 234h-104v-467zM306 668l-138 137l21 27l145 -81l146 81l20 -27l-138 -137h-56z" />
    <glyph glyph-name="Dcroat" unicode="&#x110;" horiz-adv-x="684" 
d="M46 271v72h82v195h-89v71h281c199 0 323 -112 323 -305c0 -192 -124 -304 -323 -304h-281v71h89v200h-82zM216 71h105c148 0 232 86 232 233c0 148 -84 234 -232 234h-105v-195h169v-72h-169v-200z" />
    <glyph glyph-name="Egrave" unicode="&#xc8;" horiz-adv-x="581" 
d="M38 0v71h90v467h-90v71h493v-171h-81v100h-234v-196h252v-71h-252v-200h236v103h82v-174h-496zM357 666l-190 122l58 73l161 -160z" />
    <glyph glyph-name="Eacute" unicode="&#xc9;" horiz-adv-x="581" 
d="M38 0v71h90v467h-90v71h493v-171h-81v100h-234v-196h252v-71h-252v-200h236v103h82v-174h-496zM246 666l-28 35l161 160l58 -73z" />
    <glyph glyph-name="Ecircumflex" unicode="&#xca;" horiz-adv-x="581" 
d="M38 0v71h90v467h-90v71h493v-171h-81v100h-234v-196h252v-71h-252v-200h236v103h82v-174h-496zM158 666l-20 26l138 137h55l139 -137l-21 -26l-146 80z" />
    <glyph glyph-name="Edieresis" unicode="&#xcb;" horiz-adv-x="581" 
d="M38 0v71h90v467h-90v71h493v-171h-81v100h-234v-196h252v-71h-252v-200h236v103h82v-174h-496zM215 671c-30 0 -54 23 -54 53s24 54 54 54s53 -24 53 -54s-23 -53 -53 -53zM397 671c-30 0 -54 23 -54 53s24 54 54 54s53 -24 53 -54s-23 -53 -53 -53z" />
    <glyph glyph-name="Emacron" unicode="&#x112;" horiz-adv-x="581" 
d="M38 0v71h90v467h-90v71h493v-171h-81v100h-234v-196h252v-71h-252v-200h236v103h82v-174h-496zM173 675v65h270v-65h-270z" />
    <glyph glyph-name="Ebreve" unicode="&#x114;" horiz-adv-x="581" 
d="M38 0v71h90v467h-90v71h493v-171h-81v100h-234v-196h252v-71h-252v-200h236v103h82v-174h-496zM308 663c-84 0 -144 57 -149 146h63c7 -53 40 -76 86 -76c45 0 78 23 84 76h64c-5 -89 -65 -146 -148 -146z" />
    <glyph glyph-name="Edotaccent" unicode="&#x116;" horiz-adv-x="581" 
d="M38 0v71h90v467h-90v71h493v-171h-81v100h-234v-196h252v-71h-252v-200h236v103h82v-174h-496zM309 667c-32 0 -57 26 -57 58s25 57 57 57s58 -25 58 -57s-26 -58 -58 -58z" />
    <glyph glyph-name="Eogonek" unicode="&#x118;" horiz-adv-x="581" 
d="M38 0v71h90v467h-90v71h493v-171h-81v100h-234v-196h252v-71h-252v-200h236v103h82v-174h-29c-32 -26 -66 -65 -66 -107c0 -29 18 -42 48 -42c22 0 45 8 60 15l5 -52c-21 -9 -54 -18 -88 -18c-57 0 -103 26 -103 83c0 52 38 92 80 121h-403z" />
    <glyph glyph-name="Ecaron" unicode="&#x11a;" horiz-adv-x="581" 
d="M38 0v71h90v467h-90v71h493v-171h-81v100h-234v-196h252v-71h-252v-200h236v103h82v-174h-496zM282 668l-138 137l20 27l146 -81l145 81l21 -27l-139 -137h-55z" />
    <glyph glyph-name="Eth" unicode="&#xd0;" horiz-adv-x="684" 
d="M46 271v72h82v195h-89v71h281c199 0 323 -112 323 -305c0 -192 -124 -304 -323 -304h-281v71h89v200h-82zM216 71h105c148 0 232 86 232 233c0 148 -84 234 -232 234h-105v-195h169v-72h-169v-200z" />
    <glyph glyph-name="Gcircumflex" unicode="&#x11c;" horiz-adv-x="684" 
d="M368 -12c-203 0 -328 120 -328 313c0 188 118 320 329 320c94 0 181 -26 231 -50v-147h-82v99c-39 12 -92 24 -146 24c-154 0 -244 -95 -244 -244c0 -150 90 -240 242 -240c57 0 108 13 151 29v158h-142v70h280v-70h-56v-204c-47 -25 -129 -58 -235 -58zM209 669l-20 26
l138 137h55l139 -137l-21 -26l-145 80z" />
    <glyph glyph-name="Gbreve" unicode="&#x11e;" horiz-adv-x="684" 
d="M368 -12c-203 0 -328 120 -328 313c0 188 118 320 329 320c94 0 181 -26 231 -50v-147h-82v99c-39 12 -92 24 -146 24c-154 0 -244 -95 -244 -244c0 -150 90 -240 242 -240c57 0 108 13 151 29v158h-142v70h280v-70h-56v-204c-47 -25 -129 -58 -235 -58zM351 666
c-84 0 -144 58 -149 147h64c6 -53 39 -76 85 -76c45 0 78 23 84 76h65c-6 -89 -66 -147 -149 -147z" />
    <glyph glyph-name="Gdotaccent" unicode="&#x120;" horiz-adv-x="684" 
d="M368 -12c-203 0 -328 120 -328 313c0 188 118 320 329 320c94 0 181 -26 231 -50v-147h-82v99c-39 12 -92 24 -146 24c-154 0 -244 -95 -244 -244c0 -150 90 -240 242 -240c57 0 108 13 151 29v158h-142v70h280v-70h-56v-204c-47 -25 -129 -58 -235 -58zM356 672
c-32 0 -57 26 -57 58s25 57 57 57s58 -25 58 -57s-26 -58 -58 -58z" />
    <glyph glyph-name="Gcommaaccent" unicode="&#x122;" horiz-adv-x="684" 
d="M357 -70c39 0 58 -30 58 -66c0 -50 -37 -107 -87 -149l-38 29c26 32 46 63 46 100c0 32 -14 50 -35 60v7c16 12 37 19 56 19zM368 -12c-203 0 -328 120 -328 313c0 188 118 320 329 320c94 0 181 -26 231 -50v-147h-82v99c-39 12 -92 24 -146 24
c-154 0 -244 -95 -244 -244c0 -150 90 -240 242 -240c57 0 108 13 151 29v158h-142v70h280v-70h-56v-204c-47 -25 -129 -58 -235 -58z" />
    <glyph glyph-name="Hcircumflex" unicode="&#x124;" horiz-adv-x="758" 
d="M38 0v71h90v467h-90v71h268v-71h-90v-195h326v195h-90v71h267v-71h-89v-467h89v-71h-267v71h90v198h-326v-198h90v-71h-268zM233 666l-20 26l138 137h55l139 -137l-21 -26l-146 80z" />
    <glyph glyph-name="Hbar" unicode="&#x126;" horiz-adv-x="758" 
d="M48 418v48h80v72h-89v71h267v-71h-90v-72h326v72h-90v71h268v-71h-90v-72h81v-48h-81v-347h90v-71h-268v71h90v198h-326v-198h90v-71h-267v71h89v347h-80zM216 343h326v78h-326v-78z" />
    <glyph glyph-name="Igrave" unicode="&#xcc;" horiz-adv-x="343" 
d="M38 0v71h90v467h-90v71h267v-71h-89v-467h89v-71h-267zM239 666l-190 122l58 73l161 -160z" />
    <glyph glyph-name="Iacute" unicode="&#xcd;" horiz-adv-x="343" 
d="M38 0v71h90v467h-90v71h267v-71h-89v-467h89v-71h-267zM108 666l-29 35l162 160l57 -73z" />
    <glyph glyph-name="Icircumflex" unicode="&#xce;" horiz-adv-x="343" 
d="M38 0v71h90v467h-90v71h267v-71h-89v-467h89v-71h-267zM26 666l-20 26l138 137h55l139 -137l-21 -26l-145 80z" />
    <glyph glyph-name="Idieresis" unicode="&#xcf;" horiz-adv-x="343" 
d="M38 0v71h90v467h-90v71h267v-71h-89v-467h89v-71h-267zM81 671c-30 0 -54 23 -54 53s24 54 54 54c29 0 53 -24 53 -54s-24 -53 -53 -53zM263 671c-30 0 -54 23 -54 53s24 54 54 54c29 0 53 -24 53 -54s-24 -53 -53 -53z" />
    <glyph glyph-name="Itilde" unicode="&#x128;" horiz-adv-x="343" 
d="M38 0v71h90v467h-90v71h267v-71h-89v-467h89v-71h-267zM30 669l-33 16c18 47 43 111 102 111c53 0 96 -51 142 -51c29 0 49 19 67 54l33 -18c-20 -46 -49 -110 -106 -110c-51 0 -100 51 -140 51c-24 0 -47 -18 -65 -53z" />
    <glyph glyph-name="Imacron" unicode="&#x12a;" horiz-adv-x="343" 
d="M38 0v71h90v467h-90v71h267v-71h-89v-467h89v-71h-267zM37 675v65h270v-65h-270z" />
    <glyph glyph-name="Ibreve" unicode="&#x12c;" horiz-adv-x="343" 
d="M38 0v71h90v467h-90v71h267v-71h-89v-467h89v-71h-267zM172 663c-84 0 -144 57 -149 146h63c7 -53 40 -76 86 -76c45 0 78 23 84 76h65c-6 -89 -66 -146 -149 -146z" />
    <glyph glyph-name="Iogonek" unicode="&#x12e;" horiz-adv-x="343" 
d="M38 0v71h90v467h-90v71h267v-71h-89v-467h89v-71h-74c-33 -26 -67 -65 -67 -107c0 -29 18 -42 48 -42c22 0 45 8 60 15l5 -52c-21 -9 -54 -18 -88 -18c-57 0 -102 26 -102 83c0 52 37 92 79 121h-128z" />
    <glyph glyph-name="Idotaccent" unicode="&#x130;" horiz-adv-x="343" 
d="M38 0v71h90v467h-90v71h267v-71h-89v-467h89v-71h-267zM172 667c-32 0 -58 26 -58 58s26 57 58 57s57 -25 57 -57s-25 -58 -57 -58z" />
    <glyph glyph-name="Jcircumflex" unicode="&#x134;" horiz-adv-x="317" 
d="M48 -173l-29 61c39 21 95 56 95 121v529h-83v71h254v-71h-83v-530c0 -116 -77 -150 -154 -181zM12 666l-20 26l138 137h56l138 -137l-21 -26l-145 80z" />
    <glyph glyph-name="Kcommaaccent" unicode="&#x136;" horiz-adv-x="676" 
d="M383 -67c38 0 58 -29 58 -65c0 -51 -37 -108 -88 -149l-37 29c26 31 46 63 46 100c0 32 -14 49 -36 60v7c16 12 38 18 57 18zM517 0l-261 302v6l221 231h-79v70h256v-71h-77l-215 -228l209 -239h92v-71h-146zM38 0v71h90v467h-90v71h265v-71h-87v-467h95v-71h-273z" />
    <glyph glyph-name="Lacute" unicode="&#x139;" horiz-adv-x="551" 
d="M38 0v71h90v467h-90v71h280v-71h-102v-467h236v109h82v-180h-496zM140 666l-29 35l162 160l57 -73z" />
    <glyph glyph-name="Lcommaaccent" unicode="&#x13b;" horiz-adv-x="551" 
d="M319 -67c39 0 58 -29 58 -65c0 -51 -37 -108 -87 -149l-38 29c26 31 47 63 47 100c0 32 -15 49 -36 60v7c16 12 37 18 56 18zM38 0v71h90v467h-90v71h280v-71h-102v-467h236v109h82v-180h-496z" />
    <glyph glyph-name="Lcaron" unicode="&#x13d;" horiz-adv-x="554" 
d="M435 617c38 0 58 -30 58 -66c0 -50 -37 -108 -88 -149l-37 29c26 31 46 63 46 100c0 32 -15 50 -36 60v7c16 12 38 19 57 19zM38 0v71h90v467h-90v71h280v-71h-102v-467h236v109h82v-180h-496z" />
    <glyph glyph-name="Ldot" unicode="&#x13f;" horiz-adv-x="552" 
d="M38 0v71h90v467h-90v71h280v-71h-102v-467h236v109h82v-180h-496zM421 275c-32 0 -58 26 -58 58s26 57 58 57s57 -25 57 -57s-25 -58 -57 -58z" />
    <glyph glyph-name="Lslash" unicode="&#x141;" horiz-adv-x="552" 
d="M58 217l-25 50l96 48v223h-90v71h280v-71h-102v-180l167 86l25 -50l-192 -98v-225h236v109h82v-180h-496v71h90v182z" />
    <glyph glyph-name="Ntilde" unicode="&#xd1;" horiz-adv-x="748" 
d="M38 0v71h90v467h-90v71h180l329 -467v396h-89v71h262v-71h-89v-538h-79l-341 481v-410h89v-71h-262zM237 669l-33 16c19 47 44 111 103 111c53 0 95 -51 142 -51c29 0 49 19 66 54l34 -18c-20 -46 -49 -110 -106 -110c-51 0 -100 51 -140 51c-25 0 -47 -18 -66 -53z" />
    <glyph glyph-name="Nacute" unicode="&#x143;" horiz-adv-x="748" 
d="M38 0v71h90v467h-90v71h180l329 -467v396h-89v71h262v-71h-89v-538h-79l-341 481v-410h89v-71h-262zM327 666l-28 35l162 160l57 -73z" />
    <glyph glyph-name="Ncommaaccent" unicode="&#x145;" horiz-adv-x="748" 
d="M397 -67c38 0 58 -29 58 -65c0 -51 -37 -108 -88 -149l-37 29c26 31 46 63 46 100c0 32 -14 49 -36 60v7c16 12 38 18 57 18zM38 0v71h90v467h-90v71h180l329 -467v396h-89v71h262v-71h-89v-538h-79l-341 481v-410h89v-71h-262z" />
    <glyph glyph-name="Ncaron" unicode="&#x147;" horiz-adv-x="748" 
d="M38 0v71h90v467h-90v71h180l329 -467v396h-89v71h262v-71h-89v-538h-79l-341 481v-410h89v-71h-262zM346 668l-138 137l21 27l145 -81l146 81l20 -27l-138 -137h-56z" />
    <glyph glyph-name="Eng" unicode="&#x14a;" horiz-adv-x="748" 
d="M476 -173l-28 61c38 21 95 56 95 121v17l-332 455v-410h89v-71h-262v71h90v467h-90v71h180l329 -454v383h-89v71h262v-71h-89v-530c0 -116 -78 -150 -155 -181z" />
    <glyph glyph-name="Ograve" unicode="&#xd2;" horiz-adv-x="702" 
d="M351 -12c-186 0 -313 132 -313 316s127 317 313 317s313 -133 313 -317s-127 -316 -313 -316zM351 62c130 0 223 95 223 242c0 148 -92 243 -223 243c-130 0 -222 -96 -222 -243c0 -148 91 -242 222 -242zM398 669l-190 123l58 73l161 -161z" />
    <glyph glyph-name="Oacute" unicode="&#xd3;" horiz-adv-x="702" 
d="M351 -12c-186 0 -313 132 -313 316s127 317 313 317s313 -133 313 -317s-127 -316 -313 -316zM351 62c130 0 223 95 223 242c0 148 -92 243 -223 243c-130 0 -222 -96 -222 -243c0 -148 91 -242 222 -242zM285 669l-29 35l162 161l57 -73z" />
    <glyph glyph-name="Ocircumflex" unicode="&#xd4;" horiz-adv-x="702" 
d="M351 -12c-186 0 -313 132 -313 316s127 317 313 317s313 -133 313 -317s-127 -316 -313 -316zM351 62c130 0 223 95 223 242c0 148 -92 243 -223 243c-130 0 -222 -96 -222 -243c0 -148 91 -242 222 -242zM206 669l-21 26l138 137h56l138 -137l-20 -26l-146 80z" />
    <glyph glyph-name="Otilde" unicode="&#xd5;" horiz-adv-x="702" 
d="M351 -12c-186 0 -313 132 -313 316s127 317 313 317s313 -133 313 -317s-127 -316 -313 -316zM351 62c130 0 223 95 223 242c0 148 -92 243 -223 243c-130 0 -222 -96 -222 -243c0 -148 91 -242 222 -242zM208 672l-33 16c19 47 44 111 103 111c53 0 95 -51 142 -51
c29 0 49 19 66 54l34 -18c-20 -46 -50 -110 -106 -110c-51 0 -100 51 -140 51c-25 0 -47 -18 -66 -53z" />
    <glyph glyph-name="Odieresis" unicode="&#xd6;" horiz-adv-x="702" 
d="M351 -12c-186 0 -313 132 -313 316s127 317 313 317s313 -133 313 -317s-127 -316 -313 -316zM351 62c130 0 223 95 223 242c0 148 -92 243 -223 243c-130 0 -222 -96 -222 -243c0 -148 91 -242 222 -242zM260 674c-29 0 -53 23 -53 53s24 54 53 54c30 0 53 -24 53 -54
s-23 -53 -53 -53zM442 674c-30 0 -53 23 -53 53s23 54 53 54s54 -24 54 -54s-24 -53 -54 -53z" />
    <glyph glyph-name="Omacron" unicode="&#x14c;" horiz-adv-x="702" 
d="M351 -12c-186 0 -313 132 -313 316s127 317 313 317s313 -133 313 -317s-127 -316 -313 -316zM351 62c130 0 223 95 223 242c0 148 -92 243 -223 243c-130 0 -222 -96 -222 -243c0 -148 91 -242 222 -242zM216 678v65h270v-65h-270z" />
    <glyph glyph-name="Obreve" unicode="&#x14e;" horiz-adv-x="702" 
d="M351 -12c-186 0 -313 132 -313 316s127 317 313 317s313 -133 313 -317s-127 -316 -313 -316zM351 62c130 0 223 95 223 242c0 148 -92 243 -223 243c-130 0 -222 -96 -222 -243c0 -148 91 -242 222 -242zM351 666c-84 0 -144 58 -149 147h64c7 -53 39 -76 85 -76
s78 23 85 76h64c-5 -89 -65 -147 -149 -147z" />
    <glyph glyph-name="Ohungarumlaut" unicode="&#x150;" horiz-adv-x="702" 
d="M351 -12c-186 0 -313 132 -313 316s127 317 313 317s313 -133 313 -317s-127 -316 -313 -316zM351 62c130 0 223 95 223 242c0 148 -92 243 -223 243c-130 0 -222 -96 -222 -243c0 -148 91 -242 222 -242zM240 670l-30 26l122 175l62 -57zM401 670l-30 26l123 175l62 -57
z" />
    <glyph glyph-name="Oslash" unicode="&#xd8;" horiz-adv-x="702" 
d="M351 -12c-73 0 -136 20 -187 55l-51 -63l-33 26l52 63c-59 57 -94 139 -94 235c0 184 127 317 313 317c73 0 136 -20 186 -56l53 64l32 -26l-52 -64c59 -56 94 -139 94 -235c0 -184 -127 -316 -313 -316zM351 62c130 0 223 94 223 242c0 70 -21 128 -58 170l-301 -369
c37 -28 83 -43 136 -43zM351 547c-130 0 -222 -95 -222 -242c0 -71 20 -129 56 -171l301 369c-36 28 -83 44 -135 44z" />
    <glyph glyph-name="Oslashacute" unicode="&#x1fe;" horiz-adv-x="702" 
d="M351 -12c-73 0 -136 20 -187 55l-51 -63l-33 26l52 63c-59 57 -94 139 -94 235c0 184 127 317 313 317c73 0 136 -20 186 -56l53 64l32 -26l-52 -64c59 -56 94 -139 94 -235c0 -184 -127 -316 -313 -316zM351 62c130 0 223 94 223 242c0 70 -21 128 -58 170l-301 -369
c37 -28 83 -43 136 -43zM351 547c-130 0 -222 -95 -222 -242c0 -71 20 -129 56 -171l301 369c-36 28 -83 44 -135 44zM285 669l-29 35l162 161l57 -73z" />
    <glyph glyph-name="OE" unicode="&#x152;" horiz-adv-x="863" 
d="M347 0c-190 0 -306 119 -306 304c0 184 115 305 306 305h467v-169h-82v98h-220v-196h238v-71h-238v-200h223v100h82v-171h-470zM348 73h78v463h-78c-136 0 -217 -89 -217 -232c0 -142 81 -231 217 -231z" />
    <glyph glyph-name="Racute" unicode="&#x154;" horiz-adv-x="639" 
d="M258 666l-29 35l162 160l57 -73zM38 0v71h90v467h-90v71h285c146 0 243 -72 243 -186c0 -82 -49 -143 -134 -167l103 -185h84v-71h-144l-129 233h-130v-162h89v-71h-267zM216 302h109c108 0 152 50 152 118s-45 118 -152 118h-109v-236z" />
    <glyph glyph-name="Rcommaaccent" unicode="&#x156;" horiz-adv-x="639" 
d="M357 -67c39 0 58 -29 58 -65c0 -51 -37 -108 -87 -149l-37 29c25 31 46 63 46 100c0 32 -15 49 -36 60v7c16 12 37 18 56 18zM38 0v71h90v467h-90v71h285c146 0 243 -72 243 -186c0 -82 -49 -143 -134 -167l103 -185h84v-71h-144l-129 233h-130v-162h89v-71h-267z
M216 302h109c108 0 152 50 152 118s-45 118 -152 118h-109v-236z" />
    <glyph glyph-name="Rcaron" unicode="&#x158;" horiz-adv-x="639" 
d="M284 668l-138 137l21 27l145 -81l146 81l20 -27l-138 -137h-56zM38 0v71h90v467h-90v71h285c146 0 243 -72 243 -186c0 -82 -49 -143 -134 -167l103 -185h84v-71h-144l-129 233h-130v-162h89v-71h-267zM216 302h109c108 0 152 50 152 118s-45 118 -152 118h-109v-236z
" />
    <glyph glyph-name="Sacute" unicode="&#x15a;" horiz-adv-x="520" 
d="M254 -12c-74 0 -152 16 -209 32v142h80v-87c30 -8 76 -16 124 -16c84 0 144 28 144 92c0 156 -338 83 -338 302c0 112 89 168 218 168c65 0 136 -14 186 -31v-140h-81v88c-26 6 -65 12 -102 12c-83 0 -136 -32 -136 -89c0 -146 338 -78 338 -304
c0 -121 -98 -169 -224 -169zM211 669l-28 35l162 161l57 -73z" />
    <glyph glyph-name="Scircumflex" unicode="&#x15c;" horiz-adv-x="520" 
d="M254 -12c-74 0 -152 16 -209 32v142h80v-87c30 -8 76 -16 124 -16c84 0 144 28 144 92c0 156 -338 83 -338 302c0 112 89 168 218 168c65 0 136 -14 186 -31v-140h-81v88c-26 6 -65 12 -102 12c-83 0 -136 -32 -136 -89c0 -146 338 -78 338 -304
c0 -121 -98 -169 -224 -169zM123 669l-21 26l138 137h56l138 -137l-20 -26l-146 80z" />
    <glyph glyph-name="Scedilla" unicode="&#x15e;" horiz-adv-x="520" 
d="M225 -200c-21 0 -47 2 -65 5l12 51c14 -3 33 -5 49 -5c31 0 60 7 60 34c0 33 -40 38 -76 38v19l23 47c-66 3 -133 17 -183 31v142h80v-87c30 -8 76 -16 124 -16c84 0 144 28 144 92c0 156 -338 83 -338 302c0 112 89 168 218 168c65 0 136 -14 186 -31v-140h-81v88
c-26 6 -65 12 -102 12c-83 0 -136 -32 -136 -89c0 -146 338 -78 338 -304c0 -113 -83 -162 -197 -168l-11 -27c43 -3 85 -28 85 -78c0 -59 -60 -84 -130 -84z" />
    <glyph glyph-name="Scommaaccent" unicode="&#x218;" horiz-adv-x="520" 
d="M275 -70c39 0 58 -30 58 -66c0 -50 -37 -107 -87 -149l-38 29c26 32 47 63 47 100c0 32 -15 50 -36 60v7c16 12 37 19 56 19zM254 -12c-74 0 -152 16 -209 32v142h80v-87c30 -8 76 -16 124 -16c84 0 144 28 144 92c0 156 -338 83 -338 302c0 112 89 168 218 168
c65 0 136 -14 186 -31v-140h-81v88c-26 6 -65 12 -102 12c-83 0 -136 -32 -136 -89c0 -146 338 -78 338 -304c0 -121 -98 -169 -224 -169z" />
    <glyph glyph-name="Scaron" unicode="&#x160;" horiz-adv-x="520" 
d="M254 -12c-74 0 -152 16 -209 32v142h80v-87c30 -8 76 -16 124 -16c84 0 144 28 144 92c0 156 -338 83 -338 302c0 112 89 168 218 168c65 0 136 -14 186 -31v-140h-81v88c-26 6 -65 12 -102 12c-83 0 -136 -32 -136 -89c0 -146 338 -78 338 -304
c0 -121 -98 -169 -224 -169zM239 670l-137 137l20 27l145 -81l146 81l21 -27l-139 -137h-56z" />
    <glyph glyph-name="Tcommaaccent" unicode="&#x162;" 
d="M295 -67c39 0 58 -29 58 -65c0 -51 -37 -108 -87 -149l-38 29c26 31 47 63 47 100c0 32 -15 49 -36 60v7c16 12 37 18 56 18zM152 0v71h96v467h-148v-101h-80v172h544v-172h-81v101h-147v-467h96v-71h-280z" />
    <glyph glyph-name="uni021A" unicode="&#x21a;" 
d="M295 -67c39 0 58 -29 58 -65c0 -51 -37 -108 -87 -149l-38 29c26 31 47 63 47 100c0 32 -15 49 -36 60v7c16 12 37 18 56 18zM152 0v71h96v467h-148v-101h-80v172h544v-172h-81v101h-147v-467h96v-71h-280z" />
    <glyph glyph-name="Tcaron" unicode="&#x164;" 
d="M152 0v71h96v467h-148v-101h-80v172h544v-172h-81v101h-147v-467h96v-71h-280zM264 668l-138 137l21 27l145 -81l146 81l20 -27l-138 -137h-56z" />
    <glyph glyph-name="Tbar" unicode="&#x166;" horiz-adv-x="587" 
d="M118 264v61h132v213h-148v-101h-80v172h543v-172h-80v101h-147v-213h131v-61h-131v-193h96v-71h-281v71h97v193h-132z" />
    <glyph glyph-name="Thorn" unicode="&#xde;" horiz-adv-x="573" 
d="M38 0v69h91v471h-91v69h283v-67h-104v-58h88c147 0 243 -58 243 -176c0 -119 -96 -177 -243 -177h-88v-64h104v-67h-283zM217 201h91c108 0 151 39 151 107s-43 107 -151 107h-91v-214z" />
    <glyph glyph-name="Ugrave" unicode="&#xd9;" horiz-adv-x="696" 
d="M349 -12c-130 0 -240 66 -240 215v335h-89v71h266v-71h-89v-328c0 -104 71 -143 155 -143s153 40 153 144v327h-92v71h263v-71h-89v-329c0 -141 -94 -221 -238 -221zM391 666l-190 122l57 73l162 -160z" />
    <glyph glyph-name="Uacute" unicode="&#xda;" horiz-adv-x="696" 
d="M349 -12c-130 0 -240 66 -240 215v335h-89v71h266v-71h-89v-328c0 -104 71 -143 155 -143s153 40 153 144v327h-92v71h263v-71h-89v-329c0 -141 -94 -221 -238 -221zM295 666l-29 35l162 160l57 -73z" />
    <glyph glyph-name="Ucircumflex" unicode="&#xdb;" horiz-adv-x="696" 
d="M349 -12c-130 0 -240 66 -240 215v335h-89v71h266v-71h-89v-328c0 -104 71 -143 155 -143s153 40 153 144v327h-92v71h263v-71h-89v-329c0 -141 -94 -221 -238 -221zM202 666l-20 26l138 137h55l139 -137l-21 -26l-145 80z" />
    <glyph glyph-name="Udieresis" unicode="&#xdc;" horiz-adv-x="696" 
d="M349 -12c-130 0 -240 66 -240 215v335h-89v71h266v-71h-89v-328c0 -104 71 -143 155 -143s153 40 153 144v327h-92v71h263v-71h-89v-329c0 -141 -94 -221 -238 -221zM257 671c-30 0 -54 23 -54 53s24 54 54 54c29 0 53 -24 53 -54s-24 -53 -53 -53zM439 671
c-30 0 -54 23 -54 53s24 54 54 54c29 0 53 -24 53 -54s-24 -53 -53 -53z" />
    <glyph glyph-name="Utilde" unicode="&#x168;" horiz-adv-x="696" 
d="M349 -12c-130 0 -240 66 -240 215v335h-89v71h266v-71h-89v-328c0 -104 71 -143 155 -143s153 40 153 144v327h-92v71h263v-71h-89v-329c0 -141 -94 -221 -238 -221zM212 669l-33 16c18 47 43 111 102 111c53 0 96 -51 142 -51c29 0 49 19 67 54l33 -18
c-20 -46 -49 -110 -106 -110c-51 0 -100 51 -140 51c-24 0 -47 -18 -65 -53z" />
    <glyph glyph-name="Umacron" unicode="&#x16a;" horiz-adv-x="696" 
d="M349 -12c-130 0 -240 66 -240 215v335h-89v71h266v-71h-89v-328c0 -104 71 -143 155 -143s153 40 153 144v327h-92v71h263v-71h-89v-329c0 -141 -94 -221 -238 -221zM214 675v65h271v-65h-271z" />
    <glyph glyph-name="Ubreve" unicode="&#x16c;" horiz-adv-x="696" 
d="M349 -12c-130 0 -240 66 -240 215v335h-89v71h266v-71h-89v-328c0 -104 71 -143 155 -143s153 40 153 144v327h-92v71h263v-71h-89v-329c0 -141 -94 -221 -238 -221zM350 663c-84 0 -143 57 -149 146h64c7 -53 39 -76 85 -76s79 23 85 76h64c-5 -89 -65 -146 -149 -146z
" />
    <glyph glyph-name="Uring" unicode="&#x16e;" horiz-adv-x="696" 
d="M349 -12c-130 0 -240 66 -240 215v335h-89v71h266v-71h-89v-328c0 -104 71 -143 155 -143s153 40 153 144v327h-92v71h263v-71h-89v-329c0 -141 -94 -221 -238 -221zM351 659c-74 0 -117 49 -117 108c0 58 43 107 117 107s116 -49 116 -107c0 -59 -42 -108 -116 -108z
M351 708c34 0 51 27 51 59c0 30 -17 58 -51 58c-35 0 -52 -28 -52 -58c0 -32 17 -59 52 -59z" />
    <glyph glyph-name="Uhungarumlaut" unicode="&#x170;" horiz-adv-x="696" 
d="M349 -12c-130 0 -240 66 -240 215v335h-89v71h266v-71h-89v-328c0 -104 71 -143 155 -143s153 40 153 144v327h-92v71h263v-71h-89v-329c0 -141 -94 -221 -238 -221zM241 666l-30 27l123 175l62 -58zM403 666l-31 27l123 175l62 -58z" />
    <glyph glyph-name="Uogonek" unicode="&#x172;" horiz-adv-x="698" 
d="M425 -204c-57 0 -103 26 -103 84c0 47 30 83 66 111c-12 -2 -24 -3 -40 -3c-128 0 -239 66 -239 215v335h-89v71h266v-71h-89v-328c0 -104 71 -143 155 -143s153 40 153 144v327h-92v71h263v-71h-89v-329c0 -115 -59 -161 -94 -185s-93 -66 -93 -128c0 -31 15 -45 47 -45
c23 0 45 8 60 15l5 -52c-21 -9 -54 -18 -87 -18z" />
    <glyph glyph-name="Wcircumflex" unicode="&#x174;" horiz-adv-x="935" 
d="M248 0l-175 538h-76v71h256v-71h-94l135 -431l135 390l-14 41h-82v71h260v-71h-95l143 -429l134 429h-94v71h257v-71h-76l-175 -538h-84l-133 380l-138 -380h-84zM317 666l-20 26l137 137h56l139 -137l-21 -26l-146 80z" />
    <glyph glyph-name="Yacute" unicode="&#xdd;" horiz-adv-x="632" 
d="M181 0v71h92v148l-201 319h-78v71h268v-70h-94l149 -241l149 241h-93v70h263v-71h-76l-199 -315v-152h92v-71h-272zM260 666l-28 35l161 160l58 -73z" />
    <glyph glyph-name="Ydieresis" unicode="&#x178;" horiz-adv-x="632" 
d="M181 0v71h92v148l-201 319h-78v71h268v-70h-94l149 -241l149 241h-93v70h263v-71h-76l-199 -315v-152h92v-71h-272zM227 671c-30 0 -54 23 -54 53s24 54 54 54c29 0 53 -24 53 -54s-24 -53 -53 -53zM409 671c-30 0 -54 23 -54 53s24 54 54 54s53 -24 53 -54
s-23 -53 -53 -53z" />
    <glyph glyph-name="Ycircumflex" unicode="&#x176;" horiz-adv-x="632" 
d="M181 0v71h92v148l-201 319h-78v71h268v-70h-94l149 -241l149 241h-93v70h263v-71h-76l-199 -315v-152h92v-71h-272zM172 666l-21 26l138 137h56l139 -137l-21 -26l-146 80z" />
    <glyph glyph-name="Zcaron" unicode="&#x17d;" horiz-adv-x="570" 
d="M40 0v75l368 459h-278v-104h-82v179h467v-77l-367 -458h301v111h82v-185h-491zM257 668l-137 137l20 27l145 -81l146 81l21 -27l-139 -137h-56z" />
    <glyph glyph-name="Zacute" unicode="&#x179;" horiz-adv-x="570" 
d="M40 0v75l368 459h-278v-104h-82v179h467v-77l-367 -458h301v111h82v-185h-491zM226 666l-29 35l162 160l57 -73z" />
    <glyph glyph-name="Zdotaccent" unicode="&#x17b;" horiz-adv-x="570" 
d="M40 0v75l368 459h-278v-104h-82v179h467v-77l-367 -458h301v111h82v-185h-491zM285 667c-32 0 -57 26 -57 58s25 57 57 57s57 -25 57 -57s-25 -58 -57 -58z" />
    <glyph glyph-name="dieresis.cap" unicode="&#xf6cb;" horiz-adv-x="436" 
d="M123 671c-29 0 -54 23 -54 53s25 54 54 54c30 0 53 -24 53 -54s-23 -53 -53 -53zM305 671c-30 0 -53 23 -53 53s23 54 53 54s53 -24 53 -54s-23 -53 -53 -53z" />
    <glyph glyph-name="grave.cap" unicode="&#xf6ce;" horiz-adv-x="346" 
d="M252 666l-190 122l58 73l161 -160z" />
    <glyph glyph-name="tilde.cap" unicode="&#xeff5;" horiz-adv-x="466" 
d="M91 669l-33 16c18 47 44 111 103 111c52 0 95 -51 142 -51c29 0 49 19 66 54l34 -18c-20 -46 -50 -110 -107 -110c-51 0 -99 51 -139 51c-25 0 -47 -18 -66 -53z" />
    <glyph glyph-name="circumflex.cap" unicode="&#xeff7;" horiz-adv-x="434" 
d="M72 666l-20 26l137 137h56l139 -137l-21 -26l-146 80z" />
    <glyph glyph-name="acute.cap" unicode="&#xf6c9;" horiz-adv-x="346" 
d="M85 666l-28 35l161 160l58 -73z" />
    <glyph glyph-name="ring.cap" unicode="&#xeff3;" horiz-adv-x="352" 
d="M175 659c-74 0 -117 49 -117 108c0 58 43 107 117 107s116 -49 116 -107c0 -59 -42 -108 -116 -108zM175 708c34 0 51 27 51 59c0 30 -17 58 -51 58c-35 0 -52 -28 -52 -58c0 -32 17 -59 52 -59z" />
    <glyph glyph-name="cedilla.cap" unicode="&#xeff2;" horiz-adv-x="304" 
d="M108 -200c-20 0 -47 2 -64 5l12 51c14 -3 32 -5 49 -5c31 0 59 7 59 34c0 33 -40 38 -76 38v19l48 95l45 -12l-28 -63c44 -3 86 -28 86 -78c0 -59 -61 -84 -131 -84z" />
    <glyph glyph-name="caron.cap" unicode="&#xf6ca;" horiz-adv-x="436" 
d="M190 668l-138 137l21 27l145 -81l146 81l20 -27l-138 -137h-56z" />
    <glyph glyph-name="ogonek.cap" unicode="&#xeff1;" horiz-adv-x="297" 
d="M157 -204c-57 0 -103 26 -103 83c0 75 75 122 137 155l27 -19c-40 -26 -86 -73 -86 -122c0 -29 18 -42 48 -42c22 0 44 8 59 15l6 -52c-21 -9 -54 -18 -88 -18z" />
    <glyph glyph-name="breve.cap" unicode="&#xefee;" horiz-adv-x="386" 
d="M192 663c-84 0 -144 57 -149 146h64c7 -53 39 -76 85 -76c45 0 78 23 85 76h64c-5 -89 -65 -146 -149 -146z" />
    <glyph glyph-name="hungarumlaut.cap" unicode="&#xf6cf;" horiz-adv-x="515" 
d="M103 666l-30 27l123 175l61 -58zM264 666l-30 27l123 175l62 -58z" />
    <glyph glyph-name="dotaccent.cap" unicode="&#xefed;" horiz-adv-x="239" 
d="M119 667c-32 0 -58 26 -58 58s26 57 58 57s57 -25 57 -57s-25 -58 -57 -58z" />
    <glyph glyph-name="macron.cap" unicode="&#xf6d0;" horiz-adv-x="419" 
d="M74 675v65h270v-65h-270z" />
    <glyph glyph-name="exclamdown.cap" unicode="&#xf6b4;" horiz-adv-x="248" 
d="M156 442l15 -442h-94l15 442h64zM124 618c31 0 56 -25 56 -56s-25 -57 -56 -57s-56 26 -56 57s25 56 56 56z" />
    <glyph glyph-name="questiondown.cap" unicode="&#xf6b5;" horiz-adv-x="375" 
d="M214 -12c-101 0 -177 46 -177 143c0 136 145 167 145 260c0 19 -6 37 -11 51h80c6 -13 10 -35 10 -53c0 -109 -135 -141 -135 -251c0 -54 31 -84 102 -84c40 0 84 9 117 18v-64c-32 -10 -82 -20 -131 -20zM211 618c31 0 56 -25 56 -56s-25 -57 -56 -57s-56 26 -56 57
s25 56 56 56z" />
    <glyph glyph-name="guilsinglleft.cap" unicode="&#xf6b8;" horiz-adv-x="337" 
d="M194 121l-151 181v4l151 182h93l-156 -184l156 -183h-93z" />
    <glyph glyph-name="guilsinglright.cap" unicode="&#xf6b9;" horiz-adv-x="337" 
d="M50 121l156 183l-156 184h93l151 -182v-4l-151 -181h-93z" />
    <glyph glyph-name="guillemotleft.cap" unicode="&#xf6b6;" horiz-adv-x="561" 
d="M418 121l-151 181v4l151 182h94l-157 -184l157 -183h-94zM194 121l-151 181v4l151 182h93l-156 -184l156 -183h-93z" />
    <glyph glyph-name="guillemotright.cap" unicode="&#xf6b7;" horiz-adv-x="561" 
d="M50 121l156 183l-156 184h93l151 -182v-4l-151 -181h-93zM274 121l156 183l-156 184h94l151 -182v-4l-151 -181h-94z" />
    <glyph glyph-name="slash.cap" horiz-adv-x="536" 
d="M19 -149l417 905h80l-416 -905h-81z" />
    <glyph glyph-name="backslash.cap" horiz-adv-x="536" 
d="M435 -149l-415 905h80l416 -905h-81z" />
    <glyph glyph-name="bar.cap" horiz-adv-x="234" 
d="M78 -149v905h79v-905h-79z" />
    <glyph glyph-name="brokenbar.cap" horiz-adv-x="236" 
d="M79 392v364h79v-364h-79zM79 -149v400h79v-400h-79z" />
    <glyph glyph-name="bullet.cap" horiz-adv-x="357" 
d="M178 193c-61 0 -111 50 -111 111s50 111 111 111c62 0 112 -50 112 -111s-50 -111 -112 -111z" />
    <glyph glyph-name="periodcentered.cap" unicode="&#xf6bd;" horiz-adv-x="217" 
d="M108 247c-31 0 -56 25 -56 56s25 57 56 57s57 -26 57 -57s-26 -56 -57 -56z" />
    <glyph glyph-name="hyphen.cap" unicode="&#xf6ba;" horiz-adv-x="386" 
d="M56 268v73h274v-73h-274z" />
    <glyph glyph-name="endash.cap" unicode="&#xf6bb;" horiz-adv-x="621" 
d="M56 268v73h508v-73h-508z" />
    <glyph glyph-name="emdash.cap" unicode="&#xf6bc;" horiz-adv-x="831" 
d="M56 268v73h718v-73h-718z" />
    <glyph glyph-name="parenleft.cap" unicode="&#xf6ae;" horiz-adv-x="271" 
d="M179 -149c-93 136 -145 307 -145 453s52 317 145 452h87c-99 -133 -150 -304 -150 -452c0 -149 51 -319 150 -453h-87z" />
    <glyph glyph-name="parenright.cap" unicode="&#xf6af;" horiz-adv-x="271" 
d="M4 -149c99 134 151 304 151 453c0 148 -52 319 -151 452h87c94 -135 146 -306 146 -452s-52 -317 -146 -453h-87z" />
    <glyph glyph-name="bracketleft.cap" unicode="&#xf6b0;" horiz-adv-x="297" 
d="M78 -149v905h200v-59h-121v-787h121v-59h-200z" />
    <glyph glyph-name="bracketright.cap" unicode="&#xf6b1;" horiz-adv-x="297" 
d="M18 -149v59h122v787h-122v59h201v-905h-201z" />
    <glyph glyph-name="braceleft.cap" unicode="&#xf6b2;" horiz-adv-x="300" 
d="M213 -161c-82 0 -115 50 -115 108c0 55 29 140 29 208c0 61 -25 111 -119 117v65c94 6 119 55 119 117c0 68 -29 153 -29 208c0 57 33 108 115 108c22 0 43 -4 63 -10v-52c-13 3 -31 6 -47 6c-39 0 -53 -21 -53 -57c0 -52 30 -140 30 -215c0 -64 -22 -120 -105 -138
c83 -18 105 -73 105 -137c0 -75 -30 -163 -30 -216c0 -35 14 -57 53 -57c16 0 34 4 47 7v-52c-20 -6 -41 -10 -63 -10z" />
    <glyph glyph-name="braceright.cap" unicode="&#xf6b3;" horiz-adv-x="300" 
d="M87 -161c-22 0 -43 4 -63 10v52c13 -3 31 -7 47 -7c39 0 53 22 53 57c0 53 -30 141 -30 216c0 64 22 119 105 137c-83 18 -105 74 -105 138c0 75 30 163 30 215c0 36 -14 57 -53 57c-16 0 -34 -3 -47 -6v52c20 6 41 10 63 10c82 0 115 -51 115 -108
c0 -55 -29 -140 -29 -208c0 -62 25 -111 119 -117v-65c-94 -6 -119 -56 -119 -117c0 -68 29 -153 29 -208c0 -58 -33 -108 -115 -108z" />
    <glyph glyph-name="at.cap" unicode="&#xf633;" horiz-adv-x="745" 
d="M337 118c-88 0 -137 68 -137 154c0 108 77 203 182 203c59 0 96 -31 114 -71h2c2 11 14 47 18 55h51c-17 -66 -39 -157 -39 -221c0 -47 11 -78 47 -78c50 0 96 58 96 161c0 169 -122 281 -279 281c-173 0 -309 -135 -309 -305c0 -166 131 -297 299 -297
c62 0 118 18 168 51l23 -36c-60 -37 -121 -58 -193 -58c-196 0 -340 157 -340 343c0 200 166 344 354 344c179 0 319 -131 319 -324c0 -132 -66 -202 -149 -202c-71 0 -87 51 -90 74h-4c-29 -43 -73 -74 -133 -74zM351 171c70 0 121 70 121 153c0 63 -29 99 -81 99
c-72 0 -125 -69 -125 -150c0 -63 33 -102 85 -102z" />
    <glyph glyph-name="A.smcp" unicode="&#xf761;" 
d="M8 0v65h64l147 357h-68v65h193l172 -422h66v-65h-226v65h76l-36 88h-208l-36 -88h76v-65h-220zM213 218h158l-79 197z" />
    <glyph glyph-name="B.smcp" unicode="&#xf762;" horiz-adv-x="526" 
d="M41 0v64h72v359h-72v64h245c106 0 183 -46 183 -125c0 -44 -22 -91 -99 -112c84 -17 116 -66 116 -120c0 -77 -68 -130 -189 -130h-256zM195 64h100c68 0 109 29 109 75c0 45 -39 77 -113 77h-96v-152zM195 278h83c71 0 109 29 109 73c0 45 -38 72 -102 72h-90v-145z" />
    <glyph glyph-name="C.smcp" unicode="&#xf763;" horiz-adv-x="528" 
d="M307 -10c-156 0 -269 89 -269 250c0 162 113 257 270 257c68 0 133 -17 181 -38v-132h-79v87c-29 10 -67 15 -99 15c-110 0 -187 -65 -187 -183s76 -187 191 -187c69 0 130 25 175 47v-71c-43 -24 -107 -45 -183 -45z" />
    <glyph glyph-name="D.smcp" unicode="&#xf764;" horiz-adv-x="580" 
d="M40 0v65h73v357h-73v65h228c174 0 273 -95 273 -243c0 -149 -99 -244 -273 -244h-228zM196 66h72c122 0 187 66 187 177s-65 179 -187 179h-72v-356z" />
    <glyph glyph-name="E.smcp" unicode="&#xf765;" horiz-adv-x="506" 
d="M40 0v65h73v357h-73v65h416v-141h-76v76h-184v-144h197v-65h-197v-147h186v78h77v-144h-419z" />
    <glyph glyph-name="F.smcp" unicode="&#xf766;" horiz-adv-x="475" 
d="M40 0v65h73v357h-73v65h411v-150h-78v84h-177v-156h184v-67h-184v-133h85v-65h-241z" />
    <glyph glyph-name="G.smcp" unicode="&#xf767;" horiz-adv-x="585" 
d="M313 -10c-182 0 -275 102 -275 252c0 163 112 255 279 255c72 0 141 -17 190 -36v-123h-78v76c-27 7 -68 15 -108 15c-117 0 -198 -64 -198 -182c0 -99 56 -189 193 -189c50 0 89 12 123 24v116h-112v64h231v-64h-42v-163c-51 -21 -116 -45 -203 -45z" />
    <glyph glyph-name="H.smcp" unicode="&#xf768;" horiz-adv-x="650" 
d="M40 0v65h73v357h-73v65h229v-65h-73v-143h258v143h-73v65h229v-65h-72v-357h72v-65h-229v65h73v147h-258v-147h73v-65h-229z" />
    <glyph glyph-name="I.smcp" unicode="&#xf769;" horiz-adv-x="309" 
d="M40 0v65h73v357h-73v65h229v-65h-73v-357h73v-65h-229z" />
    <glyph glyph-name="J.smcp" unicode="&#xf76a;" horiz-adv-x="290" 
d="M45 -145l-25 58c28 14 83 46 83 99v410h-73v65h230v-65h-73v-412c0 -102 -87 -135 -142 -155z" />
    <glyph glyph-name="K.smcp" unicode="&#xf76b;" horiz-adv-x="586" 
d="M435 0l-211 241v2l182 180h-73v64h225v-65h-63l-175 -173l166 -184h78v-65h-129zM40 0v65h73v357h-73v65h229v-65h-73v-357h73v-65h-229z" />
    <glyph glyph-name="L.smcp" unicode="&#xf76c;" horiz-adv-x="477" 
d="M40 0v65h73v357h-73v65h238v-65h-82v-356h183v83h77v-149h-416z" />
    <glyph glyph-name="M.smcp" unicode="&#xf76d;" horiz-adv-x="759" 
d="M39 0v65h68l12 359h-69v63h191l139 -341l140 341h190v-63h-68l11 -359h68v-65h-214v65h73l-12 347l-160 -377h-55l-160 377l-13 -347h74v-65h-215z" />
    <glyph glyph-name="N.smcp" unicode="&#xf76e;" horiz-adv-x="642" 
d="M40 0v65h73v357h-73v65h156l265 -363v298h-79v65h230v-65h-73v-422h-74l-274 372v-307h78v-65h-229z" />
    <glyph glyph-name="O.smcp" unicode="&#xf76f;" horiz-adv-x="599" 
d="M300 -10c-159 0 -262 105 -262 253c0 149 103 254 262 254c158 0 262 -105 262 -254c0 -148 -104 -253 -262 -253zM300 58c102 0 176 72 176 185c0 114 -74 186 -176 186c-103 0 -177 -72 -177 -186c0 -113 74 -185 177 -185z" />
    <glyph glyph-name="P.smcp" unicode="&#xf770;" horiz-adv-x="500" 
d="M40 0v65h73v357h-73v65h233c127 0 202 -66 202 -156s-75 -156 -202 -156h-77v-110h90v-65h-246zM196 422v-183h78c85 0 118 44 118 92s-33 91 -118 91h-78z" />
    <glyph glyph-name="Q.smcp" unicode="&#xf771;" horiz-adv-x="599" 
d="M444 -116l-157 107c-152 5 -249 107 -249 252c0 149 103 254 262 254c158 0 262 -105 262 -254c0 -118 -66 -209 -175 -239l99 -56zM300 58c102 0 176 72 176 185c0 114 -74 186 -176 186c-103 0 -177 -72 -177 -186c0 -113 74 -185 177 -185z" />
    <glyph glyph-name="R.smcp" unicode="&#xf772;" horiz-adv-x="552" 
d="M40 0v65h73v357h-73v65h243c127 0 202 -66 202 -152c0 -59 -35 -112 -108 -132l78 -139h71v-64h-130l-99 181h-101v-116h73v-65h-229zM196 246h87c86 0 118 40 118 87c0 49 -33 89 -118 89h-87v-176z" />
    <glyph glyph-name="S.smcp" unicode="&#xf773;" horiz-adv-x="446" 
d="M217 -10c-60 0 -123 12 -173 27v124h77v-73c25 -7 68 -12 97 -12c51 0 106 16 106 67c0 114 -271 63 -271 238c0 94 76 136 181 136c55 0 114 -12 155 -24v-121h-76v72c-21 4 -54 8 -79 8c-58 0 -100 -22 -100 -65c0 -110 272 -62 272 -241c0 -98 -81 -136 -189 -136z
" />
    <glyph glyph-name="T.smcp" unicode="&#xf774;" horiz-adv-x="505" 
d="M130 0v65h80v357h-110v-82h-76v147h457v-147h-76v82h-111v-357h81v-65h-245z" />
    <glyph glyph-name="U.smcp" unicode="&#xf775;" horiz-adv-x="600" 
d="M301 -10c-108 0 -202 50 -202 173v259h-72v65h229v-65h-74v-256c0 -79 56 -107 121 -107c67 0 121 29 121 107v256h-76v65h225v-65h-71v-252c0 -113 -76 -180 -201 -180z" />
    <glyph glyph-name="V.smcp" unicode="&#xf776;" horiz-adv-x="566" 
d="M243 0l-175 422h-66v65h236v-64h-83l130 -329l131 329h-83v64h231v-65h-66l-175 -422h-80z" />
    <glyph glyph-name="W.smcp" unicode="&#xf777;" horiz-adv-x="802" 
d="M216 0l-145 422h-67v65h227v-62h-77l106 -329l106 290l-15 39h-67v62h226v-62h-77l113 -328l106 327h-76v63h222v-65h-68l-145 -422h-79l-104 284l-107 -284h-79z" />
    <glyph glyph-name="X.smcp" unicode="&#xf778;" horiz-adv-x="560" 
d="M22 0v65h60l151 179l-143 178h-61v65h223v-62h-68l99 -124l101 124h-68v62h215v-65h-61l-144 -173l151 -185h59v-64h-225v63h69l-104 129l-106 -129h69v-63h-217z" />
    <glyph glyph-name="Y.smcp" unicode="&#xf779;" horiz-adv-x="544" 
d="M151 0v65h79v109l-160 248h-67v65h230v-63h-74l115 -177l115 177h-73v63h224v-65h-66l-161 -248v-109h79v-65h-241z" />
    <glyph glyph-name="Z.smcp" unicode="&#xf77a;" horiz-adv-x="494" 
d="M40 0v67l299 354h-213v-88h-78v154h393v-68l-299 -353h235v90h77v-156h-414z" />
    <glyph glyph-name="exclam.smcp" unicode="&#xf721;" horiz-adv-x="241" 
d="M90 136l-14 351h89l-13 -351h-62zM121 -7c-27 0 -50 21 -50 49c0 27 23 49 50 49s50 -22 50 -49c0 -28 -23 -49 -50 -49z" />
    <glyph glyph-name="exclamdown.smcp" unicode="&#xf7a1;" horiz-adv-x="241" 
d="M151 351l14 -351h-89l13 351h62zM120 494c27 0 50 -22 50 -49s-23 -49 -50 -49s-50 22 -50 49s23 49 50 49z" />
    <glyph glyph-name="question.smcp" unicode="&#xf73f;" horiz-adv-x="333" 
d="M143 497c87 0 151 -37 151 -115c0 -107 -119 -132 -119 -206c0 -14 5 -28 9 -40h-76c-4 10 -7 28 -7 42c0 84 107 113 107 196c0 40 -23 62 -80 62c-30 0 -69 -6 -96 -14v60c28 7 70 15 111 15zM147 -7c-28 0 -50 21 -50 49c0 27 22 49 50 49s50 -22 50 -49
c0 -28 -22 -49 -50 -49z" />
    <glyph glyph-name="questiondown.smcp" unicode="&#xf7bf;" horiz-adv-x="335" 
d="M192 -10c-87 0 -151 37 -151 115c0 107 119 132 119 206c0 14 -5 28 -8 40h75c5 -10 8 -28 8 -42c0 -84 -108 -113 -108 -196c0 -40 24 -62 80 -62c30 0 69 6 96 14v-60c-27 -7 -70 -15 -111 -15zM188 494c28 0 50 -22 50 -49s-22 -49 -50 -49s-49 22 -49 49s21 49 49 49
z" />
    <glyph glyph-name="parenleft.smcp" horiz-adv-x="261" 
d="M163 -118c-79 110 -123 245 -123 361s44 253 123 363h81c-84 -109 -127 -246 -127 -363c0 -116 43 -254 127 -361h-81z" />
    <glyph glyph-name="parenright.smcp" horiz-adv-x="261" 
d="M17 -118c83 107 127 245 127 361c0 117 -44 254 -127 363h81c79 -110 123 -247 123 -363s-44 -251 -123 -361h-81z" />
    <glyph glyph-name="braceleft.smcp" horiz-adv-x="292" 
d="M201 -129c-74 0 -103 45 -103 92c0 43 24 110 24 161c0 47 -20 85 -97 91v56c77 6 97 44 97 91c0 51 -24 119 -24 162c0 46 29 91 103 91c20 0 37 -3 56 -8v-47c-12 2 -28 5 -41 5c-34 0 -45 -19 -45 -45c0 -41 25 -111 25 -169c0 -49 -17 -92 -84 -108
c67 -15 84 -59 84 -108c0 -58 -25 -127 -25 -169c0 -26 11 -45 45 -45c13 0 29 3 41 6v-48c-19 -5 -36 -8 -56 -8z" />
    <glyph glyph-name="braceright.smcp" horiz-adv-x="292" 
d="M91 -129c-20 0 -38 3 -56 8v48c12 -3 27 -6 40 -6c35 0 46 19 46 45c0 42 -26 111 -26 169c0 49 18 93 84 108c-66 16 -84 59 -84 108c0 58 26 128 26 169c0 26 -11 45 -46 45c-13 0 -28 -3 -40 -5v47c18 5 36 8 56 8c74 0 103 -45 103 -91c0 -43 -25 -111 -25 -162
c0 -47 21 -85 98 -91v-56c-77 -6 -98 -44 -98 -91c0 -51 25 -118 25 -161c0 -47 -29 -92 -103 -92z" />
    <glyph glyph-name="bracketleft.smcp" horiz-adv-x="284" 
d="M84 -118v724h173v-55h-98v-616h98v-53h-173z" />
    <glyph glyph-name="bracketright.smcp" horiz-adv-x="284" 
d="M27 -118v53h98v616h-98v55h172v-724h-172z" />
    <glyph glyph-name="bar.smcp" horiz-adv-x="243" 
d="M84 -118v724h74v-724h-74z" />
    <glyph glyph-name="at.smcp" horiz-adv-x="630" 
d="M285 89c-74 0 -116 55 -116 125c0 87 65 163 151 163c48 0 80 -24 95 -58h2c3 12 12 36 15 45h46c-13 -49 -32 -122 -32 -175c0 -37 9 -63 38 -63c40 0 77 46 77 126c0 133 -100 221 -230 221c-138 0 -255 -101 -255 -239c0 -134 109 -234 246 -234c52 0 99 14 140 41
l21 -32c-50 -30 -100 -47 -162 -47c-163 0 -284 121 -284 272c0 161 137 277 294 277c151 0 269 -106 269 -261c0 -106 -56 -161 -125 -161c-59 0 -74 41 -77 61h-3c-24 -36 -62 -61 -110 -61zM297 137c56 0 96 54 96 118c0 47 -22 74 -64 74c-56 0 -98 -52 -98 -115
c0 -49 25 -77 66 -77z" />
    <glyph glyph-name="ampersand.smcp" unicode="&#xf726;" horiz-adv-x="557" 
d="M207 -10c-98 0 -166 45 -166 134c0 71 43 110 102 148l-6 6c-27 29 -49 62 -49 104c0 67 50 115 130 115c76 0 120 -45 120 -106c0 -57 -39 -92 -88 -124l114 -119c16 25 31 62 35 94h-54v59h173v-60h-49c-8 -48 -27 -101 -58 -145c24 -22 48 -38 75 -38c8 0 19 1 28 5
v-64c-17 -6 -33 -8 -47 -8c-48 0 -80 24 -107 50c-37 -30 -86 -51 -153 -51zM216 56c39 0 72 13 98 34l-128 133c-36 -23 -67 -48 -67 -92c0 -48 39 -75 97 -75zM218 440c-29 0 -54 -18 -54 -51c0 -19 8 -37 35 -67l8 -9c36 22 62 47 62 79c0 25 -17 48 -51 48z" />
    <glyph glyph-name="ampersand.alt.smcp" horiz-adv-x="473" 
d="M221 -10c-102 0 -179 50 -179 142c0 66 40 104 103 124c-55 21 -84 58 -84 110c0 83 70 131 178 131c47 0 102 -10 149 -24v-107h-72v61c-17 4 -46 8 -71 8c-64 0 -104 -22 -104 -73c0 -52 42 -81 111 -81h194v-59h-43v-79c0 -87 -63 -153 -182 -153zM222 53
c73 0 104 41 104 90v79h-77c-75 0 -125 -25 -125 -88c0 -54 38 -81 98 -81z" />
    <glyph glyph-name="Agrave.smcp" unicode="&#xf7e0;" 
d="M8 0v65h64l147 357h-68v65h193l172 -422h66v-65h-226v65h76l-36 88h-208l-36 -88h76v-65h-220zM213 218h158l-79 197zM336 537l-174 110l55 68l146 -145z" />
    <glyph glyph-name="Aacute.smcp" unicode="&#xf7e1;" 
d="M8 0v65h64l147 357h-68v65h193l172 -422h66v-65h-226v65h76l-36 88h-208l-36 -88h76v-65h-220zM213 218h158l-79 197zM219 537l-27 33l146 145l54 -68z" />
    <glyph glyph-name="Acircumflex.smcp" unicode="&#xf7e2;" 
d="M8 0v65h64l147 357h-68v65h193l172 -422h66v-65h-226v65h76l-36 88h-208l-36 -88h76v-65h-220zM213 218h158l-79 197zM147 537l-20 25l126 123h53l125 -123l-19 -25l-133 70z" />
    <glyph glyph-name="Atilde.smcp" unicode="&#xf7e3;" 
d="M8 0v65h64l147 357h-68v65h193l172 -422h66v-65h-226v65h76l-36 88h-208l-36 -88h76v-65h-220zM213 218h158l-79 197zM153 541l-32 15c18 43 41 101 95 101c48 0 86 -45 129 -45c26 0 44 17 60 48l31 -17c-17 -43 -45 -100 -98 -100c-46 0 -90 44 -126 44
c-23 0 -43 -15 -59 -46z" />
    <glyph glyph-name="Adieresis.smcp" unicode="&#xf7e4;" 
d="M8 0v65h64l147 357h-68v65h193l172 -422h66v-65h-226v65h76l-36 88h-208l-36 -88h76v-65h-220zM213 218h158l-79 197zM197 543c-29 0 -51 22 -51 49c0 28 22 50 51 50c27 0 49 -22 49 -50c0 -27 -22 -49 -49 -49zM363 543c-28 0 -50 22 -50 49c0 28 22 50 50 50
s50 -22 50 -50c0 -27 -22 -49 -50 -49z" />
    <glyph glyph-name="Aring.smcp" unicode="&#xf7e5;" 
d="M8 0v65h64l147 357h-68v65h193l172 -422h66v-65h-226v65h76l-36 88h-208l-36 -88h76v-65h-220zM213 218h158l-79 197zM282 535c-69 0 -106 44 -106 97s37 97 106 97s106 -44 106 -97s-37 -97 -106 -97zM282 581c30 0 46 23 46 51c0 27 -16 51 -46 51s-45 -24 -45 -51
c0 -28 15 -51 45 -51z" />
    <glyph glyph-name="Amacron.smcp" unicode="&#xf66e;" 
d="M8 0v65h64l147 357h-68v65h193l172 -422h66v-65h-226v65h76l-36 88h-208l-36 -88h76v-65h-220zM213 218h158l-79 197zM153 553v62h247v-62h-247z" />
    <glyph glyph-name="Abreve.smcp" unicode="&#xf66d;" 
d="M8 0v65h64l147 357h-68v65h193l172 -422h66v-65h-226v65h76l-36 88h-208l-36 -88h76v-65h-220zM213 218h158l-79 197zM281 541c-78 0 -132 52 -136 132h59c6 -47 35 -67 77 -67s71 20 77 67h59c-4 -80 -58 -132 -136 -132z" />
    <glyph glyph-name="Aogonek.smcp" unicode="&#xf66f;" 
d="M495 -191c-53 0 -95 24 -95 76c0 50 38 87 82 115h-126v65h76l-36 88h-208l-36 -88h76v-65h-220v65h64l147 357h-68v65h193l172 -422h66v-65h-41c-34 -23 -68 -58 -68 -100c0 -28 16 -39 43 -39c21 0 41 6 54 13l5 -48c-20 -9 -50 -17 -80 -17zM213 218h158l-79 197z" />
    <glyph glyph-name="AE.smcp" unicode="&#xf7e6;" horiz-adv-x="799" 
d="M8 0v66h60l247 356h-58v65h493v-141h-77v76h-177v-144h191v-65h-191v-147h179v78h78v-144h-405v65h68v88h-198l-61 -88h62v-65h-211zM402 422l-143 -207h157v207h-14z" />
    <glyph glyph-name="AEacute.smcp" unicode="&#xf670;" horiz-adv-x="799" 
d="M8 0v66h60l247 356h-58v65h493v-141h-77v76h-177v-144h191v-65h-191v-147h179v78h78v-144h-405v65h68v88h-198l-61 -88h62v-65h-211zM402 422l-143 -207h157v207h-14zM448 537l-27 33l147 145l54 -68z" />
    <glyph glyph-name="Ccedilla.smcp" unicode="&#xf7e7;" horiz-adv-x="528" 
d="M269 -192c-20 0 -45 2 -60 5l10 47c13 -3 30 -5 45 -5c29 0 54 7 54 31c0 28 -36 33 -69 33v18l28 55c-141 10 -239 97 -239 248c0 162 113 257 270 257c68 0 133 -17 181 -38v-132h-79v87c-29 10 -67 15 -99 15c-110 0 -187 -65 -187 -183s76 -187 191 -187
c69 0 130 25 175 47v-71c-40 -23 -98 -41 -165 -44l-15 -35c40 -3 78 -26 78 -71c0 -55 -56 -77 -119 -77z" />
    <glyph glyph-name="Cacute.smcp" unicode="&#xf671;" horiz-adv-x="528" 
d="M307 -10c-156 0 -269 89 -269 250c0 162 113 257 270 257c68 0 133 -17 181 -38v-132h-79v87c-29 10 -67 15 -99 15c-110 0 -187 -65 -187 -183s76 -187 191 -187c69 0 130 25 175 47v-71c-43 -24 -107 -45 -183 -45zM246 542l-26 32l146 145l54 -67z" />
    <glyph glyph-name="Ccircumflex.smcp" unicode="&#xf673;" horiz-adv-x="528" 
d="M307 -10c-156 0 -269 89 -269 250c0 162 113 257 270 257c68 0 133 -17 181 -38v-132h-79v87c-29 10 -67 15 -99 15c-110 0 -187 -65 -187 -183s76 -187 191 -187c69 0 130 25 175 47v-71c-43 -24 -107 -45 -183 -45zM166 542l-20 24l126 124h53l125 -124l-19 -24
l-133 70z" />
    <glyph glyph-name="Cdotaccent.smcp" unicode="&#xf674;" horiz-adv-x="528" 
d="M307 -10c-156 0 -269 89 -269 250c0 162 113 257 270 257c68 0 133 -17 181 -38v-132h-79v87c-29 10 -67 15 -99 15c-110 0 -187 -65 -187 -183s76 -187 191 -187c69 0 130 25 175 47v-71c-43 -24 -107 -45 -183 -45zM297 546c-30 0 -53 23 -53 53s23 54 53 54
s54 -24 54 -54s-24 -53 -54 -53z" />
    <glyph glyph-name="Ccaron.smcp" unicode="&#xf672;" horiz-adv-x="528" 
d="M307 -10c-156 0 -269 89 -269 250c0 162 113 257 270 257c68 0 133 -17 181 -38v-132h-79v87c-29 10 -67 15 -99 15c-110 0 -187 -65 -187 -183s76 -187 191 -187c69 0 130 25 175 47v-71c-43 -24 -107 -45 -183 -45zM273 547l-125 123l19 25l133 -71l132 71l20 -25
l-126 -123h-53z" />
    <glyph glyph-name="Dcaron.smcp" unicode="&#xf675;" horiz-adv-x="580" 
d="M40 0v65h73v357h-73v65h228c174 0 273 -95 273 -243c0 -149 -99 -244 -273 -244h-228zM196 66h72c122 0 187 66 187 177s-65 179 -187 179h-72v-356zM258 542l-125 123l19 25l132 -71l133 71l20 -25l-126 -123h-53z" />
    <glyph glyph-name="Dcroat.smcp" unicode="&#xf676;" horiz-adv-x="581" 
d="M47 215v61h66v146h-73v65h228c174 0 274 -95 274 -243c0 -149 -100 -244 -274 -244h-228v65h73v150h-66zM197 66h72c121 0 187 66 187 177s-66 179 -187 179h-72v-146h128v-61h-128v-149z" />
    <glyph glyph-name="Egrave.smcp" unicode="&#xf7e8;" horiz-adv-x="506" 
d="M40 0v65h73v357h-73v65h416v-141h-76v76h-184v-144h197v-65h-197v-147h186v78h77v-144h-419zM314 537l-174 110l54 68l147 -145z" />
    <glyph glyph-name="Eacute.smcp" unicode="&#xf7e9;" horiz-adv-x="506" 
d="M40 0v65h73v357h-73v65h416v-141h-76v76h-184v-144h197v-65h-197v-147h186v78h77v-144h-419zM207 537l-27 33l146 145l55 -68z" />
    <glyph glyph-name="Ecircumflex.smcp" unicode="&#xf7ea;" horiz-adv-x="506" 
d="M40 0v65h73v357h-73v65h416v-141h-76v76h-184v-144h197v-65h-197v-147h186v78h77v-144h-419zM128 537l-19 25l125 123h53l125 -123l-18 -25l-134 70z" />
    <glyph glyph-name="Edieresis.smcp" unicode="&#xf7eb;" horiz-adv-x="506" 
d="M40 0v65h73v357h-73v65h416v-141h-76v76h-184v-144h197v-65h-197v-147h186v78h77v-144h-419zM178 543c-28 0 -50 22 -50 49c0 28 22 50 50 50c27 0 49 -22 49 -50c0 -27 -22 -49 -49 -49zM344 543c-27 0 -49 22 -49 49c0 28 22 50 49 50c28 0 50 -22 50 -50
c0 -27 -22 -49 -50 -49z" />
    <glyph glyph-name="Emacron.smcp" unicode="&#xf67a;" horiz-adv-x="506" 
d="M40 0v65h73v357h-73v65h416v-141h-76v76h-184v-144h197v-65h-197v-147h186v78h77v-144h-419zM140 553v62h247v-62h-247z" />
    <glyph glyph-name="Ebreve.smcp" unicode="&#xf677;" horiz-adv-x="506" 
d="M40 0v65h73v357h-73v65h416v-141h-76v76h-184v-144h197v-65h-197v-147h186v78h77v-144h-419zM265 541c-78 0 -133 52 -136 132h59c6 -47 35 -67 77 -67c41 0 71 20 76 67h60c-4 -80 -59 -132 -136 -132z" />
    <glyph glyph-name="Edotaccent.smcp" unicode="&#xf679;" horiz-adv-x="506" 
d="M40 0v65h73v357h-73v65h416v-141h-76v76h-184v-144h197v-65h-197v-147h186v78h77v-144h-419zM266 541c-30 0 -53 24 -53 53c0 30 23 54 53 54s54 -24 54 -54c0 -29 -24 -53 -54 -53z" />
    <glyph glyph-name="Eogonek.smcp" unicode="&#xf67c;" horiz-adv-x="506" 
d="M40 0v65h73v357h-73v65h416v-141h-76v76h-184v-144h197v-65h-197v-147h186v78h77v-144h-23c-33 -23 -67 -58 -67 -100c0 -28 15 -39 42 -39c21 0 41 6 54 13l5 -48c-19 -9 -50 -17 -80 -17c-53 0 -94 24 -94 76c0 50 38 87 81 115h-337z" />
    <glyph glyph-name="Ecaron.smcp" unicode="&#xf678;" horiz-adv-x="506" 
d="M40 0v65h73v357h-73v65h416v-141h-76v76h-184v-144h197v-65h-197v-147h186v78h77v-144h-419zM240 542l-125 123l19 25l133 -71l133 71l19 -25l-126 -123h-53z" />
    <glyph glyph-name="Eth.smcp" unicode="&#xf7f0;" horiz-adv-x="581" 
d="M47 215v61h66v146h-73v65h228c174 0 274 -95 274 -243c0 -149 -100 -244 -274 -244h-228v65h73v150h-66zM197 66h72c121 0 187 66 187 177s-66 179 -187 179h-72v-146h128v-61h-128v-149z" />
    <glyph glyph-name="Gcircumflex.smcp" unicode="&#xf67e;" horiz-adv-x="585" 
d="M313 -10c-182 0 -275 102 -275 252c0 163 112 255 279 255c72 0 141 -17 190 -36v-123h-78v76c-27 7 -68 15 -108 15c-117 0 -198 -64 -198 -182c0 -99 56 -189 193 -189c50 0 89 12 123 24v116h-112v64h231v-64h-42v-163c-51 -21 -116 -45 -203 -45zM176 542l-19 25
l125 123h53l126 -123l-19 -25l-134 70z" />
    <glyph glyph-name="Gbreve.smcp" unicode="&#xf67d;" horiz-adv-x="585" 
d="M313 -10c-182 0 -275 102 -275 252c0 163 112 255 279 255c72 0 141 -17 190 -36v-123h-78v76c-27 7 -68 15 -108 15c-117 0 -198 -64 -198 -182c0 -99 56 -189 193 -189c50 0 89 12 123 24v116h-112v64h231v-64h-42v-163c-51 -21 -116 -45 -203 -45zM309 545
c-78 0 -133 53 -136 133h59c5 -47 35 -67 77 -67c41 0 70 20 76 67h60c-4 -80 -59 -133 -136 -133z" />
    <glyph glyph-name="Gdotaccent.smcp" unicode="&#xf680;" horiz-adv-x="585" 
d="M313 -10c-182 0 -275 102 -275 252c0 163 112 255 279 255c72 0 141 -17 190 -36v-123h-78v76c-27 7 -68 15 -108 15c-117 0 -198 -64 -198 -182c0 -99 56 -189 193 -189c50 0 89 12 123 24v116h-112v64h231v-64h-42v-163c-51 -21 -116 -45 -203 -45zM312 546
c-31 0 -54 23 -54 53s23 54 54 54c29 0 53 -24 53 -54s-24 -53 -53 -53z" />
    <glyph glyph-name="Gcommaaccent.smcp" unicode="&#xf67f;" horiz-adv-x="585" 
d="M313 -63c35 0 53 -29 53 -61c0 -44 -33 -94 -77 -130l-35 27c21 25 40 53 40 86c0 29 -13 45 -32 53v8c15 10 34 17 51 17zM313 -10c-182 0 -275 102 -275 252c0 163 112 255 279 255c72 0 141 -17 190 -36v-123h-78v76c-27 7 -68 15 -108 15c-117 0 -198 -64 -198 -182
c0 -99 56 -189 193 -189c50 0 89 12 123 24v116h-112v64h231v-64h-42v-163c-51 -21 -116 -45 -203 -45z" />
    <glyph glyph-name="Hcircumflex.smcp" unicode="&#xf682;" horiz-adv-x="650" 
d="M40 0v65h73v357h-73v65h229v-65h-73v-143h258v143h-73v65h229v-65h-72v-357h72v-65h-229v65h73v147h-258v-147h73v-65h-229zM193 537l-20 25l125 123h54l125 -123l-19 -25l-133 70z" />
    <glyph glyph-name="Hbar.smcp" unicode="&#xf681;" horiz-adv-x="649" 
d="M47 335v36h65v51h-73v65h229v-65h-72v-51h257v51h-72v65h229v-65h-73v-51h65v-36h-65v-270h73v-65h-229v65h72v147h-257v-147h72v-65h-229v65h73v270h-65zM196 279h257v57h-257v-57z" />
    <glyph glyph-name="Igrave.smcp" unicode="&#xf7ec;" horiz-adv-x="309" 
d="M40 0v65h73v357h-73v65h229v-65h-73v-357h73v-65h-229zM219 537l-174 110l54 68l147 -145z" />
    <glyph glyph-name="Iacute.smcp" unicode="&#xf7ed;" horiz-adv-x="309" 
d="M40 0v65h73v357h-73v65h229v-65h-73v-357h73v-65h-229zM98 537l-27 33l146 145l55 -68z" />
    <glyph glyph-name="Icircumflex.smcp" unicode="&#xf7ee;" horiz-adv-x="309" 
d="M40 0v65h73v357h-73v65h229v-65h-73v-357h73v-65h-229zM22 537l-19 25l125 123h53l125 -123l-18 -25l-134 70z" />
    <glyph glyph-name="Idieresis.smcp" unicode="&#xf7ef;" horiz-adv-x="309" 
d="M40 0v65h73v357h-73v65h229v-65h-73v-357h73v-65h-229zM71 543c-28 0 -50 22 -50 49c0 28 22 50 50 50s50 -22 50 -50c0 -27 -22 -49 -50 -49zM238 543c-28 0 -50 22 -50 49c0 28 22 50 50 50s50 -22 50 -50c0 -27 -22 -49 -50 -49z" />
    <glyph glyph-name="Itilde.smcp" unicode="&#xf687;" horiz-adv-x="309" 
d="M40 0v65h73v357h-73v65h229v-65h-73v-357h73v-65h-229zM26 541l-32 15c18 43 41 101 95 101c48 0 86 -45 129 -45c26 0 44 17 60 48l31 -17c-17 -43 -45 -100 -98 -100c-46 0 -90 44 -126 44c-23 0 -43 -15 -59 -46z" />
    <glyph glyph-name="Imacron.smcp" unicode="&#xf685;" horiz-adv-x="309" 
d="M40 0v65h73v357h-73v65h229v-65h-73v-357h73v-65h-229zM31 553v62h247v-62h-247z" />
    <glyph glyph-name="Ibreve.smcp" unicode="&#xf683;" horiz-adv-x="309" 
d="M40 0v65h73v357h-73v65h229v-65h-73v-357h73v-65h-229zM154 541c-78 0 -132 52 -136 132h59c6 -47 35 -67 77 -67s71 20 77 67h59c-4 -80 -58 -132 -136 -132z" />
    <glyph glyph-name="Iogonek.smcp" unicode="&#xf686;" horiz-adv-x="309" 
d="M40 0v65h73v357h-73v65h229v-65h-73v-357h73v-65h-57c-33 -23 -67 -58 -67 -100c0 -28 15 -39 42 -39c21 0 41 6 54 13l5 -48c-19 -9 -50 -17 -80 -17c-53 0 -94 24 -94 76c0 50 38 87 81 115h-113z" />
    <glyph glyph-name="Idotaccent.smcp" unicode="&#xf6ad;" horiz-adv-x="309" 
d="M40 0v65h73v357h-73v65h229v-65h-73v-357h73v-65h-229zM154 541c-30 0 -53 24 -53 53c0 30 23 54 53 54s54 -24 54 -54c0 -29 -24 -53 -54 -53z" />
    <glyph glyph-name="Jcircumflex.smcp" unicode="&#xf688;" horiz-adv-x="290" 
d="M45 -145l-25 58c28 14 83 46 83 99v410h-73v65h230v-65h-73v-412c0 -102 -87 -135 -142 -155zM11 537l-20 25l126 123h53l125 -123l-19 -25l-133 70z" />
    <glyph glyph-name="Kcommaaccent.smcp" unicode="&#xf689;" horiz-adv-x="586" 
d="M332 -58c35 0 53 -29 53 -61c0 -44 -33 -94 -77 -130l-36 27c22 25 41 53 41 86c0 29 -13 45 -32 53v8c15 10 33 17 51 17zM435 0l-211 241v2l182 180h-73v64h225v-65h-63l-175 -173l166 -184h78v-65h-129zM40 0v65h73v357h-73v65h229v-65h-73v-357h73v-65h-229z" />
    <glyph glyph-name="Lacute.smcp" unicode="&#xf68a;" horiz-adv-x="477" 
d="M40 0v65h73v357h-73v65h238v-65h-82v-356h183v83h77v-149h-416zM132 537l-27 33l146 145l54 -68z" />
    <glyph glyph-name="Lcommaaccent.smcp" unicode="&#xf68c;" horiz-adv-x="477" 
d="M275 -58c36 0 53 -29 53 -61c0 -44 -33 -94 -77 -130l-35 27c21 25 40 53 40 86c0 29 -13 45 -31 53v8c14 10 33 17 50 17zM40 0v65h73v357h-73v65h238v-65h-82v-356h183v83h77v-149h-416z" />
    <glyph glyph-name="Lcaron.smcp" unicode="&#xf68b;" horiz-adv-x="483" 
d="M379 494c36 0 53 -30 53 -61c0 -44 -33 -94 -77 -130l-35 27c21 25 40 52 40 86c0 29 -13 45 -31 53v8c14 10 33 17 50 17zM40 0v65h73v357h-73v65h238v-65h-82v-356h183v83h77v-149h-416z" />
    <glyph glyph-name="Ldot.smcp" unicode="&#xf68d;" horiz-adv-x="478" 
d="M40 0v65h73v357h-73v65h238v-65h-82v-356h183v83h77v-149h-416zM369 221c-30 0 -53 24 -53 54c0 29 23 53 53 53s54 -24 54 -53c0 -30 -24 -54 -54 -54z" />
    <glyph glyph-name="Lslash.smcp" unicode="&#xf6f9;" horiz-adv-x="477" 
d="M59 174l-20 42l74 35v171h-73v65h238v-65h-82v-134l140 66l20 -43l-160 -75v-170h183v83h77v-149h-416v65h73v134z" />
    <glyph glyph-name="Ntilde.smcp" unicode="&#xf7f1;" horiz-adv-x="642" 
d="M40 0v65h73v357h-73v65h156l265 -363v298h-79v65h230v-65h-73v-422h-74l-274 372v-307h78v-65h-229zM197 541l-32 15c18 43 41 101 95 101c48 0 86 -45 129 -45c26 0 44 17 60 48l31 -17c-17 -43 -45 -100 -98 -100c-46 0 -90 44 -126 44c-23 0 -43 -15 -59 -46z" />
    <glyph glyph-name="Nacute.smcp" unicode="&#xf68e;" horiz-adv-x="642" 
d="M40 0v65h73v357h-73v65h156l265 -363v298h-79v65h230v-65h-73v-422h-74l-274 372v-307h78v-65h-229zM277 537l-27 33l146 145l54 -68z" />
    <glyph glyph-name="Ncommaaccent.smcp" unicode="&#xf690;" horiz-adv-x="642" 
d="M339 -58c35 0 53 -29 53 -61c0 -44 -33 -94 -77 -130l-35 27c21 25 40 53 40 86c0 29 -13 45 -31 53v8c14 10 33 17 50 17zM40 0v65h73v357h-73v65h156l265 -363v298h-79v65h230v-65h-73v-422h-74l-274 372v-307h78v-65h-229z" />
    <glyph glyph-name="Ncaron.smcp" unicode="&#xf68f;" horiz-adv-x="642" 
d="M40 0v65h73v357h-73v65h156l265 -363v298h-79v65h230v-65h-73v-422h-74l-274 372v-307h78v-65h-229zM296 542l-125 123l19 25l133 -71l132 71l20 -25l-126 -123h-53z" />
    <glyph glyph-name="Eng.smcp" unicode="&#xf67b;" horiz-adv-x="642" 
d="M397 -145l-25 58c28 14 83 46 83 99v12l-264 348v-307h78v-65h-229v65h73v357h-73v65h156l265 -352v287h-79v65h230v-65h-73v-410c0 -103 -87 -137 -142 -157z" />
    <glyph glyph-name="Ograve.smcp" unicode="&#xf7f2;" horiz-adv-x="599" 
d="M300 -10c-159 0 -262 105 -262 253c0 149 103 254 262 254c158 0 262 -105 262 -254c0 -148 -104 -253 -262 -253zM300 58c102 0 176 72 176 185c0 114 -74 186 -176 186c-103 0 -177 -72 -177 -186c0 -113 74 -185 177 -185zM338 542l-174 110l55 67l146 -145z" />
    <glyph glyph-name="Oacute.smcp" unicode="&#xf7f3;" horiz-adv-x="599" 
d="M300 -10c-159 0 -262 105 -262 253c0 149 103 254 262 254c158 0 262 -105 262 -254c0 -148 -104 -253 -262 -253zM300 58c102 0 176 72 176 185c0 114 -74 186 -176 186c-103 0 -177 -72 -177 -186c0 -113 74 -185 177 -185zM253 542l-27 32l147 145l54 -67z" />
    <glyph glyph-name="Ocircumflex.smcp" unicode="&#xf7f4;" horiz-adv-x="599" 
d="M300 -10c-159 0 -262 105 -262 253c0 149 103 254 262 254c158 0 262 -105 262 -254c0 -148 -104 -253 -262 -253zM300 58c102 0 176 72 176 185c0 114 -74 186 -176 186c-103 0 -177 -72 -177 -186c0 -113 74 -185 177 -185zM168 542l-20 24l125 124h54l125 -124
l-19 -24l-133 70z" />
    <glyph glyph-name="Otilde.smcp" unicode="&#xf7f5;" horiz-adv-x="599" 
d="M300 -10c-159 0 -262 105 -262 253c0 149 103 254 262 254c158 0 262 -105 262 -254c0 -148 -104 -253 -262 -253zM300 58c102 0 176 72 176 185c0 114 -74 186 -176 186c-103 0 -177 -72 -177 -186c0 -113 74 -185 177 -185zM171 545l-32 15c18 44 41 101 95 101
c48 0 86 -45 129 -45c26 0 44 17 60 49l31 -17c-17 -43 -45 -100 -98 -100c-46 0 -90 44 -126 44c-23 0 -43 -16 -59 -47z" />
    <glyph glyph-name="Odieresis.smcp" unicode="&#xf7f6;" horiz-adv-x="599" 
d="M300 -10c-159 0 -262 105 -262 253c0 149 103 254 262 254c158 0 262 -105 262 -254c0 -148 -104 -253 -262 -253zM300 58c102 0 176 72 176 185c0 114 -74 186 -176 186c-103 0 -177 -72 -177 -186c0 -113 74 -185 177 -185zM217 547c-28 0 -50 23 -50 50
c0 28 22 50 50 50c27 0 49 -22 49 -50c0 -27 -22 -50 -49 -50zM383 547c-27 0 -49 23 -49 50c0 28 22 50 49 50c28 0 50 -22 50 -50c0 -27 -22 -50 -50 -50z" />
    <glyph glyph-name="Omacron.smcp" unicode="&#xf693;" horiz-adv-x="599" 
d="M300 -10c-159 0 -262 105 -262 253c0 149 103 254 262 254c158 0 262 -105 262 -254c0 -148 -104 -253 -262 -253zM300 58c102 0 176 72 176 185c0 114 -74 186 -176 186c-103 0 -177 -72 -177 -186c0 -113 74 -185 177 -185zM176 558v61h247v-61h-247z" />
    <glyph glyph-name="Obreve.smcp" unicode="&#xf691;" horiz-adv-x="599" 
d="M300 -10c-159 0 -262 105 -262 253c0 149 103 254 262 254c158 0 262 -105 262 -254c0 -148 -104 -253 -262 -253zM300 58c102 0 176 72 176 185c0 114 -74 186 -176 186c-103 0 -177 -72 -177 -186c0 -113 74 -185 177 -185zM299 545c-78 0 -132 53 -136 133h59
c6 -47 35 -67 77 -67s71 20 77 67h60c-5 -80 -59 -133 -137 -133z" />
    <glyph glyph-name="Ohungarumlaut.smcp" unicode="&#xf692;" horiz-adv-x="599" 
d="M300 -10c-159 0 -262 105 -262 253c0 149 103 254 262 254c158 0 262 -105 262 -254c0 -148 -104 -253 -262 -253zM300 58c102 0 176 72 176 185c0 114 -74 186 -176 186c-103 0 -177 -72 -177 -186c0 -113 74 -185 177 -185zM198 541l-27 25l111 158l58 -54zM346 541
l-27 25l111 158l58 -54z" />
    <glyph glyph-name="Oslash.smcp" unicode="&#xf7f8;" horiz-adv-x="598" 
d="M299 -10c-64 0 -117 16 -160 45l-43 -48l-29 24l42 49c-46 44 -72 108 -72 183c0 149 103 254 262 254c62 0 117 -17 159 -46l44 49l29 -25l-44 -48c47 -45 74 -109 74 -184c0 -148 -104 -253 -262 -253zM299 429c-103 0 -177 -72 -177 -186c0 -50 15 -93 41 -124
l245 275c-30 23 -67 35 -109 35zM299 58c102 0 176 72 176 185c0 51 -15 93 -41 124l-244 -275c29 -22 66 -34 109 -34z" />
    <glyph glyph-name="Oslashacute.smcp" unicode="&#xf694;" horiz-adv-x="598" 
d="M299 -10c-64 0 -117 16 -160 45l-43 -48l-29 24l42 49c-46 44 -72 108 -72 183c0 149 103 254 262 254c62 0 117 -17 159 -46l44 49l29 -25l-44 -48c47 -45 74 -109 74 -184c0 -148 -104 -253 -262 -253zM299 429c-103 0 -177 -72 -177 -186c0 -50 15 -93 41 -124
l245 275c-30 23 -67 35 -109 35zM299 58c102 0 176 72 176 185c0 51 -15 93 -41 124l-244 -275c29 -22 66 -34 109 -34zM252 542l-27 32l147 145l54 -67z" />
    <glyph glyph-name="OE.smcp" unicode="&#xe04a;" horiz-adv-x="738" 
d="M295 0c-158 0 -256 93 -256 243s98 244 256 244h394v-141h-77v76h-177v-144h191v-65h-191v-147h179v78h78v-144h-397zM295 68h60v352h-59c-109 0 -171 -69 -171 -177c0 -106 62 -175 170 -175z" />
    <glyph glyph-name="Racute.smcp" unicode="&#xf695;" horiz-adv-x="552" 
d="M40 0v65h73v357h-73v65h243c127 0 202 -66 202 -152c0 -59 -35 -112 -108 -132l78 -139h71v-64h-130l-99 182c-8 -1 -17 -1 -23 -1h-78v-116h73v-65h-229zM196 246h87c86 0 118 40 118 87c0 49 -33 89 -118 89h-87v-176zM218 537l-27 33l147 145l54 -68z" />
    <glyph glyph-name="Rcommaaccent.smcp" unicode="&#xf697;" horiz-adv-x="552" 
d="M306 -58c35 0 53 -29 53 -61c0 -44 -33 -94 -77 -130l-35 27c21 25 40 53 40 86c0 29 -13 45 -32 53v8c15 10 34 17 51 17zM40 0v65h73v357h-73v65h243c127 0 202 -66 202 -152c0 -59 -35 -112 -108 -132l78 -139h71v-64h-130l-99 182c-8 -1 -17 -1 -23 -1h-78v-116h73
v-65h-229zM196 246h87c86 0 118 40 118 87c0 49 -33 89 -118 89h-87v-176z" />
    <glyph glyph-name="Rcaron.smcp" unicode="&#xf696;" horiz-adv-x="552" 
d="M40 0v65h73v357h-73v65h243c127 0 202 -66 202 -152c0 -59 -35 -112 -108 -132l78 -139h71v-64h-130l-99 182c-8 -1 -17 -1 -23 -1h-78v-116h73v-65h-229zM196 246h87c86 0 118 40 118 87c0 49 -33 89 -118 89h-87v-176zM242 542l-125 123l19 25l133 -71l133 71l19 -25
l-126 -123h-53z" />
    <glyph glyph-name="Sacute.smcp" unicode="&#xf698;" horiz-adv-x="446" 
d="M217 -10c-60 0 -123 12 -173 27v124h77v-73c25 -7 68 -12 97 -12c51 0 106 16 106 67c0 114 -271 63 -271 238c0 94 76 136 181 136c55 0 114 -12 155 -24v-121h-76v72c-21 4 -54 8 -79 8c-58 0 -100 -22 -100 -65c0 -110 272 -62 272 -241c0 -98 -81 -136 -189 -136z
M180 542l-27 33l146 145l55 -68z" />
    <glyph glyph-name="Scircumflex.smcp" unicode="&#xf69a;" horiz-adv-x="446" 
d="M217 -10c-60 0 -123 12 -173 27v124h77v-73c25 -7 68 -12 97 -12c51 0 106 16 106 67c0 114 -271 63 -271 238c0 94 76 136 181 136c55 0 114 -12 155 -24v-121h-76v72c-21 4 -54 8 -79 8c-58 0 -100 -22 -100 -65c0 -110 272 -62 272 -241c0 -98 -81 -136 -189 -136z
M101 542l-20 24l125 124h54l125 -124l-19 -24l-133 70z" />
    <glyph glyph-name="Scedilla.smcp" unicode="&#xf699;" horiz-adv-x="447" 
d="M190 -192c-19 0 -45 2 -60 5l11 47c12 -3 29 -5 45 -5c29 0 53 7 53 31c0 28 -35 33 -68 33v18l27 54c-55 2 -109 12 -154 26v124h77v-73c25 -7 68 -12 97 -12c51 0 106 16 106 67c0 114 -271 63 -271 238c0 94 76 136 181 136c55 0 114 -12 155 -24v-121h-76v72
c-21 4 -54 8 -79 8c-58 0 -100 -22 -100 -65c0 -110 272 -62 272 -241c0 -88 -66 -128 -159 -135l-15 -35c39 -3 77 -26 77 -71c0 -55 -56 -77 -119 -77z" />
    <glyph glyph-name="Scaron.smcp" unicode="&#xf6fd;" horiz-adv-x="446" 
d="M217 -10c-60 0 -123 12 -173 27v124h77v-73c25 -7 68 -12 97 -12c51 0 106 16 106 67c0 114 -271 63 -271 238c0 94 76 136 181 136c55 0 114 -12 155 -24v-121h-76v72c-21 4 -54 8 -79 8c-58 0 -100 -22 -100 -65c0 -110 272 -62 272 -241c0 -98 -81 -136 -189 -136z
M204 547l-125 123l19 25l133 -71l133 71l19 -25l-126 -123h-53z" />
    <glyph glyph-name="Scommaaccent.smcp" unicode="&#xf69b;" horiz-adv-x="446" 
d="M235 -63c35 0 53 -29 53 -61c0 -44 -33 -94 -77 -130l-35 27c21 25 40 53 40 86c0 29 -13 45 -32 53v8c15 10 34 17 51 17zM217 -10c-60 0 -123 12 -173 27v124h77v-73c25 -7 68 -12 97 -12c51 0 106 16 106 67c0 114 -271 63 -271 238c0 94 76 136 181 136
c55 0 114 -12 155 -24v-121h-76v72c-21 4 -54 8 -79 8c-58 0 -100 -22 -100 -65c0 -110 272 -62 272 -241c0 -98 -81 -136 -189 -136z" />
    <glyph glyph-name="Tcommaaccent.smcp" unicode="&#xf69e;" horiz-adv-x="505" 
d="M254 -58c36 0 54 -29 54 -61c0 -44 -34 -94 -77 -130l-36 27c22 25 41 53 41 86c0 29 -14 45 -32 53v8c15 10 33 17 50 17zM130 0v65h80v357h-110v-82h-76v147h457v-147h-76v82h-111v-357h81v-65h-245z" />
    <glyph glyph-name="uni021A.smcp" horiz-adv-x="505" 
d="M254 -58c36 0 54 -29 54 -61c0 -44 -34 -94 -77 -130l-36 27c22 25 41 53 41 86c0 29 -14 45 -32 53v8c15 10 33 17 50 17zM130 0v65h80v357h-110v-82h-76v147h457v-147h-76v82h-111v-357h81v-65h-245z" />
    <glyph glyph-name="Tcaron.smcp" unicode="&#xf69d;" horiz-adv-x="505" 
d="M130 0v65h80v357h-110v-82h-76v147h457v-147h-76v82h-111v-357h81v-65h-245zM225 542l-124 123l18 25l133 -71l133 71l19 -25l-126 -123h-53z" />
    <glyph glyph-name="Tbar.smcp" unicode="&#xf69c;" horiz-adv-x="507" 
d="M101 206v50h110v166h-110v-82h-76v147h457v-147h-76v82h-111v-166h111v-50h-111v-141h81v-65h-245v65h80v141h-110z" />
    <glyph glyph-name="Thorn.smcp" unicode="&#xf7fe;" horiz-adv-x="492" 
d="M42 0v65h68v357h-68v65h237v-65h-85v-36h82c121 0 190 -50 190 -140c0 -86 -63 -141 -191 -141h-81v-40h85v-65h-237zM194 169h84c73 0 104 29 104 77s-32 75 -104 75h-84v-152z" />
    <glyph glyph-name="Ugrave.smcp" unicode="&#xf7f9;" horiz-adv-x="600" 
d="M301 -10c-108 0 -202 50 -202 173v259h-72v65h229v-65h-74v-256c0 -79 56 -107 121 -107c67 0 121 29 121 107v256h-76v65h225v-65h-71v-252c0 -113 -76 -180 -201 -180zM342 537l-174 110l54 68l147 -145z" />
    <glyph glyph-name="Uacute.smcp" unicode="&#xf7fa;" horiz-adv-x="600" 
d="M301 -10c-108 0 -202 50 -202 173v259h-72v65h229v-65h-74v-256c0 -79 56 -107 121 -107c67 0 121 29 121 107v256h-76v65h225v-65h-71v-252c0 -113 -76 -180 -201 -180zM259 537l-27 33l146 145l55 -68z" />
    <glyph glyph-name="Ucircumflex.smcp" unicode="&#xf7fb;" horiz-adv-x="600" 
d="M301 -10c-108 0 -202 50 -202 173v259h-72v65h229v-65h-74v-256c0 -79 56 -107 121 -107c67 0 121 29 121 107v256h-76v65h225v-65h-71v-252c0 -113 -76 -180 -201 -180zM171 537l-19 25l125 123h53l126 -123l-19 -25l-134 70z" />
    <glyph glyph-name="Udieresis.smcp" unicode="&#xf7fc;" horiz-adv-x="600" 
d="M301 -10c-108 0 -202 50 -202 173v259h-72v65h229v-65h-74v-256c0 -79 56 -107 121 -107c67 0 121 29 121 107v256h-76v65h225v-65h-71v-252c0 -113 -76 -180 -201 -180zM219 543c-28 0 -50 22 -50 49c0 28 22 50 50 50s50 -22 50 -50c0 -27 -22 -49 -50 -49zM386 543
c-28 0 -50 22 -50 49c0 28 22 50 50 50s50 -22 50 -50c0 -27 -22 -49 -50 -49z" />
    <glyph glyph-name="Utilde.smcp" unicode="&#xf6a4;" horiz-adv-x="600" 
d="M301 -10c-108 0 -202 50 -202 173v259h-72v65h229v-65h-74v-256c0 -79 56 -107 121 -107c67 0 121 29 121 107v256h-76v65h225v-65h-71v-252c0 -113 -76 -180 -201 -180zM175 541l-31 15c17 43 40 101 94 101c48 0 87 -45 129 -45c26 0 44 17 60 48l31 -17
c-17 -43 -45 -100 -97 -100c-46 0 -90 44 -127 44c-23 0 -43 -15 -59 -46z" />
    <glyph glyph-name="Umacron.smcp" unicode="&#xf6a1;" horiz-adv-x="600" 
d="M301 -10c-108 0 -202 50 -202 173v259h-72v65h229v-65h-74v-256c0 -79 56 -107 121 -107c67 0 121 29 121 107v256h-76v65h225v-65h-71v-252c0 -113 -76 -180 -201 -180zM178 553v62h247v-62h-247z" />
    <glyph glyph-name="Ubreve.smcp" unicode="&#xf69f;" horiz-adv-x="600" 
d="M301 -10c-108 0 -202 50 -202 173v259h-72v65h229v-65h-74v-256c0 -79 56 -107 121 -107c67 0 121 29 121 107v256h-76v65h225v-65h-71v-252c0 -113 -76 -180 -201 -180zM302 541c-78 0 -132 52 -136 132h59c6 -47 35 -67 77 -67s71 20 76 67h60
c-4 -80 -59 -132 -136 -132z" />
    <glyph glyph-name="Uring.smcp" unicode="&#xf6a3;" horiz-adv-x="600" 
d="M301 -10c-108 0 -202 50 -202 173v259h-72v65h229v-65h-74v-256c0 -79 56 -107 121 -107c67 0 121 29 121 107v256h-76v65h225v-65h-71v-252c0 -113 -76 -180 -201 -180zM304 535c-70 0 -107 44 -107 97s37 97 107 97c69 0 106 -44 106 -97s-37 -97 -106 -97zM304 581
c30 0 45 23 45 51c0 27 -15 51 -45 51s-46 -24 -46 -51c0 -28 16 -51 46 -51z" />
    <glyph glyph-name="Uhungarumlaut.smcp" unicode="&#xf6a0;" horiz-adv-x="600" 
d="M301 -10c-108 0 -202 50 -202 173v259h-72v65h229v-65h-74v-256c0 -79 56 -107 121 -107c67 0 121 29 121 107v256h-76v65h225v-65h-71v-252c0 -113 -76 -180 -201 -180zM206 537l-27 24l111 158l58 -54zM354 537l-27 24l111 158l58 -54z" />
    <glyph glyph-name="Uogonek.smcp" unicode="&#xf6a2;" horiz-adv-x="601" 
d="M359 -191c-53 0 -94 24 -94 75c0 44 30 81 66 108c-11 -1 -17 -2 -32 -2c-105 0 -200 50 -200 173v259h-72v65h229v-65h-74v-256c0 -79 56 -107 121 -107c67 0 121 29 121 107v256h-76v65h225v-65h-71v-252c0 -92 -47 -129 -83 -154c-34 -24 -81 -62 -81 -114
c0 -31 18 -41 43 -41c20 0 40 6 53 13l5 -48c-19 -9 -49 -17 -80 -17z" />
    <glyph glyph-name="Wcircumflex.smcp" unicode="&#xf6a6;" horiz-adv-x="802" 
d="M216 0l-145 422h-67v65h227v-62h-77l106 -329l106 290l-15 39h-67v62h226v-62h-77l113 -328l106 327h-76v63h222v-65h-68l-145 -422h-79l-104 284l-107 -284h-79zM264 537l-19 25l125 123h53l126 -123l-19 -25l-134 70z" />
    <glyph glyph-name="Yacute.smcp" unicode="&#xf7fd;" horiz-adv-x="544" 
d="M151 0v65h79v109l-160 248h-67v65h230v-63h-74l115 -177l115 177h-73v63h224v-65h-66l-161 -248v-109h79v-65h-241zM221 537l-27 33l146 145l55 -68z" />
    <glyph glyph-name="Ycircumflex.smcp" unicode="&#xf6a9;" horiz-adv-x="544" 
d="M151 0v65h79v109l-160 248h-67v65h230v-63h-74l115 -177l115 177h-73v63h224v-65h-66l-161 -248v-109h79v-65h-241zM140 537l-19 25l125 123h53l125 -123l-18 -25l-134 70z" />
    <glyph glyph-name="Ydieresis.smcp" unicode="&#xf7ff;" horiz-adv-x="544" 
d="M151 0v65h79v109l-160 248h-67v65h230v-63h-74l115 -177l115 177h-73v63h224v-65h-66l-161 -248v-109h79v-65h-241zM191 543c-28 0 -50 22 -50 49c0 28 22 50 50 50c27 0 49 -22 49 -50c0 -27 -22 -49 -49 -49zM357 543c-27 0 -49 22 -49 49c0 28 22 50 49 50
c28 0 50 -22 50 -50c0 -27 -22 -49 -50 -49z" />
    <glyph glyph-name="Zcaron.smcp" unicode="&#xf6ff;" horiz-adv-x="494" 
d="M40 0v67l299 354h-213v-88h-78v154h393v-68l-299 -353h235v90h77v-156h-414zM222 542l-125 123l19 25l133 -71l132 71l20 -25l-126 -123h-53z" />
    <glyph glyph-name="Zacute.smcp" unicode="&#xf6ab;" horiz-adv-x="494" 
d="M40 0v67l299 354h-213v-88h-78v154h393v-68l-299 -353h235v90h77v-156h-414zM201 537l-27 33l146 145l54 -68z" />
    <glyph glyph-name="Zdotaccent.smcp" unicode="&#xf6ac;" horiz-adv-x="494" 
d="M40 0v67l299 354h-213v-88h-78v154h393v-68l-299 -353h235v90h77v-156h-414zM252 541c-30 0 -54 24 -54 53c0 30 24 54 54 54s53 -24 53 -54c0 -29 -23 -53 -53 -53z" />
    <glyph glyph-name="dieresis.smcp" unicode="&#xf7a8;" horiz-adv-x="372" 
d="M102 543c-28 0 -50 22 -50 49c0 28 22 50 50 50c27 0 49 -22 49 -50c0 -27 -22 -49 -49 -49zM268 543c-27 0 -49 22 -49 49c0 28 22 50 49 50c28 0 50 -22 50 -50c0 -27 -22 -49 -50 -49z" />
    <glyph glyph-name="grave.smcp" unicode="&#xf760;" horiz-adv-x="297" 
d="M223 537l-173 110l54 68l146 -145z" />
    <glyph glyph-name="tilde.smcp" unicode="&#xf6fe;" horiz-adv-x="414" 
d="M83 541l-31 15c17 43 41 101 95 101c48 0 86 -45 129 -45c26 0 44 17 60 48l31 -17c-18 -43 -45 -100 -98 -100c-46 0 -90 44 -126 44c-23 0 -44 -15 -60 -46z" />
    <glyph glyph-name="circumflex.smcp" unicode="&#xf6f6;" horiz-adv-x="388" 
d="M64 537l-20 25l125 123h54l125 -123l-19 -25l-133 70z" />
    <glyph glyph-name="acute.smcp" unicode="&#xf7b4;" horiz-adv-x="300" 
d="M75 537l-27 33l146 145l54 -68z" />
    <glyph glyph-name="ring.smcp" unicode="&#xf6fc;" horiz-adv-x="317" 
d="M158 535c-70 0 -107 44 -107 97s37 97 107 97c68 0 106 -44 106 -97s-38 -97 -106 -97zM158 581c30 0 45 23 45 51c0 27 -15 51 -45 51s-46 -24 -46 -51c0 -28 16 -51 46 -51z" />
    <glyph glyph-name="cedilla.smcp" unicode="&#xf7b8;" horiz-adv-x="267" 
d="M96 -192c-20 0 -45 2 -60 5l10 47c13 -3 30 -5 45 -5c29 0 54 7 54 31c0 28 -36 33 -69 33v18l46 88l41 -10l-26 -59c40 -3 78 -26 78 -71c0 -55 -56 -77 -119 -77z" />
    <glyph glyph-name="caron.smcp" unicode="&#xf6f5;" horiz-adv-x="391" 
d="M166 542l-124 123l18 25l133 -71l133 71l19 -25l-126 -123h-53z" />
    <glyph glyph-name="ogonek.smcp" unicode="&#xf6fb;" horiz-adv-x="256" 
d="M138 -191c-53 0 -95 24 -95 76c0 66 67 109 125 139l26 -17c-36 -24 -78 -61 -78 -107c0 -28 16 -39 43 -39c21 0 41 6 54 13l5 -48c-20 -9 -50 -17 -80 -17z" />
    <glyph glyph-name="breve.smcp" unicode="&#xf6f4;" horiz-adv-x="338" 
d="M170 541c-78 0 -133 52 -136 132h59c6 -47 35 -67 77 -67c41 0 71 20 76 67h60c-4 -80 -59 -132 -136 -132z" />
    <glyph glyph-name="hungarumlaut.smcp" unicode="&#xf6f8;" horiz-adv-x="439" 
d="M84 537l-28 24l111 158l58 -54zM232 537l-28 24l111 158l58 -54z" />
    <glyph glyph-name="dotaccent.smcp" unicode="&#xf6f7;" horiz-adv-x="213" 
d="M106 541c-30 0 -53 24 -53 53c0 30 23 54 53 54s54 -24 54 -54c0 -29 -24 -53 -54 -53z" />
    <glyph glyph-name="macron.smcp" unicode="&#xf7af;" horiz-adv-x="368" 
d="M60 553v62h246v-62h-246z" />
    <glyph glyph-name="onehalf" unicode="&#xbd;" horiz-adv-x="805" 
d="M49 249v51h78v253c-21 -16 -40 -27 -61 -27c-23 0 -36 14 -33 41l102 42h58v-309h64v-51h-208zM511 0l-11 47c67 50 195 123 195 212c0 32 -18 59 -68 59c-23 0 -44 -6 -59 -13c3 -4 5 -12 5 -21c0 -21 -15 -37 -38 -37c-25 0 -39 18 -39 40c0 46 66 81 140 81
c71 0 123 -33 123 -105c0 -91 -85 -158 -167 -209h182v-54h-263zM246 -14l-49 26l345 612l49 -27z" />
    <glyph glyph-name="onequarter" unicode="&#xbc;" horiz-adv-x="772" 
d="M50 248v51h79v254c-21 -17 -41 -27 -62 -27c-23 0 -36 15 -33 41l102 42h58v-310h65v-51h-209zM249 -15l-49 27l346 611l48 -26zM566 0v45h64v49h-172v44c54 66 104 159 110 228c40 8 55 -6 55 -33c0 -50 -58 -146 -97 -191h110v38c14 22 24 45 31 70h26v-108h49v-48h-47
v-49h46v-45h-175z" />
    <glyph glyph-name="threequarters" unicode="&#xbe;" horiz-adv-x="794" 
d="M173 241c-54 0 -136 21 -136 69c0 22 17 39 40 39c22 0 36 -17 36 -35c0 -5 0 -9 -2 -14c13 -6 32 -10 54 -10c51 0 78 23 78 61c0 43 -36 61 -90 61h-32v46h30c50 0 80 20 80 56c0 34 -25 54 -68 54c-18 0 -37 -4 -50 -10c2 -4 3 -9 3 -13c0 -19 -13 -36 -37 -36
s-39 17 -39 38c0 45 65 70 129 70c75 0 128 -34 128 -95c0 -39 -22 -69 -65 -84c45 -12 77 -41 77 -90c0 -69 -63 -107 -136 -107zM272 -15l-49 27l346 611l49 -26zM589 0v45h63v49h-171v44c54 66 103 159 110 228c39 8 55 -6 55 -33c0 -50 -58 -146 -97 -191h110v38
c13 22 23 45 30 70h26v-108h49v-48h-47v-49h46v-45h-174z" />
    <glyph glyph-name="numero" unicode="&#x2116;" horiz-adv-x="1050" 
d="M844 161c-99 0 -162 64 -162 165c0 99 63 165 162 165c98 0 162 -66 162 -165c0 -101 -64 -165 -162 -165zM844 224c54 0 86 41 86 102c0 60 -32 101 -86 101c-53 0 -87 -41 -87 -101c0 -61 34 -102 87 -102zM685 30v64h318v-64h-318zM41 0v68h88v473h-88v68h170
l289 -465v397h-88v68h252v-68h-88v-541h-70l-302 480v-412h89v-68h-252z" />
    <glyph glyph-name="T_h" horiz-adv-x="1069" 
d="M534 0v68h73v470h-271v-467h96v-71h-280v71h96v467h-148v-101h-80v172h591l15 98h66v-337c45 39 100 69 163 69c77 0 126 -46 126 -136v-235h73v-68h-231v68h73v226c0 47 -17 76 -67 76c-51 0 -100 -31 -137 -62v-240h73v-68h-231z" />
    <glyph glyph-name="c_t" horiz-adv-x="788" 
d="M255 -11c-137 0 -221 82 -221 224c0 144 89 226 223 226c29 0 58 -4 84 -10v29c0 79 39 136 145 136h152v-166h128v-69h-128v-239c0 -49 24 -64 68 -64c26 0 50 5 66 11v-64c-26 -8 -54 -14 -91 -14c-77 0 -128 33 -128 126v244h-74v69h74v106h-70c-56 0 -75 -27 -75 -87
v-171h-73v86c-19 6 -45 11 -70 11c-96 0 -143 -63 -143 -157c0 -96 50 -160 145 -160c51 0 100 19 139 41v-69c-41 -24 -93 -39 -151 -39z" />
    <glyph glyph-name="s_t" unicode="&#xfb06;" horiz-adv-x="734" 
d="M201 -11c-58 0 -124 12 -163 24v114h69v-61c25 -7 62 -13 92 -13c56 0 91 20 91 55c0 94 -246 46 -246 205c0 75 55 126 165 126c25 0 53 -3 78 -8v27c0 79 40 136 145 136h153v-166h127v-69h-127v-239c0 -49 24 -64 68 -64c26 0 49 5 66 11v-64c-27 -8 -54 -14 -91 -14
c-78 0 -128 33 -128 126v244h-75v69h75v106h-70c-57 0 -76 -27 -76 -87v-140h-71v60c-21 4 -47 8 -72 8c-61 0 -85 -23 -85 -54c0 -97 246 -44 246 -207c0 -70 -47 -125 -171 -125z" />
    <glyph glyph-name="space" unicode=" " horiz-adv-x="218" 
 />
    </font>
</defs>
</svg>
